<svg width="508" height="372" viewBox="0 0 508 372" fill="none" xmlns="http://www.w3.org/2000/svg">
<rect x="90" y="123" width="252" height="102.9" rx="7" fill="white"/>
<rect x="90" y="123" width="252" height="102.9" rx="7" stroke="#F5F5F5" stroke-width="2"/>
<path d="M107.09 145.27L105 138.07H106.08L107.91 144.7H107.65L109.39 138.07H110.64L112.39 144.7H112.13L113.96 138.07H114.98L112.89 145.27H111.65L109.89 138.82H110.1L108.33 145.27H107.09Z" fill="#424242"/>
<path d="M117.763 145.37C117.25 145.37 116.797 145.257 116.403 145.03C116.017 144.803 115.713 144.49 115.493 144.09C115.273 143.69 115.163 143.23 115.163 142.71C115.163 142.183 115.27 141.723 115.483 141.33C115.703 140.93 116.01 140.62 116.403 140.4C116.797 140.18 117.247 140.07 117.753 140.07C118.247 140.07 118.673 140.177 119.033 140.39C119.4 140.597 119.68 140.887 119.873 141.26C120.073 141.633 120.173 142.077 120.173 142.59C120.173 142.67 120.17 142.747 120.163 142.82C120.163 142.887 120.157 142.957 120.143 143.03H115.863V142.25H119.413L119.153 142.56C119.153 142.013 119.03 141.597 118.783 141.31C118.537 141.023 118.193 140.88 117.753 140.88C117.28 140.88 116.903 141.043 116.623 141.37C116.35 141.69 116.213 142.137 116.213 142.71C116.213 143.29 116.35 143.743 116.623 144.07C116.903 144.397 117.29 144.56 117.783 144.56C118.083 144.56 118.343 144.5 118.563 144.38C118.783 144.253 118.947 144.07 119.053 143.83H120.033C119.867 144.31 119.583 144.687 119.183 144.96C118.79 145.233 118.317 145.37 117.763 145.37Z" fill="#424242"/>
<path d="M123.957 145.36C123.477 145.36 123.077 145.247 122.757 145.02C122.437 144.787 122.227 144.463 122.127 144.05L122.227 144.03V145.27H121.237V138.07H122.277V141.34L122.167 141.31C122.28 140.923 122.5 140.62 122.827 140.4C123.16 140.18 123.56 140.07 124.027 140.07C124.487 140.07 124.884 140.18 125.217 140.4C125.557 140.62 125.817 140.927 125.997 141.32C126.184 141.713 126.277 142.173 126.277 142.7C126.277 143.233 126.18 143.7 125.987 144.1C125.794 144.5 125.524 144.81 125.177 145.03C124.83 145.25 124.424 145.36 123.957 145.36ZM123.737 144.5C124.19 144.5 124.55 144.34 124.817 144.02C125.084 143.7 125.217 143.26 125.217 142.7C125.217 142.147 125.084 141.717 124.817 141.41C124.55 141.097 124.187 140.94 123.727 140.94C123.274 140.94 122.91 141.1 122.637 141.42C122.37 141.733 122.237 142.17 122.237 142.73C122.237 143.277 122.37 143.71 122.637 144.03C122.91 144.343 123.277 144.5 123.737 144.5Z" fill="#424242"/>
<path d="M129.22 145.37C128.553 145.37 128.023 145.223 127.63 144.93C127.236 144.637 127.013 144.223 126.96 143.69H127.92C127.966 143.983 128.1 144.21 128.32 144.37C128.546 144.523 128.853 144.6 129.24 144.6C129.58 144.6 129.84 144.54 130.02 144.42C130.2 144.3 130.29 144.13 130.29 143.91C130.29 143.75 130.236 143.617 130.13 143.51C130.03 143.397 129.83 143.303 129.53 143.23L128.71 143.04C128.196 142.913 127.813 142.727 127.56 142.48C127.313 142.227 127.19 141.917 127.19 141.55C127.19 141.09 127.36 140.73 127.7 140.47C128.046 140.203 128.52 140.07 129.12 140.07C129.713 140.07 130.19 140.203 130.55 140.47C130.916 140.737 131.123 141.11 131.17 141.59H130.21C130.17 141.35 130.053 141.167 129.86 141.04C129.673 140.907 129.416 140.84 129.09 140.84C128.783 140.84 128.546 140.897 128.38 141.01C128.22 141.117 128.14 141.267 128.14 141.46C128.14 141.62 128.2 141.753 128.32 141.86C128.446 141.967 128.653 142.057 128.94 142.13L129.78 142.34C130.266 142.46 130.633 142.657 130.88 142.93C131.126 143.197 131.25 143.52 131.25 143.9C131.25 144.36 131.07 144.72 130.71 144.98C130.356 145.24 129.86 145.37 129.22 145.37Z" fill="#424242"/>
<path d="M132.262 145.27V140.17H133.302V145.27H132.262ZM132.212 139.17V138H133.362V139.17H132.212Z" fill="#424242"/>
<path d="M136.893 145.37C136.3 145.37 135.863 145.233 135.583 144.96C135.31 144.68 135.173 144.27 135.173 143.73V139L136.203 138.61V143.74C136.203 144.007 136.273 144.203 136.413 144.33C136.553 144.457 136.78 144.52 137.093 144.52C137.213 144.52 137.32 144.51 137.413 144.49C137.507 144.47 137.587 144.447 137.653 144.42V145.26C137.58 145.293 137.477 145.32 137.343 145.34C137.21 145.36 137.06 145.37 136.893 145.37ZM134.153 141V140.17H137.653V141H134.153Z" fill="#424242"/>
<path d="M140.712 145.37C140.199 145.37 139.746 145.257 139.352 145.03C138.966 144.803 138.662 144.49 138.442 144.09C138.222 143.69 138.112 143.23 138.112 142.71C138.112 142.183 138.219 141.723 138.432 141.33C138.652 140.93 138.959 140.62 139.352 140.4C139.746 140.18 140.196 140.07 140.702 140.07C141.196 140.07 141.622 140.177 141.982 140.39C142.349 140.597 142.629 140.887 142.822 141.26C143.022 141.633 143.122 142.077 143.122 142.59C143.122 142.67 143.119 142.747 143.112 142.82C143.112 142.887 143.106 142.957 143.092 143.03H138.812V142.25H142.362L142.102 142.56C142.102 142.013 141.979 141.597 141.732 141.31C141.486 141.023 141.142 140.88 140.702 140.88C140.229 140.88 139.852 141.043 139.572 141.37C139.299 141.69 139.162 142.137 139.162 142.71C139.162 143.29 139.299 143.743 139.572 144.07C139.852 144.397 140.239 144.56 140.732 144.56C141.032 144.56 141.292 144.5 141.512 144.38C141.732 144.253 141.896 144.07 142.002 143.83H142.982C142.816 144.31 142.532 144.687 142.132 144.96C141.739 145.233 141.266 145.37 140.712 145.37Z" fill="#424242"/>
<path d="M146.159 145.27V140.17H147.149V141.44H147.199V145.27H146.159ZM147.199 142.61L147.069 141.4C147.189 140.967 147.396 140.637 147.689 140.41C147.982 140.183 148.332 140.07 148.739 140.07C148.892 140.07 148.999 140.083 149.059 140.11V141.09C149.026 141.077 148.979 141.07 148.919 141.07C148.859 141.063 148.786 141.06 148.699 141.06C148.199 141.06 147.822 141.19 147.569 141.45C147.322 141.71 147.199 142.097 147.199 142.61Z" fill="#424242"/>
<path d="M152.041 145.37C151.527 145.37 151.074 145.257 150.681 145.03C150.294 144.803 149.991 144.49 149.771 144.09C149.551 143.69 149.441 143.23 149.441 142.71C149.441 142.183 149.547 141.723 149.761 141.33C149.981 140.93 150.287 140.62 150.681 140.4C151.074 140.18 151.524 140.07 152.031 140.07C152.524 140.07 152.951 140.177 153.311 140.39C153.677 140.597 153.957 140.887 154.151 141.26C154.351 141.633 154.451 142.077 154.451 142.59C154.451 142.67 154.447 142.747 154.441 142.82C154.441 142.887 154.434 142.957 154.421 143.03H150.141V142.25H153.691L153.431 142.56C153.431 142.013 153.307 141.597 153.061 141.31C152.814 141.023 152.471 140.88 152.031 140.88C151.557 140.88 151.181 141.043 150.901 141.37C150.627 141.69 150.491 142.137 150.491 142.71C150.491 143.29 150.627 143.743 150.901 144.07C151.181 144.397 151.567 144.56 152.061 144.56C152.361 144.56 152.621 144.5 152.841 144.38C153.061 144.253 153.224 144.07 153.331 143.83H154.311C154.144 144.31 153.861 144.687 153.461 144.96C153.067 145.233 152.594 145.37 152.041 145.37Z" fill="#424242"/>
<path d="M159.224 145.27V144.1L159.324 144.13C159.217 144.51 158.997 144.813 158.664 145.04C158.33 145.26 157.93 145.37 157.464 145.37C157.004 145.37 156.6 145.26 156.254 145.04C155.914 144.82 155.647 144.513 155.454 144.12C155.267 143.727 155.174 143.267 155.174 142.74C155.174 142.207 155.27 141.74 155.464 141.34C155.657 140.94 155.927 140.63 156.274 140.41C156.62 140.19 157.027 140.08 157.494 140.08C157.98 140.08 158.38 140.197 158.694 140.43C159.014 140.657 159.224 140.977 159.324 141.39L159.184 141.41V138.07H160.214V145.27H159.224ZM157.724 144.5C158.184 144.5 158.547 144.343 158.814 144.03C159.08 143.71 159.214 143.27 159.214 142.71C159.214 142.163 159.077 141.733 158.804 141.42C158.537 141.1 158.174 140.94 157.714 140.94C157.26 140.94 156.9 141.1 156.634 141.42C156.374 141.733 156.244 142.173 156.244 142.74C156.244 143.293 156.374 143.727 156.634 144.04C156.9 144.347 157.264 144.5 157.724 144.5Z" fill="#424242"/>
<path d="M163.876 145.37C163.363 145.37 162.91 145.257 162.516 145.03C162.13 144.803 161.826 144.49 161.606 144.09C161.386 143.69 161.276 143.23 161.276 142.71C161.276 142.183 161.383 141.723 161.596 141.33C161.816 140.93 162.123 140.62 162.516 140.4C162.91 140.18 163.36 140.07 163.866 140.07C164.36 140.07 164.786 140.177 165.146 140.39C165.513 140.597 165.793 140.887 165.986 141.26C166.186 141.633 166.286 142.077 166.286 142.59C166.286 142.67 166.283 142.747 166.276 142.82C166.276 142.887 166.27 142.957 166.256 143.03H161.976V142.25H165.526L165.266 142.56C165.266 142.013 165.143 141.597 164.896 141.31C164.65 141.023 164.306 140.88 163.866 140.88C163.393 140.88 163.016 141.043 162.736 141.37C162.463 141.69 162.326 142.137 162.326 142.71C162.326 143.29 162.463 143.743 162.736 144.07C163.016 144.397 163.403 144.56 163.896 144.56C164.196 144.56 164.456 144.5 164.676 144.38C164.896 144.253 165.06 144.07 165.166 143.83H166.146C165.98 144.31 165.696 144.687 165.296 144.96C164.903 145.233 164.43 145.37 163.876 145.37Z" fill="#424242"/>
<path d="M169.21 145.37C168.543 145.37 168.013 145.223 167.62 144.93C167.227 144.637 167.003 144.223 166.95 143.69H167.91C167.957 143.983 168.09 144.21 168.31 144.37C168.537 144.523 168.843 144.6 169.23 144.6C169.57 144.6 169.83 144.54 170.01 144.42C170.19 144.3 170.28 144.13 170.28 143.91C170.28 143.75 170.227 143.617 170.12 143.51C170.02 143.397 169.82 143.303 169.52 143.23L168.7 143.04C168.187 142.913 167.803 142.727 167.55 142.48C167.303 142.227 167.18 141.917 167.18 141.55C167.18 141.09 167.35 140.73 167.69 140.47C168.037 140.203 168.51 140.07 169.11 140.07C169.703 140.07 170.18 140.203 170.54 140.47C170.907 140.737 171.113 141.11 171.16 141.59H170.2C170.16 141.35 170.043 141.167 169.85 141.04C169.663 140.907 169.407 140.84 169.08 140.84C168.773 140.84 168.537 140.897 168.37 141.01C168.21 141.117 168.13 141.267 168.13 141.46C168.13 141.62 168.19 141.753 168.31 141.86C168.437 141.967 168.643 142.057 168.93 142.13L169.77 142.34C170.257 142.46 170.623 142.657 170.87 142.93C171.117 143.197 171.24 143.52 171.24 143.9C171.24 144.36 171.06 144.72 170.7 144.98C170.347 145.24 169.85 145.37 169.21 145.37Z" fill="#424242"/>
<path d="M172.253 145.27V140.17H173.293V145.27H172.253ZM172.203 139.17V138H173.353V139.17H172.203Z" fill="#424242"/>
<path d="M176.863 147.42C176.223 147.42 175.693 147.273 175.273 146.98C174.86 146.693 174.61 146.31 174.523 145.83H175.503C175.57 146.05 175.717 146.223 175.943 146.35C176.177 146.477 176.487 146.54 176.873 146.54C177.373 146.54 177.747 146.417 177.993 146.17C178.24 145.923 178.363 145.557 178.363 145.07V143.97L178.453 143.99C178.353 144.377 178.137 144.683 177.803 144.91C177.47 145.13 177.07 145.24 176.603 145.24C176.157 145.24 175.763 145.133 175.423 144.92C175.083 144.707 174.82 144.41 174.633 144.03C174.447 143.643 174.353 143.193 174.353 142.68C174.353 142.16 174.45 141.703 174.643 141.31C174.837 140.917 175.107 140.613 175.453 140.4C175.807 140.187 176.217 140.08 176.683 140.08C177.163 140.08 177.56 140.197 177.873 140.43C178.193 140.657 178.397 140.98 178.483 141.4L178.403 141.41V140.17H179.393V145.06C179.393 145.793 179.167 146.37 178.713 146.79C178.267 147.21 177.65 147.42 176.863 147.42ZM176.913 144.4C177.36 144.4 177.717 144.243 177.983 143.93C178.257 143.617 178.393 143.187 178.393 142.64C178.393 142.107 178.257 141.687 177.983 141.38C177.717 141.073 177.357 140.92 176.903 140.92C176.45 140.92 176.09 141.077 175.823 141.39C175.557 141.697 175.423 142.123 175.423 142.67C175.423 143.203 175.557 143.627 175.823 143.94C176.097 144.247 176.46 144.4 176.913 144.4Z" fill="#424242"/>
<path d="M180.856 145.27V140.17H181.846V141.37H181.896V145.27H180.856ZM184.476 145.27V141.99C184.476 141.637 184.386 141.373 184.206 141.2C184.033 141.027 183.773 140.94 183.426 140.94C183.126 140.94 182.86 141.007 182.626 141.14C182.4 141.273 182.22 141.457 182.086 141.69C181.96 141.923 181.896 142.2 181.896 142.52L181.766 141.3C181.933 140.92 182.19 140.62 182.536 140.4C182.883 140.18 183.286 140.07 183.746 140.07C184.293 140.07 184.723 140.223 185.036 140.53C185.35 140.837 185.506 141.243 185.506 141.75V145.27H184.476Z" fill="#424242"/>
<rect x="105" y="155.42" width="56.963" height="7.48" rx="3.74" fill="#EDEEFF"/>
<path d="M113 161.18V155.42H113.848V161.18H113Z" fill="#7168FC"/>
<path d="M115.023 161.18V157.1H115.815V158.06H115.855V161.18H115.023ZM117.919 161.18V158.556C117.919 158.273 117.847 158.063 117.703 157.924C117.565 157.785 117.357 157.716 117.079 157.716C116.839 157.716 116.626 157.769 116.439 157.876C116.258 157.983 116.114 158.129 116.007 158.316C115.906 158.503 115.855 158.724 115.855 158.98L115.751 158.004C115.885 157.7 116.09 157.46 116.367 157.284C116.645 157.108 116.967 157.02 117.335 157.02C117.773 157.02 118.117 157.143 118.367 157.388C118.618 157.633 118.743 157.959 118.743 158.364V161.18H117.919Z" fill="#7168FC"/>
<path d="M121.461 161.18V155.42H123.901C124.317 155.42 124.672 155.489 124.965 155.628C125.258 155.767 125.482 155.964 125.637 156.22C125.797 156.476 125.877 156.78 125.877 157.132C125.877 157.489 125.797 157.799 125.637 158.06C125.482 158.316 125.256 158.516 124.957 158.66C124.664 158.804 124.312 158.876 123.901 158.876H122.109V158.172H123.861C124.24 158.172 124.528 158.081 124.725 157.9C124.928 157.719 125.029 157.465 125.029 157.14C125.029 156.809 124.93 156.556 124.733 156.38C124.536 156.204 124.245 156.116 123.861 156.116H122.309V161.18H121.461Z" fill="#7168FC"/>
<path d="M126.742 161.18V157.1H127.534V158.116H127.574V161.18H126.742ZM127.574 159.052L127.47 158.084C127.566 157.737 127.731 157.473 127.966 157.292C128.201 157.111 128.481 157.02 128.806 157.02C128.929 157.02 129.014 157.031 129.062 157.052V157.836C129.035 157.825 128.998 157.82 128.95 157.82C128.902 157.815 128.843 157.812 128.774 157.812C128.374 157.812 128.073 157.916 127.87 158.124C127.673 158.332 127.574 158.641 127.574 159.052Z" fill="#7168FC"/>
<path d="M131.557 161.26C131.141 161.26 130.776 161.169 130.461 160.988C130.146 160.801 129.901 160.548 129.725 160.228C129.549 159.903 129.461 159.535 129.461 159.124C129.461 158.708 129.549 158.343 129.725 158.028C129.906 157.713 130.152 157.468 130.461 157.292C130.776 157.111 131.141 157.02 131.557 157.02C131.978 157.02 132.346 157.111 132.661 157.292C132.976 157.468 133.218 157.713 133.389 158.028C133.565 158.343 133.653 158.708 133.653 159.124C133.653 159.535 133.565 159.903 133.389 160.228C133.218 160.548 132.976 160.801 132.661 160.988C132.346 161.169 131.978 161.26 131.557 161.26ZM131.557 160.58C131.808 160.58 132.024 160.519 132.205 160.396C132.392 160.273 132.538 160.103 132.645 159.884C132.752 159.665 132.805 159.409 132.805 159.116C132.805 158.679 132.688 158.335 132.453 158.084C132.224 157.828 131.925 157.7 131.557 157.7C131.194 157.7 130.896 157.828 130.661 158.084C130.432 158.34 130.317 158.684 130.317 159.116C130.317 159.409 130.368 159.665 130.469 159.884C130.576 160.103 130.722 160.273 130.909 160.396C131.101 160.519 131.317 160.58 131.557 160.58Z" fill="#7168FC"/>
<path d="M136.235 162.9C135.723 162.9 135.299 162.783 134.963 162.548C134.633 162.319 134.433 162.012 134.363 161.628H135.147C135.201 161.804 135.318 161.943 135.499 162.044C135.686 162.145 135.934 162.196 136.243 162.196C136.643 162.196 136.942 162.097 137.139 161.9C137.337 161.703 137.435 161.409 137.435 161.02V160.14L137.507 160.156C137.427 160.465 137.254 160.711 136.987 160.892C136.721 161.068 136.401 161.156 136.027 161.156C135.67 161.156 135.355 161.071 135.083 160.9C134.811 160.729 134.601 160.492 134.451 160.188C134.302 159.879 134.227 159.519 134.227 159.108C134.227 158.692 134.305 158.327 134.459 158.012C134.614 157.697 134.83 157.455 135.107 157.284C135.39 157.113 135.718 157.028 136.091 157.028C136.475 157.028 136.793 157.121 137.043 157.308C137.299 157.489 137.462 157.748 137.531 158.084L137.467 158.092V157.1H138.259V161.012C138.259 161.599 138.078 162.06 137.715 162.396C137.358 162.732 136.865 162.9 136.235 162.9ZM136.275 160.484C136.633 160.484 136.918 160.359 137.131 160.108C137.35 159.857 137.459 159.513 137.459 159.076C137.459 158.649 137.35 158.313 137.131 158.068C136.918 157.823 136.63 157.7 136.267 157.7C135.905 157.7 135.617 157.825 135.403 158.076C135.19 158.321 135.083 158.663 135.083 159.1C135.083 159.527 135.19 159.865 135.403 160.116C135.622 160.361 135.913 160.484 136.275 160.484Z" fill="#7168FC"/>
<path d="M139.43 161.18V157.1H140.222V158.116H140.261V161.18H139.43ZM140.261 159.052L140.157 158.084C140.253 157.737 140.419 157.473 140.653 157.292C140.888 157.111 141.168 157.02 141.493 157.02C141.616 157.02 141.702 157.031 141.75 157.052V157.836C141.723 157.825 141.686 157.82 141.638 157.82C141.59 157.815 141.531 157.812 141.462 157.812C141.062 157.812 140.76 157.916 140.558 158.124C140.36 158.332 140.261 158.641 140.261 159.052Z" fill="#7168FC"/>
<path d="M144.135 161.26C143.724 161.26 143.361 161.169 143.047 160.988C142.737 160.807 142.495 160.556 142.319 160.236C142.143 159.916 142.055 159.548 142.055 159.132C142.055 158.711 142.14 158.343 142.311 158.028C142.487 157.708 142.732 157.46 143.047 157.284C143.361 157.108 143.721 157.02 144.127 157.02C144.521 157.02 144.863 157.105 145.151 157.276C145.444 157.441 145.668 157.673 145.823 157.972C145.983 158.271 146.063 158.625 146.063 159.036C146.063 159.1 146.06 159.161 146.055 159.22C146.055 159.273 146.049 159.329 146.039 159.388H142.615V158.764H145.455L145.247 159.012C145.247 158.575 145.148 158.241 144.951 158.012C144.753 157.783 144.479 157.668 144.127 157.668C143.748 157.668 143.447 157.799 143.223 158.06C143.004 158.316 142.895 158.673 142.895 159.132C142.895 159.596 143.004 159.959 143.223 160.22C143.447 160.481 143.756 160.612 144.151 160.612C144.391 160.612 144.599 160.564 144.775 160.468C144.951 160.367 145.081 160.22 145.167 160.028H145.951C145.817 160.412 145.591 160.713 145.271 160.932C144.956 161.151 144.577 161.26 144.135 161.26Z" fill="#7168FC"/>
<path d="M148.402 161.26C147.868 161.26 147.444 161.143 147.13 160.908C146.815 160.673 146.636 160.343 146.593 159.916H147.361C147.399 160.151 147.505 160.332 147.681 160.46C147.863 160.583 148.108 160.644 148.417 160.644C148.689 160.644 148.898 160.596 149.042 160.5C149.186 160.404 149.257 160.268 149.257 160.092C149.257 159.964 149.215 159.857 149.13 159.772C149.05 159.681 148.89 159.607 148.65 159.548L147.993 159.396C147.583 159.295 147.276 159.145 147.074 158.948C146.876 158.745 146.778 158.497 146.778 158.204C146.778 157.836 146.914 157.548 147.186 157.34C147.463 157.127 147.841 157.02 148.321 157.02C148.796 157.02 149.177 157.127 149.465 157.34C149.759 157.553 149.924 157.852 149.962 158.236H149.194C149.162 158.044 149.068 157.897 148.914 157.796C148.764 157.689 148.559 157.636 148.298 157.636C148.052 157.636 147.863 157.681 147.729 157.772C147.601 157.857 147.537 157.977 147.537 158.132C147.537 158.26 147.585 158.367 147.681 158.452C147.783 158.537 147.948 158.609 148.178 158.668L148.849 158.836C149.239 158.932 149.532 159.089 149.729 159.308C149.927 159.521 150.026 159.78 150.026 160.084C150.026 160.452 149.881 160.74 149.593 160.948C149.311 161.156 148.914 161.26 148.402 161.26Z" fill="#7168FC"/>
<path d="M152.339 161.26C151.806 161.26 151.382 161.143 151.067 160.908C150.752 160.673 150.574 160.343 150.531 159.916H151.299C151.336 160.151 151.443 160.332 151.619 160.46C151.8 160.583 152.046 160.644 152.355 160.644C152.627 160.644 152.835 160.596 152.979 160.5C153.123 160.404 153.195 160.268 153.195 160.092C153.195 159.964 153.152 159.857 153.067 159.772C152.987 159.681 152.827 159.607 152.587 159.548L151.931 159.396C151.52 159.295 151.214 159.145 151.011 158.948C150.814 158.745 150.715 158.497 150.715 158.204C150.715 157.836 150.851 157.548 151.123 157.34C151.4 157.127 151.779 157.02 152.259 157.02C152.734 157.02 153.115 157.127 153.403 157.34C153.696 157.553 153.862 157.852 153.899 158.236H153.131C153.099 158.044 153.006 157.897 152.851 157.796C152.702 157.689 152.496 157.636 152.235 157.636C151.99 157.636 151.8 157.681 151.667 157.772C151.539 157.857 151.475 157.977 151.475 158.132C151.475 158.26 151.523 158.367 151.619 158.452C151.72 158.537 151.886 158.609 152.115 158.668L152.787 158.836C153.176 158.932 153.47 159.089 153.667 159.308C153.864 159.521 153.963 159.78 153.963 160.084C153.963 160.452 153.819 160.74 153.531 160.948C153.248 161.156 152.851 161.26 152.339 161.26Z" fill="#7168FC"/>
<rect x="105" y="170.9" width="188" height="8" rx="4" fill="#E0E0E0"/>
<rect x="105" y="186.9" width="76" height="8" rx="4" fill="#E0E0E0"/>
<rect x="105" y="202.9" width="100" height="8" rx="4" fill="#E0E0E0"/>
<rect x="309.385" y="188" width="151.954" height="30" rx="8" fill="url(#paint0_linear_3_81)" fill-opacity="0.8"/>
<g filter="url(#filter0_d_3_81)">
<rect x="303" y="144" width="166" height="65.76" rx="8" fill="url(#paint1_linear_3_81)"/>
<path d="M325.432 177.76C324.184 177.76 323.12 177.536 322.24 177.088C321.376 176.624 320.696 175.992 320.2 175.192C319.704 174.376 319.392 173.44 319.264 172.384H322.936C323.016 173.232 323.272 173.872 323.704 174.304C324.136 174.72 324.752 174.928 325.552 174.928C326.128 174.928 326.608 174.816 326.992 174.592C327.392 174.352 327.704 173.992 327.928 173.512C328.168 173.016 328.336 172.376 328.432 171.592C328.544 170.808 328.6 169.856 328.6 168.736V167.176L329.584 167.2C329.408 167.968 329.096 168.632 328.648 169.192C328.2 169.752 327.632 170.184 326.944 170.488C326.272 170.792 325.496 170.944 324.616 170.944C323.512 170.944 322.536 170.72 321.688 170.272C320.856 169.808 320.2 169.176 319.72 168.376C319.24 167.56 319 166.624 319 165.568C319 164.448 319.272 163.472 319.816 162.64C320.36 161.808 321.12 161.16 322.096 160.696C323.072 160.232 324.208 160 325.504 160C327.808 160 329.576 160.744 330.808 162.232C332.056 163.704 332.68 165.84 332.68 168.64C332.68 170.528 332.392 172.16 331.816 173.536C331.256 174.896 330.432 175.944 329.344 176.68C328.272 177.4 326.968 177.76 325.432 177.76ZM325.84 168.16C326.736 168.16 327.408 167.92 327.856 167.44C328.304 166.96 328.528 166.352 328.528 165.616C328.528 165.104 328.424 164.64 328.216 164.224C328.024 163.792 327.728 163.456 327.328 163.216C326.928 162.96 326.432 162.832 325.84 162.832C324.96 162.832 324.28 163.096 323.8 163.624C323.32 164.136 323.08 164.768 323.08 165.52C323.08 166.272 323.32 166.904 323.8 167.416C324.28 167.912 324.96 168.16 325.84 168.16Z" fill="url(#paint2_linear_3_81)"/>
<path d="M342.283 177.52V172.96L342.475 172.48V162.616L343.939 163.408L336.931 172.696L335.227 171.424H347.755V174.256H333.883V171.424L342.379 160.24H346.027V177.52H342.283Z" fill="url(#paint3_linear_3_81)"/>
<path d="M349.193 177.52L361.817 160.24H364.577L351.977 177.52H349.193ZM361.481 177.76C360.809 177.76 360.177 177.6 359.585 177.28C358.993 176.96 358.513 176.472 358.145 175.816C357.777 175.16 357.593 174.328 357.593 173.32C357.593 172.312 357.769 171.488 358.121 170.848C358.489 170.192 358.969 169.704 359.561 169.384C360.153 169.064 360.793 168.904 361.481 168.904C362.201 168.904 362.857 169.064 363.449 169.384C364.057 169.704 364.537 170.192 364.889 170.848C365.241 171.488 365.417 172.312 365.417 173.32C365.417 174.328 365.233 175.16 364.865 175.816C364.497 176.472 364.009 176.96 363.401 177.28C362.809 177.6 362.169 177.76 361.481 177.76ZM361.481 175.696C361.977 175.696 362.393 175.496 362.729 175.096C363.065 174.68 363.233 174.08 363.233 173.296C363.233 172.544 363.065 171.968 362.729 171.568C362.409 171.168 361.993 170.968 361.481 170.968C360.969 170.968 360.553 171.168 360.233 171.568C359.929 171.968 359.777 172.544 359.777 173.296C359.777 174.08 359.929 174.68 360.233 175.096C360.553 175.496 360.969 175.696 361.481 175.696ZM352.121 168.856C351.433 168.856 350.793 168.696 350.201 168.376C349.609 168.056 349.129 167.568 348.761 166.912C348.409 166.256 348.233 165.424 348.233 164.416C348.233 163.408 348.409 162.584 348.761 161.944C349.129 161.288 349.609 160.8 350.201 160.48C350.793 160.16 351.433 160 352.121 160C352.841 160 353.497 160.16 354.089 160.48C354.681 160.8 355.153 161.288 355.505 161.944C355.857 162.584 356.033 163.408 356.033 164.416C356.033 165.424 355.849 166.256 355.481 166.912C355.113 167.568 354.633 168.056 354.041 168.376C353.449 168.696 352.809 168.856 352.121 168.856ZM352.121 166.792C352.617 166.792 353.033 166.592 353.369 166.192C353.705 165.776 353.873 165.176 353.873 164.392C353.873 163.64 353.705 163.064 353.369 162.664C353.049 162.264 352.633 162.064 352.121 162.064C351.609 162.064 351.193 162.264 350.873 162.664C350.569 163.048 350.417 163.624 350.417 164.392C350.417 165.176 350.569 165.776 350.873 166.192C351.193 166.592 351.609 166.792 352.121 166.792Z" fill="url(#paint4_linear_3_81)"/>
<path d="M322.48 189.16C321.98 189.16 321.517 189.07 321.09 188.89C320.663 188.703 320.293 188.447 319.98 188.12C319.673 187.787 319.433 187.393 319.26 186.94C319.087 186.487 319 185.99 319 185.45C319 184.91 319.083 184.417 319.25 183.97C319.423 183.517 319.663 183.127 319.97 182.8C320.283 182.467 320.653 182.21 321.08 182.03C321.507 181.85 321.97 181.76 322.47 181.76C323.03 181.76 323.533 181.873 323.98 182.1C324.427 182.32 324.79 182.633 325.07 183.04C325.357 183.447 325.533 183.92 325.6 184.46H324.56C324.473 183.893 324.243 183.453 323.87 183.14C323.503 182.82 323.04 182.66 322.48 182.66C322.007 182.66 321.587 182.777 321.22 183.01C320.86 183.237 320.58 183.56 320.38 183.98C320.18 184.393 320.08 184.883 320.08 185.45C320.08 186.01 320.18 186.503 320.38 186.93C320.587 187.35 320.87 187.677 321.23 187.91C321.59 188.143 322.007 188.26 322.48 188.26C323.04 188.26 323.507 188.103 323.88 187.79C324.26 187.47 324.49 187.027 324.57 186.46H325.62C325.547 187.007 325.367 187.483 325.08 187.89C324.793 188.29 324.427 188.603 323.98 188.83C323.54 189.05 323.04 189.16 322.48 189.16Z" fill="#757575"/>
<path d="M328.932 189.16C328.412 189.16 327.955 189.047 327.562 188.82C327.169 188.587 326.862 188.27 326.642 187.87C326.422 187.463 326.312 187.003 326.312 186.49C326.312 185.97 326.422 185.513 326.642 185.12C326.869 184.727 327.175 184.42 327.562 184.2C327.955 183.973 328.412 183.86 328.932 183.86C329.459 183.86 329.919 183.973 330.312 184.2C330.705 184.42 331.009 184.727 331.222 185.12C331.442 185.513 331.552 185.97 331.552 186.49C331.552 187.003 331.442 187.463 331.222 187.87C331.009 188.27 330.705 188.587 330.312 188.82C329.919 189.047 329.459 189.16 328.932 189.16ZM328.932 188.31C329.245 188.31 329.515 188.233 329.742 188.08C329.975 187.927 330.159 187.713 330.292 187.44C330.425 187.167 330.492 186.847 330.492 186.48C330.492 185.933 330.345 185.503 330.052 185.19C329.765 184.87 329.392 184.71 328.932 184.71C328.479 184.71 328.105 184.87 327.812 185.19C327.525 185.51 327.382 185.94 327.382 186.48C327.382 186.847 327.445 187.167 327.572 187.44C327.705 187.713 327.889 187.927 328.122 188.08C328.362 188.233 328.632 188.31 328.932 188.31Z" fill="#757575"/>
<path d="M332.62 189.06V183.96H333.61V185.16H333.66V189.06H332.62ZM336.06 189.06V185.73C336.06 185.383 335.98 185.13 335.82 184.97C335.66 184.81 335.43 184.73 335.13 184.73C334.85 184.73 334.597 184.797 334.37 184.93C334.15 185.057 333.977 185.237 333.85 185.47C333.724 185.697 333.66 185.967 333.66 186.28L333.53 185.09C333.697 184.71 333.947 184.41 334.28 184.19C334.62 183.97 335 183.86 335.42 183.86C335.927 183.86 336.33 184.007 336.63 184.3C336.937 184.593 337.09 184.98 337.09 185.46V189.06H336.06ZM339.5 189.06V185.73C339.5 185.383 339.417 185.13 339.25 184.97C339.09 184.81 338.86 184.73 338.56 184.73C338.287 184.73 338.037 184.797 337.81 184.93C337.59 185.057 337.414 185.237 337.28 185.47C337.154 185.697 337.09 185.967 337.09 186.28L336.88 185.09C337.054 184.71 337.314 184.41 337.66 184.19C338.014 183.97 338.407 183.86 338.84 183.86C339.354 183.86 339.764 184.01 340.07 184.31C340.377 184.603 340.53 184.997 340.53 185.49V189.06H339.5Z" fill="#757575"/>
<path d="M344.647 189.15C344.167 189.15 343.767 189.037 343.447 188.81C343.134 188.577 342.927 188.253 342.827 187.84L342.967 187.82V191.11H341.927V183.96H342.917V185.13L342.817 185.1C342.924 184.713 343.15 184.41 343.497 184.19C343.844 183.97 344.25 183.86 344.717 183.86C345.177 183.86 345.574 183.97 345.907 184.19C346.247 184.41 346.507 184.717 346.687 185.11C346.874 185.503 346.967 185.963 346.967 186.49C346.967 187.023 346.87 187.49 346.677 187.89C346.484 188.29 346.214 188.6 345.867 188.82C345.52 189.04 345.114 189.15 344.647 189.15ZM344.427 188.29C344.88 188.29 345.24 188.13 345.507 187.81C345.774 187.49 345.907 187.05 345.907 186.49C345.907 185.937 345.774 185.507 345.507 185.2C345.24 184.887 344.877 184.73 344.417 184.73C343.964 184.73 343.6 184.89 343.327 185.21C343.06 185.523 342.927 185.96 342.927 186.52C342.927 187.067 343.06 187.5 343.327 187.82C343.6 188.133 343.967 188.29 344.427 188.29Z" fill="#757575"/>
<path d="M348.06 189.06V181.86H349.1V189.06H348.06Z" fill="#757575"/>
<path d="M352.76 189.16C352.246 189.16 351.793 189.047 351.4 188.82C351.013 188.593 350.71 188.28 350.49 187.88C350.27 187.48 350.16 187.02 350.16 186.5C350.16 185.973 350.266 185.513 350.48 185.12C350.7 184.72 351.006 184.41 351.4 184.19C351.793 183.97 352.243 183.86 352.75 183.86C353.243 183.86 353.67 183.967 354.03 184.18C354.396 184.387 354.676 184.677 354.87 185.05C355.07 185.423 355.17 185.867 355.17 186.38C355.17 186.46 355.166 186.537 355.16 186.61C355.16 186.677 355.153 186.747 355.14 186.82H350.86V186.04H354.41L354.15 186.35C354.15 185.803 354.026 185.387 353.78 185.1C353.533 184.813 353.19 184.67 352.75 184.67C352.276 184.67 351.9 184.833 351.62 185.16C351.346 185.48 351.21 185.927 351.21 186.5C351.21 187.08 351.346 187.533 351.62 187.86C351.9 188.187 352.286 188.35 352.78 188.35C353.08 188.35 353.34 188.29 353.56 188.17C353.78 188.043 353.943 187.86 354.05 187.62H355.03C354.863 188.1 354.58 188.477 354.18 188.75C353.786 189.023 353.313 189.16 352.76 189.16Z" fill="#757575"/>
<path d="M358.316 189.16C357.722 189.16 357.286 189.023 357.006 188.75C356.732 188.47 356.596 188.06 356.596 187.52V182.79L357.626 182.4V187.53C357.626 187.797 357.696 187.993 357.836 188.12C357.976 188.247 358.202 188.31 358.516 188.31C358.636 188.31 358.742 188.3 358.836 188.28C358.929 188.26 359.009 188.237 359.076 188.21V189.05C359.002 189.083 358.899 189.11 358.766 189.13C358.632 189.15 358.482 189.16 358.316 189.16ZM355.576 184.79V183.96H359.076V184.79H355.576Z" fill="#757575"/>
<path d="M362.135 189.16C361.621 189.16 361.168 189.047 360.775 188.82C360.388 188.593 360.085 188.28 359.865 187.88C359.645 187.48 359.535 187.02 359.535 186.5C359.535 185.973 359.641 185.513 359.855 185.12C360.075 184.72 360.381 184.41 360.775 184.19C361.168 183.97 361.618 183.86 362.125 183.86C362.618 183.86 363.045 183.967 363.405 184.18C363.771 184.387 364.051 184.677 364.245 185.05C364.445 185.423 364.545 185.867 364.545 186.38C364.545 186.46 364.541 186.537 364.535 186.61C364.535 186.677 364.528 186.747 364.515 186.82H360.235V186.04H363.785L363.525 186.35C363.525 185.803 363.401 185.387 363.155 185.1C362.908 184.813 362.565 184.67 362.125 184.67C361.651 184.67 361.275 184.833 360.995 185.16C360.721 185.48 360.585 185.927 360.585 186.5C360.585 187.08 360.721 187.533 360.995 187.86C361.275 188.187 361.661 188.35 362.155 188.35C362.455 188.35 362.715 188.29 362.935 188.17C363.155 188.043 363.318 187.86 363.425 187.62H364.405C364.238 188.1 363.955 188.477 363.555 188.75C363.161 189.023 362.688 189.16 362.135 189.16Z" fill="#757575"/>
</g>
<g filter="url(#filter1_d_3_81)">
<g clip-path="url(#clip0_3_81)">
<mask id="mask0_3_81" style="mask-type:luminance" maskUnits="userSpaceOnUse" x="335" y="224" width="41" height="41">
<path d="M375.219 248.678C377.453 237.861 370.495 227.28 359.678 225.046C348.861 222.811 338.28 229.769 336.046 240.587C333.811 251.404 340.769 261.984 351.587 264.219C362.404 266.453 372.984 259.495 375.219 248.678Z" fill="white"/>
</mask>
<g mask="url(#mask0_3_81)">
<path d="M379.265 229.092L340.092 221L332 260.173L371.173 268.265L379.265 229.092Z" fill="#FF005B"/>
<path d="M373.856 236.393C369.306 226.328 357.458 221.858 347.393 226.408C337.328 230.959 332.858 242.807 337.409 252.872C341.959 262.937 353.807 267.407 363.872 262.856C373.937 258.306 378.407 246.457 373.856 236.393Z" fill="#FFB238"/>
<path d="M348.727 240.037C350.781 241.435 352.983 241.731 355.334 240.927" stroke="black" stroke-width="2.22222" stroke-linecap="round"/>
<path d="M345.466 235.113C345.548 234.505 345.245 233.962 344.789 233.901C344.333 233.839 343.896 234.282 343.815 234.891C343.733 235.499 344.036 236.042 344.492 236.103C344.948 236.164 345.384 235.721 345.466 235.113Z" fill="black"/>
<path d="M360.883 237.19C360.965 236.581 360.661 236.039 360.205 235.977C359.749 235.916 359.313 236.359 359.231 236.967C359.149 237.575 359.452 238.118 359.908 238.179C360.365 238.241 360.801 237.798 360.883 237.19Z" fill="black"/>
</g>
</g>
<rect x="340.869" y="222.182" width="38" height="38" rx="19" transform="rotate(11.6708 340.869 222.182)" stroke="white" stroke-width="2"/>
</g>
<g filter="url(#filter2_d_3_81)">
<g clip-path="url(#clip1_3_81)">
<mask id="mask1_3_81" style="mask-type:luminance" maskUnits="userSpaceOnUse" x="386" y="58" width="51" height="51">
<path d="M437 83.5C437 69.4167 425.583 58 411.5 58C397.417 58 386 69.4167 386 83.5C386 97.5833 397.417 109 411.5 109C425.583 109 437 97.5833 437 83.5Z" fill="white"/>
</mask>
<g mask="url(#mask1_3_81)">
<path d="M437 58H386V109H437V58Z" fill="#49007E"/>
<path d="M401.13 66.0326L395.452 106.436C394.668 112.014 398.555 117.172 404.133 117.956L444.536 123.634C450.115 124.418 455.272 120.531 456.056 114.953L461.735 74.55C462.519 68.9715 458.632 63.8137 453.054 63.0297L412.651 57.3514C407.072 56.5674 401.914 60.4541 401.13 66.0326Z" fill="#FF7D10"/>
<path d="M410.744 94.3611C410.94 95.7564 411.867 96.9906 413.321 97.7923C414.775 98.594 416.637 98.8976 418.497 98.6361C420.358 98.3747 422.064 97.5696 423.241 96.3982C424.418 95.2267 424.969 93.7847 424.772 92.3895" fill="black"/>
<path d="M408.859 86.0424C408.75 85.2676 408.191 84.7057 407.61 84.7874C407.029 84.8691 406.646 85.5634 406.755 86.3382C406.864 87.113 407.423 87.6748 408.004 87.5932C408.585 87.5115 408.968 86.8172 408.859 86.0424Z" fill="black"/>
<path d="M425.694 83.6765C425.585 82.9017 425.026 82.3398 424.444 82.4215C423.863 82.5031 423.481 83.1974 423.589 83.9722C423.698 84.747 424.258 85.3089 424.839 85.2272C425.42 85.1456 425.803 84.4513 425.694 83.6765Z" fill="black"/>
</g>
</g>
<rect x="387" y="59" width="49" height="49" rx="24.5" stroke="white" stroke-width="2"/>
</g>
<g filter="url(#filter3_d_3_81)">
<g clip-path="url(#clip2_3_81)">
<mask id="mask2_3_81" style="mask-type:luminance" maskUnits="userSpaceOnUse" x="195" y="280" width="42" height="42">
<path d="M237 301C237 289.402 227.598 280 216 280C204.402 280 195 289.402 195 301C195 312.598 204.402 322 216 322C227.598 322 237 312.598 237 301Z" fill="white"/>
</mask>
<g mask="url(#mask2_3_81)">
<path d="M237 280H195V322H237V280Z" fill="#FFB238"/>
<path d="M248.666 301.233C244.134 288.073 229.794 281.079 216.634 285.61C203.475 290.141 196.48 304.482 201.011 317.641C205.543 330.801 219.884 337.795 233.043 333.264C246.202 328.733 253.197 314.392 248.666 301.233Z" fill="#49007E"/>
<path d="M204.395 305.768C204.416 306.928 205.049 308.03 206.158 308.831C207.266 309.633 208.757 310.067 210.304 310.04C211.851 310.013 213.326 309.527 214.406 308.687C215.485 307.848 216.08 306.724 216.06 305.564" fill="white"/>
<path d="M206.023 298.738C206.012 298.094 205.611 297.579 205.128 297.587C204.644 297.596 204.262 298.125 204.273 298.769C204.284 299.413 204.685 299.929 205.168 299.92C205.651 299.912 206.034 299.383 206.023 298.738Z" fill="white"/>
<path d="M215.355 298.576C215.344 297.931 214.943 297.416 214.46 297.424C213.976 297.433 213.594 297.962 213.605 298.606C213.616 299.25 214.017 299.766 214.5 299.757C214.983 299.749 215.366 299.22 215.355 298.576Z" fill="white"/>
</g>
</g>
<rect x="196" y="281" width="40" height="40" rx="20" stroke="white" stroke-width="2"/>
</g>
<g filter="url(#filter4_d_3_81)">
<g clip-path="url(#clip3_3_81)">
<mask id="mask3_3_81" style="mask-type:luminance" maskUnits="userSpaceOnUse" x="30" y="122" width="46" height="46">
<path d="M76 145C76 132.297 65.7025 122 53 122C40.2975 122 30 132.297 30 145C30 157.703 40.2975 168 53 168C65.7025 168 76 157.703 76 145Z" fill="white"/>
</mask>
<g mask="url(#mask3_3_81)">
<path d="M76 122H30V168H76V122Z" fill="#49007E"/>
<path d="M46.5533 167.552C60.5176 167.065 71.4426 155.349 70.955 141.385C70.4673 127.421 58.7517 116.496 44.7874 116.983C30.8231 117.471 19.8982 129.186 20.3858 143.151C20.8734 157.115 32.5891 168.04 46.5533 167.552Z" fill="#FF7D10"/>
<path d="M48.8481 139.331C51.201 140.952 53.7317 141.307 56.4402 140.398" stroke="black" stroke-width="2.22222" stroke-linecap="round"/>
<path d="M46.5739 132.559C46.6722 131.86 46.3269 131.234 45.8028 131.161C45.2786 131.087 44.7741 131.594 44.6759 132.292C44.5777 132.991 44.923 133.618 45.4471 133.691C45.9712 133.765 46.4757 133.258 46.5739 132.559Z" fill="black"/>
<path d="M61.758 134.693C61.8562 133.994 61.511 133.368 60.9868 133.295C60.4627 133.221 59.9582 133.728 59.86 134.426C59.7618 135.125 60.1071 135.752 60.6312 135.825C61.1553 135.899 61.6598 135.392 61.758 134.693Z" fill="black"/>
</g>
</g>
<rect x="31" y="123" width="44" height="44" rx="22" stroke="white" stroke-width="2"/>
</g>
<defs>
<filter id="filter0_d_3_81" x="293" y="134" width="186" height="85.76" filterUnits="userSpaceOnUse" color-interpolation-filters="sRGB">
<feFlood flood-opacity="0" result="BackgroundImageFix"/>
<feColorMatrix in="SourceAlpha" type="matrix" values="0 0 0 0 0 0 0 0 0 0 0 0 0 0 0 0 0 0 127 0" result="hardAlpha"/>
<feOffset/>
<feGaussianBlur stdDeviation="5"/>
<feColorMatrix type="matrix" values="0 0 0 0 0.270588 0 0 0 0 0.352941 0 0 0 0 0.392157 0 0 0 0.25 0"/>
<feBlend mode="normal" in2="BackgroundImageFix" result="effect1_dropShadow_3_81"/>
<feBlend mode="normal" in="SourceGraphic" in2="effect1_dropShadow_3_81" result="shape"/>
</filter>
<filter id="filter1_d_3_81" x="322" y="211" width="67.2646" height="67.2646" filterUnits="userSpaceOnUse" color-interpolation-filters="sRGB">
<feFlood flood-opacity="0" result="BackgroundImageFix"/>
<feColorMatrix in="SourceAlpha" type="matrix" values="0 0 0 0 0 0 0 0 0 0 0 0 0 0 0 0 0 0 127 0" result="hardAlpha"/>
<feOffset/>
<feGaussianBlur stdDeviation="5"/>
<feColorMatrix type="matrix" values="0 0 0 0 0.270588 0 0 0 0 0.352941 0 0 0 0 0.392157 0 0 0 0.25 0"/>
<feBlend mode="normal" in2="BackgroundImageFix" result="effect1_dropShadow_3_81"/>
<feBlend mode="normal" in="SourceGraphic" in2="effect1_dropShadow_3_81" result="shape"/>
</filter>
<filter id="filter2_d_3_81" x="376" y="48" width="71" height="71" filterUnits="userSpaceOnUse" color-interpolation-filters="sRGB">
<feFlood flood-opacity="0" result="BackgroundImageFix"/>
<feColorMatrix in="SourceAlpha" type="matrix" values="0 0 0 0 0 0 0 0 0 0 0 0 0 0 0 0 0 0 127 0" result="hardAlpha"/>
<feOffset/>
<feGaussianBlur stdDeviation="5"/>
<feColorMatrix type="matrix" values="0 0 0 0 0.270588 0 0 0 0 0.352941 0 0 0 0 0.392157 0 0 0 0.25 0"/>
<feBlend mode="normal" in2="BackgroundImageFix" result="effect1_dropShadow_3_81"/>
<feBlend mode="normal" in="SourceGraphic" in2="effect1_dropShadow_3_81" result="shape"/>
</filter>
<filter id="filter3_d_3_81" x="185" y="270" width="62" height="62" filterUnits="userSpaceOnUse" color-interpolation-filters="sRGB">
<feFlood flood-opacity="0" result="BackgroundImageFix"/>
<feColorMatrix in="SourceAlpha" type="matrix" values="0 0 0 0 0 0 0 0 0 0 0 0 0 0 0 0 0 0 127 0" result="hardAlpha"/>
<feOffset/>
<feGaussianBlur stdDeviation="5"/>
<feColorMatrix type="matrix" values="0 0 0 0 0.270588 0 0 0 0 0.352941 0 0 0 0 0.392157 0 0 0 0.25 0"/>
<feBlend mode="normal" in2="BackgroundImageFix" result="effect1_dropShadow_3_81"/>
<feBlend mode="normal" in="SourceGraphic" in2="effect1_dropShadow_3_81" result="shape"/>
</filter>
<filter id="filter4_d_3_81" x="20" y="112" width="66" height="66" filterUnits="userSpaceOnUse" color-interpolation-filters="sRGB">
<feFlood flood-opacity="0" result="BackgroundImageFix"/>
<feColorMatrix in="SourceAlpha" type="matrix" values="0 0 0 0 0 0 0 0 0 0 0 0 0 0 0 0 0 0 127 0" result="hardAlpha"/>
<feOffset/>
<feGaussianBlur stdDeviation="5"/>
<feColorMatrix type="matrix" values="0 0 0 0 0.270588 0 0 0 0 0.352941 0 0 0 0 0.392157 0 0 0 0.25 0"/>
<feBlend mode="normal" in2="BackgroundImageFix" result="effect1_dropShadow_3_81"/>
<feBlend mode="normal" in="SourceGraphic" in2="effect1_dropShadow_3_81" result="shape"/>
</filter>
<linearGradient id="paint0_linear_3_81" x1="385.361" y1="188" x2="385.361" y2="218" gradientUnits="userSpaceOnUse">
<stop stop-color="white"/>
<stop offset="1" stop-color="#EFEFEF"/>
</linearGradient>
<linearGradient id="paint1_linear_3_81" x1="386" y1="144" x2="386" y2="209.76" gradientUnits="userSpaceOnUse">
<stop stop-color="white"/>
<stop offset="1" stop-color="#EFF3FF"/>
</linearGradient>
<linearGradient id="paint2_linear_3_81" x1="322" y1="178" x2="368" y2="160" gradientUnits="userSpaceOnUse">
<stop stop-color="#746EDE"/>
<stop offset="1" stop-color="#A0ACFA"/>
</linearGradient>
<linearGradient id="paint3_linear_3_81" x1="322" y1="178" x2="368" y2="160" gradientUnits="userSpaceOnUse">
<stop stop-color="#746EDE"/>
<stop offset="1" stop-color="#A0ACFA"/>
</linearGradient>
<linearGradient id="paint4_linear_3_81" x1="322" y1="178" x2="368" y2="160" gradientUnits="userSpaceOnUse">
<stop stop-color="#746EDE"/>
<stop offset="1" stop-color="#A0ACFA"/>
</linearGradient>
<clipPath id="clip0_3_81">
<rect x="340.092" y="221" width="40" height="40" rx="20" transform="rotate(11.6708 340.092 221)" fill="white"/>
</clipPath>
<clipPath id="clip1_3_81">
<rect x="386" y="58" width="51" height="51" rx="25.5" fill="white"/>
</clipPath>
<clipPath id="clip2_3_81">
<rect x="195" y="280" width="42" height="42" rx="21" fill="white"/>
</clipPath>
<clipPath id="clip3_3_81">
<rect x="30" y="122" width="46" height="46" rx="23" fill="white"/>
</clipPath>
</defs>
</svg>
