<svg width="61" height="56" viewBox="0 0 61 56" fill="none" xmlns="http://www.w3.org/2000/svg">
<path d="M60.4277 5.25407C60.4277 5.25407 60.4268 5.27929 60.4264 5.2919L44.1022 53.2108C43.8533 53.9897 43.3722 54.6738 42.7233 55.1714C42.0745 55.669 41.2889 55.9561 40.4722 55.9943C40.3557 56.0006 40.2395 56.0016 40.1236 55.9977C39.3601 55.9742 38.6194 55.7328 37.9887 55.3019C37.3581 54.8712 36.8638 54.2689 36.5645 53.5662L28.022 34.4113C27.9364 34.2194 27.9131 34.0056 27.9549 33.7997C27.9966 33.5938 28.1017 33.406 28.2553 33.2626L43.3616 19.1482C43.737 18.7788 43.9535 18.2777 43.9645 17.7512C43.9757 17.2247 43.7806 16.7147 43.4212 16.3299C43.0616 15.9451 42.566 15.7162 42.04 15.6915C41.5142 15.6669 40.9993 15.8487 40.6054 16.1984L25.4916 30.3126C25.3381 30.4562 25.1439 30.5482 24.9355 30.5761C24.7273 30.6039 24.5154 30.5659 24.3298 30.4676L5.7804 20.6482C5.05486 20.2693 4.4616 19.6788 4.0792 18.9552C3.69679 18.2315 3.5433 17.4088 3.63907 16.5958C3.73485 15.7831 4.07537 15.0185 4.61551 14.4035C5.15565 13.7886 5.86991 13.3523 6.66361 13.1524L55.5791 0.114439L55.617 0.115707C56.3127 -0.0545736 57.0416 -0.0366232 57.7282 0.167668C58.4149 0.37198 59.035 0.755298 59.5247 1.27832C60.0142 1.80133 60.356 2.4452 60.5147 3.14386C60.6734 3.84252 60.6433 4.57083 60.4277 5.25407Z" fill="#EF469A"/>
<path d="M3.14417 24.5024L15.1689 34.4281L42.9642 13.9517C45.587 14.0354 45.6904 16.1315 45.1272 17.1543L15.7737 51.3066C13.9496 52.5503 12.1939 51.2917 11.5441 50.5068L0 26.3026C0.269279 23.6433 2.20831 23.9944 3.14417 24.5024Z" fill="#4438E7"/>
</svg>
