<svg width="83" height="42" viewBox="0 0 83 42" fill="none" xmlns="http://www.w3.org/2000/svg">
<path d="M14.7681 40L0.76799 26.0002C-0.83201 24.4002 0.434657 22.3334 1.26799 21.5001L5.76799 17.0001C7.76799 15.0001 9.93466 16.1668 10.768 17.0001L19.268 25.5001C24.768 20.0001 37.01 8.22836 40.7681 4.00026C44.7681 -0.500013 46.7681 -0.499614 48.768 1.50016L52.768 5.50016C54.768 7.50016 54.2681 10.0002 52.268 11.5002C44.1013 19.6668 27.204 37.0551 23.768 40.0002C20.2681 43 15.7681 40.9998 14.7681 40Z" fill="#5BC0BE"/>
<path d="M52.036 40.0002C48.5361 43 47.7682 41.5 44.768 39L41.768 36C40.7683 34.5 40.7681 32.5 42.2681 31C43.8681 29.4 46.4467 26.6667 47.536 25.5001C53.036 20.0001 65.278 8.22836 69.0361 4.00026C73.0361 -0.500013 75.0361 -0.499614 77.036 1.50016L81.036 5.50016C83.036 7.50016 82.5361 10.0002 80.536 11.5002C72.3694 19.6668 55.4721 37.0551 52.036 40.0002Z" fill="#735587"/>
<path fill-rule="evenodd" clip-rule="evenodd" d="M60.2011 32.0517C63.4564 28.7861 67.2357 24.953 70.8468 21.2905C74.4826 17.603 77.9478 14.0885 80.5361 11.5002C82.5362 10.0002 83.0361 7.50016 81.0361 5.50016L77.0361 1.50016C75.0362 -0.499614 73.0362 -0.500013 69.0362 4.00026C66.4249 6.93811 59.7176 13.5181 54.0221 19.1054C51.5207 21.5593 49.2145 23.8217 47.5361 25.5001C47.2962 25.757 46.984 26.09 46.626 26.4701C52.1151 30.0107 56.7148 31.5578 60.2011 32.0517Z" fill="#8C739C"/>
<path fill-rule="evenodd" clip-rule="evenodd" d="M41.3347 22.5522C41.7509 22.1301 42.1659 21.7092 42.5788 21.2905C46.2145 17.603 49.6797 14.0884 52.268 11.5002C54.2681 10.0002 54.768 7.50016 52.768 5.50016L48.768 1.50016C46.7681 -0.499614 44.7681 -0.500013 40.7681 4.00026C39.2934 5.65942 36.5122 8.48021 33.3447 11.6278C34.8159 15.2062 37.3079 19.0304 41.3347 22.5522Z" fill="#78CBC9"/>
</svg>
