<svg width="349" height="44" viewBox="0 0 349 44" fill="none" xmlns="http://www.w3.org/2000/svg">
<path d="M242.702 42.2864V22.328H237V16.52L242.702 15.0416V11.24C242.702 8.98721 243.142 7.19201 244.022 5.85441C244.937 4.51679 246.187 3.54879 247.771 2.95039C249.39 2.3168 251.221 2 253.262 2C254.353 2 255.48 2.1056 256.641 2.3168C257.803 2.4928 259 2.7392 260.232 3.056L260.865 3.2672L259.704 9.60321L258.859 9.49761C258.296 9.42721 257.768 9.37441 257.275 9.33921C256.817 9.26881 256.395 9.23361 256.008 9.23361C254.529 9.23361 253.438 9.46241 252.734 9.92001C252.065 10.3424 251.731 11.064 251.731 12.0848V15.0416H259.704V22.328H251.678V42.2864H242.702Z" fill="#18181B"/>
<path d="M272.795 42.7089C269.592 42.7089 267.233 41.8465 265.72 40.1217C264.206 38.3969 263.449 36.1265 263.449 33.3105V15.0417H272.425V30.9345C272.425 32.2721 272.742 33.2225 273.376 33.7857C274.009 34.3489 274.977 34.6305 276.28 34.6305C276.808 34.6305 277.301 34.5777 277.758 34.4721C278.216 34.3313 278.673 34.1729 279.131 33.9969L280.609 33.3105V15.0417H289.638V42.2865H282.933L281.824 37.4817L283.566 38.7489L280.293 40.5441C278.99 41.2129 277.705 41.7409 276.438 42.1281C275.206 42.5153 273.992 42.7089 272.795 42.7089Z" fill="#18181B"/>
<path d="M305.871 42.7088C304.287 42.7088 302.668 42.568 301.014 42.2864C299.359 42.0048 297.705 41.6176 296.05 41.1248L294.519 40.6496L295.839 34.6832L297.212 34.9472C298.55 35.1584 299.834 35.3344 301.066 35.4752C302.298 35.5808 303.495 35.6336 304.657 35.6336C305.713 35.6336 306.505 35.528 307.033 35.3168C307.596 35.0704 307.878 34.6832 307.878 34.1552C307.878 33.8384 307.772 33.5568 307.561 33.3104C307.35 33.064 306.927 32.8 306.294 32.5184C305.695 32.2368 304.78 31.92 303.548 31.568C301.295 30.9344 299.518 30.248 298.215 29.5088C296.948 28.7696 296.05 27.872 295.522 26.816C294.994 25.76 294.73 24.4224 294.73 22.8032C294.766 20.9728 295.276 19.4592 296.262 18.2624C297.282 17.0304 298.673 16.1152 300.433 15.5168C302.193 14.8832 304.27 14.5664 306.663 14.5664C308.142 14.5664 309.638 14.6896 311.151 14.936C312.7 15.1472 314.266 15.4992 315.85 15.992L316.748 16.3088L315.639 22.0112L314.53 21.9056C313.228 21.7296 312.049 21.624 310.993 21.5888C309.972 21.5184 309.092 21.4832 308.353 21.4832C306.98 21.4832 305.906 21.5888 305.132 21.8C304.358 22.0112 303.97 22.328 303.97 22.7504C303.97 23.1024 304.076 23.384 304.287 23.5952C304.534 23.7712 305.044 23.9824 305.818 24.2288C306.628 24.4752 307.842 24.8272 309.462 25.2848C311.468 25.7776 313.052 26.3936 314.214 27.1328C315.375 27.8368 316.202 28.6992 316.695 29.72C317.223 30.7056 317.487 31.92 317.487 33.3632C317.487 35.44 316.977 37.1824 315.956 38.5904C314.97 39.9632 313.615 41.0016 311.89 41.7056C310.166 42.3744 308.159 42.7088 305.871 42.7088Z" fill="#18181B"/>
<path d="M335.509 42.7088C332.729 42.7088 330.177 42.1808 327.853 41.1248C325.565 40.0336 323.717 38.4496 322.309 36.3728C320.937 34.2608 320.25 31.7088 320.25 28.7168C320.25 26.464 320.637 24.4576 321.412 22.6976C322.221 20.9376 323.295 19.4592 324.633 18.2624C326.005 17.0304 327.572 16.1152 329.332 15.5168C331.092 14.8832 332.94 14.5664 334.876 14.5664C337.692 14.5664 340.068 15.1648 342.004 16.3616C343.975 17.5232 345.471 19.16 346.492 21.272C347.548 23.384 348.076 25.848 348.076 28.664V30.9344H329.49C329.737 32.0608 330.194 32.976 330.863 33.68C331.532 34.3488 332.359 34.8416 333.345 35.1584C334.365 35.4752 335.509 35.6336 336.777 35.6336C337.657 35.6336 338.589 35.5632 339.575 35.4224C340.596 35.2816 341.634 35.0704 342.69 34.7888L345.277 34.1552L347.548 39.6992L345.013 40.7552C343.429 41.424 341.828 41.9168 340.209 42.2336C338.589 42.5504 337.023 42.7088 335.509 42.7088ZM329.49 25.6016H340.05C339.839 24.1232 339.329 23.0144 338.519 22.2752C337.709 21.5008 336.548 21.1136 335.034 21.1136C334.084 21.1136 333.221 21.272 332.447 21.5888C331.708 21.9056 331.092 22.3984 330.599 23.0672C330.106 23.736 329.737 24.5808 329.49 25.6016Z" fill="#18181B"/>
<path d="M88 15.0898H97.9606L102.318 30.6532L106.676 15.0898H114.712L119.07 30.6532L123.428 15.0898H133.389L124.277 42.255H115.335L110.694 26.9745L106.054 42.255H97.1117L88 15.0898Z" fill="#18181B"/>
<path d="M153.285 43.1039C147.965 43.1039 143.777 41.8588 140.721 39.3687C137.703 36.8785 136.193 33.3508 136.193 28.7856C136.193 24.2957 137.533 20.7492 140.212 18.1459C142.928 15.5425 146.833 14.2409 151.927 14.2409C155.171 14.2409 157.944 14.8634 160.246 16.1085C162.585 17.3158 164.34 18.9948 165.509 21.1453C166.717 23.2582 167.32 25.654 167.32 28.3328V32.0114H145.645C146.022 33.5206 146.965 34.6147 148.474 35.2939C149.984 35.973 152.04 36.3126 154.643 36.3126C156.416 36.3126 158.227 36.1617 160.076 35.8598C161.963 35.558 163.585 35.143 164.943 34.6147V41.1797C163.547 41.7456 161.793 42.1984 159.68 42.5379C157.605 42.9152 155.473 43.1039 153.285 43.1039ZM157.926 25.7861C157.775 24.3146 157.171 23.1639 156.115 22.3338C155.058 21.5038 153.606 21.0887 151.757 21.0887C149.946 21.0887 148.512 21.5226 147.456 22.3904C146.399 23.2205 145.796 24.3523 145.645 25.7861H157.926Z" fill="#18181B"/>
<path d="M187.219 43.1039C181.899 43.1039 177.711 41.8588 174.655 39.3687C171.637 36.8785 170.128 33.3508 170.128 28.7856C170.128 24.2957 171.467 20.7492 174.146 18.1459C176.863 15.5425 180.768 14.2409 185.861 14.2409C189.106 14.2409 191.879 14.8634 194.18 16.1085C196.52 17.3158 198.274 18.9948 199.444 21.1453C200.651 23.2582 201.255 25.654 201.255 28.3328V32.0114H179.579C179.956 33.5206 180.9 34.6147 182.409 35.2939C183.918 35.973 185.974 36.3126 188.578 36.3126C190.351 36.3126 192.162 36.1617 194.011 35.8598C195.897 35.558 197.519 35.143 198.878 34.6147V41.1797C197.482 41.7456 195.727 42.1984 193.614 42.5379C191.539 42.9152 189.408 43.1039 187.219 43.1039ZM191.86 25.7861C191.709 24.3146 191.105 23.1639 190.049 22.3338C188.993 21.5038 187.54 21.0887 185.691 21.0887C183.88 21.0887 182.446 21.5226 181.39 22.3904C180.334 23.2205 179.73 24.3523 179.579 25.7861H191.86Z" fill="#18181B"/>
<path d="M205.194 0.431885H215.155V26.0124L224.097 15.0898H235.529L224.719 28.2196L237 42.255H225.568L215.155 30.3136V42.255H205.194V0.431885Z" fill="#18181B"/>
<path d="M15.5 41L1.49992 27.0002C-0.100076 25.4002 1.16659 23.3334 1.99992 22.5001L6.49992 18.0001C8.49992 16.0001 10.6666 17.1668 11.4999 18.0001L19.9999 26.5001C25.4999 21.0001 37.7419 9.22836 41.5 5.00026C45.5 0.499987 47.5 0.500386 49.4999 2.50016L53.4999 6.50016C55.4999 8.50016 55 11.0002 52.9999 12.5002C44.8333 20.6668 27.936 38.0551 24.4999 41.0002C21 44 16.5001 41.9998 15.5 41Z" fill="#5BC0BE"/>
<path d="M52.768 41.0002C49.268 44 48.5001 42.5 45.5 40L42.5 37C41.5002 35.5 41.5 33.5 43 32C44.6 30.4 47.1786 27.6667 48.268 26.5001C53.768 21.0001 66.01 9.22836 69.768 5.00026C73.768 0.499987 75.768 0.500386 77.768 2.50016L81.768 6.50016C83.768 8.50016 83.268 11.0002 81.268 12.5002C73.1013 20.6668 56.204 38.0551 52.768 41.0002Z" fill="#735587"/>
<path fill-rule="evenodd" clip-rule="evenodd" d="M60.933 33.0517C64.1883 29.7861 67.9676 25.953 71.5787 22.2905C75.2145 18.603 78.6798 15.0885 81.268 12.5002C83.2681 11.0002 83.768 8.50016 81.768 6.50016L77.768 2.50016C75.7681 0.500386 73.7681 0.499987 69.7681 5.00026C67.1569 7.93811 60.4495 14.5181 54.754 20.1054C52.2526 22.5593 49.9464 24.8217 48.268 26.5001C48.0281 26.757 47.716 27.09 47.3579 27.4701C52.8471 31.0107 57.4467 32.5578 60.933 33.0517Z" fill="#8C739C"/>
<path fill-rule="evenodd" clip-rule="evenodd" d="M42.0666 23.5522C42.4828 23.1301 42.8979 22.7092 43.3107 22.2905C46.9464 18.603 50.4117 15.0884 53 12.5002C55 11.0002 55.5 8.50016 53.5 6.50016L49.5 2.50016C47.5 0.500386 45.5 0.499987 41.5 5.00026C40.0253 6.65942 37.2442 9.48021 34.0767 12.6278C35.5478 16.2062 38.0398 20.0304 42.0666 23.5522Z" fill="#78CBC9"/>
</svg>
