<svg width="954" height="624" viewBox="0 0 954 624" fill="none" xmlns="http://www.w3.org/2000/svg">
<rect x="24" y="24" width="286" height="576" rx="16" fill="#FAFAFA"/>
<path fill-rule="evenodd" clip-rule="evenodd" d="M45.8333 50.5C44.4526 50.5 43.3333 51.6193 43.3333 53V63C43.3333 64.3807 44.4526 65.5 45.8333 65.5H54.1667C55.5474 65.5 56.6667 64.3807 56.6667 63V53C56.6667 51.6193 55.5474 50.5 54.1667 50.5H45.8333ZM55 53C55 52.5398 54.6269 52.1667 54.1667 52.1667H45.8333C45.3731 52.1667 45 52.5398 45 53V59.6667H47.447C47.8746 59.6667 48.2891 59.8143 48.6196 60.0767C49.4235 60.7147 50.5704 60.7195 51.3627 60.0907C51.7087 59.8162 52.1374 59.6667 52.5793 59.6667H55V53ZM45 61.3333V63C45 63.4602 45.3731 63.8333 45.8333 63.8333H54.1667C54.6269 63.8333 55 63.4602 55 63V61.3333H52.5793C52.5137 61.3333 52.4501 61.3555 52.3988 61.3963C50.9881 62.5158 48.9824 62.4924 47.5835 61.3821C47.5432 61.3502 47.4927 61.3333 47.447 61.3333H45ZM46.6667 57.1667C46.6667 56.7064 47.0398 56.3333 47.5 56.3333H52.5C52.9603 56.3333 53.3333 56.7064 53.3333 57.1667C53.3333 57.6269 52.9603 58 52.5 58H47.5C47.0398 58 46.6667 57.6269 46.6667 57.1667ZM47.5 53.8333C47.0398 53.8333 46.6667 54.2064 46.6667 54.6667C46.6667 55.1269 47.0398 55.5 47.5 55.5H52.5C52.9603 55.5 53.3333 55.1269 53.3333 54.6667C53.3333 54.2064 52.9603 53.8333 52.5 53.8333H47.5Z" fill="#616161"/>
<path d="M65.224 61.072V59.92H67.636C68.076 59.92 68.416 59.8 68.656 59.56C68.896 59.312 69.016 58.976 69.016 58.552C69.016 58.112 68.888 57.764 68.632 57.508C68.376 57.252 68.02 57.124 67.564 57.124H65.224V55.972H67.456C67.888 55.972 68.22 55.868 68.452 55.66C68.684 55.452 68.8 55.152 68.8 54.76C68.8 54.376 68.688 54.084 68.464 53.884C68.248 53.684 67.928 53.584 67.504 53.584H65.224V52.432H67.792C68.568 52.432 69.188 52.628 69.652 53.02C70.124 53.404 70.36 53.928 70.36 54.592C70.36 55.008 70.26 55.372 70.06 55.684C69.868 55.988 69.608 56.224 69.28 56.392C68.952 56.56 68.58 56.644 68.164 56.644L68.224 56.392C68.664 56.392 69.064 56.492 69.424 56.692C69.784 56.884 70.068 57.156 70.276 57.508C70.492 57.86 70.6 58.268 70.6 58.732C70.6 59.204 70.488 59.616 70.264 59.968C70.048 60.32 69.74 60.592 69.34 60.784C68.948 60.976 68.484 61.072 67.948 61.072H65.224ZM64 61.072V52.432H65.56V61.072H64Z" fill="#424242"/>
<path d="M75.5166 61.072C75.4766 60.912 75.4446 60.736 75.4206 60.544C75.4046 60.352 75.3966 60.12 75.3966 59.848H75.3486V56.944C75.3486 56.624 75.2566 56.384 75.0726 56.224C74.8966 56.056 74.6246 55.972 74.2566 55.972C73.8966 55.972 73.6086 56.04 73.3926 56.176C73.1846 56.304 73.0566 56.492 73.0086 56.74H71.5566C71.6206 56.172 71.8926 55.712 72.3726 55.36C72.8526 55.008 73.4966 54.832 74.3046 54.832C75.1446 54.832 75.7806 55.024 76.2126 55.408C76.6446 55.784 76.8606 56.34 76.8606 57.076V59.848C76.8606 60.04 76.8726 60.236 76.8966 60.436C76.9286 60.636 76.9726 60.848 77.0286 61.072H75.5166ZM73.3926 61.192C72.7766 61.192 72.2846 61.04 71.9166 60.736C71.5566 60.424 71.3766 60.008 71.3766 59.488C71.3766 58.928 71.5806 58.484 71.9886 58.156C72.3966 57.828 72.9726 57.608 73.7166 57.496L75.6246 57.208V58.168L73.9686 58.42C73.6086 58.476 73.3366 58.576 73.1526 58.72C72.9766 58.864 72.8886 59.064 72.8886 59.32C72.8886 59.552 72.9726 59.732 73.1406 59.86C73.3086 59.98 73.5406 60.04 73.8366 60.04C74.2686 60.04 74.6286 59.932 74.9166 59.716C75.2046 59.5 75.3486 59.236 75.3486 58.924L75.5166 59.848C75.3566 60.288 75.0926 60.624 74.7246 60.856C74.3646 61.08 73.9206 61.192 73.3926 61.192Z" fill="#424242"/>
<path d="M80.9503 61.192C80.3343 61.192 79.7903 61.056 79.3183 60.784C78.8543 60.512 78.4863 60.136 78.2143 59.656C77.9503 59.168 77.8183 58.616 77.8183 58C77.8183 57.384 77.9503 56.84 78.2143 56.368C78.4863 55.888 78.8543 55.512 79.3183 55.24C79.7903 54.968 80.3343 54.832 80.9503 54.832C81.4543 54.832 81.9103 54.928 82.3183 55.12C82.7263 55.304 83.0623 55.568 83.3263 55.912C83.5903 56.248 83.7583 56.64 83.8303 57.088H82.3783C82.2903 56.76 82.1223 56.504 81.8743 56.32C81.6263 56.136 81.3263 56.044 80.9743 56.044C80.6463 56.044 80.3623 56.124 80.1223 56.284C79.8903 56.444 79.7103 56.672 79.5823 56.968C79.4543 57.264 79.3903 57.608 79.3903 58C79.3903 58.4 79.4543 58.748 79.5823 59.044C79.7103 59.34 79.8943 59.572 80.1343 59.74C80.3743 59.9 80.6543 59.98 80.9743 59.98C81.3263 59.98 81.6263 59.888 81.8743 59.704C82.1223 59.52 82.2903 59.264 82.3783 58.936H83.8303C83.7583 59.384 83.5863 59.78 83.3143 60.124C83.0503 60.46 82.7143 60.724 82.3063 60.916C81.9063 61.1 81.4543 61.192 80.9503 61.192Z" fill="#424242"/>
<path d="M84.9194 61.072V52.348H86.4314V61.072H84.9194ZM88.8674 61.072L86.0834 57.892L88.7834 54.952H90.6074L87.4874 58.168L87.5714 57.604L90.7274 61.072H88.8674Z" fill="#424242"/>
<path d="M91.6108 61.072V52.432H93.1228V61.072H91.6108Z" fill="#424242"/>
<path d="M97.512 61.192C96.864 61.192 96.292 61.056 95.796 60.784C95.308 60.512 94.928 60.136 94.656 59.656C94.384 59.168 94.248 58.612 94.248 57.988C94.248 57.364 94.384 56.816 94.656 56.344C94.928 55.872 95.308 55.504 95.796 55.24C96.292 54.968 96.864 54.832 97.512 54.832C98.168 54.832 98.74 54.968 99.228 55.24C99.716 55.504 100.096 55.872 100.368 56.344C100.64 56.816 100.776 57.364 100.776 57.988C100.776 58.612 100.636 59.168 100.356 59.656C100.084 60.136 99.704 60.512 99.216 60.784C98.728 61.056 98.16 61.192 97.512 61.192ZM97.512 59.98C97.832 59.98 98.12 59.9 98.376 59.74C98.632 59.572 98.832 59.34 98.976 59.044C99.12 58.74 99.192 58.384 99.192 57.976C99.192 57.376 99.032 56.904 98.712 56.56C98.4 56.216 98 56.044 97.512 56.044C97.024 56.044 96.62 56.216 96.3 56.56C95.98 56.904 95.82 57.376 95.82 57.976C95.82 58.384 95.892 58.74 96.036 59.044C96.188 59.34 96.388 59.572 96.636 59.74C96.892 59.9 97.184 59.98 97.512 59.98Z" fill="#424242"/>
<path d="M104.611 63.652C103.803 63.652 103.139 63.476 102.619 63.124C102.107 62.772 101.803 62.296 101.707 61.696H103.147C103.219 61.904 103.375 62.064 103.615 62.176C103.863 62.296 104.183 62.356 104.575 62.356C105.143 62.356 105.563 62.228 105.835 61.972C106.107 61.724 106.243 61.344 106.243 60.832V59.512L106.351 59.536C106.255 59.984 106.011 60.344 105.619 60.616C105.227 60.88 104.747 61.012 104.179 61.012C103.635 61.012 103.159 60.884 102.751 60.628C102.351 60.372 102.039 60.016 101.815 59.56C101.591 59.096 101.479 58.556 101.479 57.94C101.479 57.316 101.595 56.772 101.827 56.308C102.059 55.844 102.383 55.484 102.799 55.228C103.223 54.964 103.715 54.832 104.275 54.832C104.851 54.832 105.323 54.972 105.691 55.252C106.067 55.524 106.299 55.904 106.387 56.392L106.291 56.404V54.952H107.767V60.82C107.767 61.692 107.483 62.38 106.915 62.884C106.355 63.396 105.587 63.652 104.611 63.652ZM104.671 59.812C105.159 59.812 105.547 59.648 105.835 59.32C106.131 58.984 106.279 58.516 106.279 57.916C106.279 57.316 106.131 56.852 105.835 56.524C105.539 56.196 105.147 56.032 104.659 56.032C104.179 56.032 103.791 56.2 103.495 56.536C103.199 56.864 103.051 57.328 103.051 57.928C103.051 58.528 103.199 58.992 103.495 59.32C103.791 59.648 104.183 59.812 104.671 59.812Z" fill="#424242"/>
<rect x="41" y="81" width="252" height="25" rx="7" stroke="#EEEEEE" stroke-width="2"/>
<rect x="41" y="116" width="252" height="50" rx="7" fill="white"/>
<rect x="41" y="116" width="252" height="50" rx="7" stroke="#F5F5F5" stroke-width="2"/>
<rect x="48" y="123" width="176" height="8" rx="4" fill="#E0E0E0"/>
<path d="M66.5404 148.51L58.7547 140.98L58 140.25L52.1392 145.919L49.4595 148.51C49.1802 148.781 49.1802 149.219 49.4595 149.49L54.8141 154.669L58 157.75L63.8608 152.081L63.9516 151.994L66.5404 149.49C66.8199 149.219 66.8199 148.781 66.5404 148.51ZM58 151.587L55.3251 149L58 146.413L60.6749 149L58 151.587Z" fill="#2684FF"/>
<path fill-rule="evenodd" clip-rule="evenodd" d="M57.9999 146.413C56.2487 144.719 56.2401 141.975 57.9809 140.271L52.1272 145.93L55.3131 149.012L57.9999 146.413Z" fill="url(#paint0_linear_1_305)"/>
<path fill-rule="evenodd" clip-rule="evenodd" d="M60.682 148.993L58 151.587C58.8453 152.404 59.3203 153.513 59.3203 154.668C59.3203 155.824 58.8453 156.933 58 157.75L63.868 152.074L60.682 148.993Z" fill="url(#paint1_linear_1_305)"/>
<rect x="41" y="176" width="252" height="66" rx="7" fill="white"/>
<rect x="41" y="176" width="252" height="66" rx="7" stroke="#F5F5F5" stroke-width="2"/>
<rect x="48" y="183" width="230" height="8" rx="4" fill="#E0E0E0"/>
<rect x="48" y="199" width="133" height="8" rx="4" fill="#E0E0E0"/>
<path d="M49.6667 230.357L52.7417 228C54.3758 230.133 56.1117 231.116 58.0442 231.116C59.9667 231.116 61.6525 230.144 63.2133 228.029L66.3333 230.328C64.0817 233.378 61.2842 234.991 58.0442 234.991C54.815 234.991 51.99 233.389 49.6667 230.357Z" fill="url(#paint2_linear_1_305)"/>
<path d="M58.0333 220.125L52.56 224.842L50.03 221.908L58.0458 215L65.9983 221.913L63.4567 224.837L58.0333 220.125Z" fill="url(#paint3_linear_1_305)"/>
<rect x="41" y="252" width="252" height="50" rx="7" fill="white"/>
<rect x="41" y="252" width="252" height="50" rx="7" stroke="#F5F5F5" stroke-width="2"/>
<rect x="48" y="259" width="201" height="8" rx="4" fill="#E0E0E0"/>
<path d="M64.5626 284.375C65.4255 284.375 66.125 283.675 66.125 282.812C66.125 281.95 65.4254 281.25 64.5626 281.25C63.6996 281.25 63 281.95 63 282.813V284.375H64.5626ZM60.1875 284.375C61.0504 284.375 61.75 283.675 61.75 282.812V278.438C61.75 277.575 61.0504 276.875 60.1875 276.875C59.3246 276.875 58.625 277.575 58.625 278.438V282.812C58.625 283.675 59.3246 284.375 60.1875 284.375Z" fill="#2EB67D"/>
<path d="M51.4374 285.625C50.5745 285.625 49.875 286.325 49.875 287.188C49.875 288.05 50.5746 288.75 51.4374 288.75C52.3004 288.75 53 288.05 53 287.187V285.625H51.4374ZM55.8125 285.625C54.9496 285.625 54.25 286.325 54.25 287.188V291.562C54.25 292.425 54.9496 293.125 55.8125 293.125C56.6754 293.125 57.375 292.425 57.375 291.562V287.188C57.375 286.325 56.6754 285.625 55.8125 285.625Z" fill="#E01E5A"/>
<path d="M58.6252 291.563C58.6252 292.426 59.3247 293.125 60.1876 293.125C61.0505 293.125 61.75 292.425 61.75 291.563C61.75 290.7 61.0504 290 60.1875 290H58.6252V291.563ZM58.6252 287.188C58.6252 288.05 59.3248 288.75 60.1877 288.75H64.5625C65.4254 288.75 66.125 288.05 66.125 287.188C66.125 286.325 65.4254 285.625 64.5625 285.625H60.1877C59.3248 285.625 58.6252 286.325 58.6252 287.188Z" fill="#ECB22E"/>
<path d="M57.3748 278.437C57.3748 277.574 56.6753 276.875 55.8124 276.875C54.9495 276.875 54.25 277.575 54.25 278.437C54.25 279.3 54.9496 280 55.8125 280H57.3748V278.437ZM57.3748 282.812C57.3748 281.95 56.6752 281.25 55.8123 281.25H51.4375C50.5746 281.25 49.875 281.95 49.875 282.812C49.875 283.675 50.5746 284.375 51.4375 284.375H55.8123C56.6752 284.375 57.3748 283.675 57.3748 282.812Z" fill="#36C5F0"/>
<rect x="41" y="312" width="252" height="66" rx="7" fill="white"/>
<rect x="41" y="312" width="252" height="66" rx="7" stroke="#F5F5F5" stroke-width="2"/>
<rect x="48" y="319" width="102" height="8" rx="4" fill="#E0E0E0"/>
<rect x="48" y="335" width="191" height="8" rx="4" fill="#E0E0E0"/>
<g clip-path="url(#clip0_1_305)">
<path fill-rule="evenodd" clip-rule="evenodd" d="M58 351C63.523 351 68 355.59 68 361.253C68 365.782 65.138 369.624 61.167 370.981C60.66 371.082 60.48 370.762 60.48 370.489C60.48 370.151 60.492 369.047 60.492 367.675C60.492 366.719 60.172 366.095 59.813 365.777C62.04 365.523 64.38 364.656 64.38 360.718C64.38 359.598 63.992 358.684 63.35 357.966C63.454 357.707 63.797 356.664 63.252 355.252C63.252 355.252 62.414 354.977 60.505 356.303C59.706 356.076 58.85 355.962 58 355.958C57.15 355.962 56.295 356.076 55.497 356.303C53.586 354.977 52.746 355.252 52.746 355.252C52.203 356.664 52.546 357.707 52.649 357.966C52.01 358.684 51.619 359.598 51.619 360.718C51.619 364.646 53.954 365.526 56.175 365.785C55.889 366.041 55.63 366.493 55.54 367.156C54.97 367.418 53.522 367.871 52.63 366.304C52.63 366.304 52.101 365.319 51.097 365.247C51.097 365.247 50.122 365.234 51.029 365.87C51.029 365.87 51.684 366.185 52.139 367.37C52.139 367.37 52.726 369.2 55.508 368.58C55.513 369.437 55.522 370.245 55.522 370.489C55.522 370.76 55.338 371.077 54.839 370.982C50.865 369.627 48 365.783 48 361.253C48 355.59 52.478 351 58 351Z" fill="black"/>
</g>
<rect x="41" y="388" width="252" height="44" rx="7" fill="white"/>
<rect x="41" y="388" width="252" height="44" rx="7" stroke="#F5F5F5" stroke-width="2"/>
<rect x="48" y="395" width="133" height="8" rx="4" fill="#E0E0E0"/>
<rect x="48" y="411" width="65" height="8" rx="4" fill="#E0E0E0"/>
<rect x="41" y="442" width="252" height="66" rx="7" fill="white"/>
<rect x="41" y="442" width="252" height="66" rx="7" stroke="#F5F5F5" stroke-width="2"/>
<rect x="48" y="449" width="230" height="8" rx="4" fill="#E0E0E0"/>
<rect x="48" y="465" width="74" height="8" rx="4" fill="#E0E0E0"/>
<path fill-rule="evenodd" clip-rule="evenodd" d="M63.6333 483.5H52.3762C51.34 483.5 50.5 484.339 50.5 485.375V496.625C50.5 497.661 51.34 498.5 52.3762 498.5H63.6333C64.6658 498.495 65.5 497.657 65.5 496.625V485.375C65.5 484.343 64.6658 483.505 63.6333 483.5ZM53.625 485.375H56.125C56.8154 485.375 57.375 485.935 57.375 486.625V495.375C57.375 496.065 56.8154 496.625 56.125 496.625H53.625C52.9346 496.625 52.375 496.065 52.375 495.375V486.625C52.375 485.935 52.9346 485.375 53.625 485.375ZM62.375 485.375H59.875C59.1846 485.375 58.625 485.935 58.625 486.625V491C58.625 491.69 59.1846 492.25 59.875 492.25H62.375C63.0654 492.25 63.625 491.69 63.625 491V486.625C63.625 485.935 63.0654 485.375 62.375 485.375Z" fill="url(#paint4_linear_1_305)"/>
<path d="M351.5 32.3333H336.5M348.167 26.5V28.1667M339.833 26.5V28.1667M348.833 41.5H339.167C338.233 41.5 337.766 41.5 337.41 41.3183C337.096 41.1586 336.841 40.9036 336.682 40.59C336.5 40.2335 336.5 39.7667 336.5 38.8333V30.8333C336.5 29.8999 336.5 29.4332 336.682 29.0767C336.841 28.7631 337.096 28.5081 337.41 28.3483C337.766 28.1667 338.233 28.1667 339.167 28.1667H348.833C349.767 28.1667 350.233 28.1667 350.59 28.3483C350.904 28.5081 351.159 28.7631 351.318 29.0767C351.5 29.4332 351.5 29.8999 351.5 30.8333V38.8333C351.5 39.7667 351.5 40.2335 351.318 40.59C351.159 40.9036 350.904 41.1586 350.59 41.3183C350.233 41.5 349.767 41.5 348.833 41.5Z" stroke="#424242" stroke-width="1.66667" stroke-linecap="round" stroke-linejoin="round"/>
<path d="M358 38.32V29.68H359.932L364.144 37.192L363.7 37.3V29.68H365.212V38.32H363.28L359.068 30.808L359.512 30.7V38.32H358Z" fill="#424242"/>
<path d="M369.539 38.44C368.891 38.44 368.319 38.304 367.823 38.032C367.335 37.76 366.955 37.384 366.683 36.904C366.411 36.416 366.275 35.86 366.275 35.236C366.275 34.612 366.411 34.064 366.683 33.592C366.955 33.12 367.335 32.752 367.823 32.488C368.319 32.216 368.891 32.08 369.539 32.08C370.195 32.08 370.767 32.216 371.255 32.488C371.743 32.752 372.123 33.12 372.395 33.592C372.667 34.064 372.803 34.612 372.803 35.236C372.803 35.86 372.663 36.416 372.383 36.904C372.111 37.384 371.731 37.76 371.243 38.032C370.755 38.304 370.187 38.44 369.539 38.44ZM369.539 37.228C369.859 37.228 370.147 37.148 370.403 36.988C370.659 36.82 370.859 36.588 371.003 36.292C371.147 35.988 371.219 35.632 371.219 35.224C371.219 34.624 371.059 34.152 370.739 33.808C370.427 33.464 370.027 33.292 369.539 33.292C369.051 33.292 368.647 33.464 368.327 33.808C368.007 34.152 367.847 34.624 367.847 35.224C367.847 35.632 367.919 35.988 368.063 36.292C368.215 36.588 368.415 36.82 368.663 36.988C368.919 37.148 369.211 37.228 369.539 37.228Z" fill="#424242"/>
<path d="M375.444 38.32L372.996 32.2H374.628L376.584 37.828H375.78L377.736 32.2H379.32L376.86 38.32H375.444Z" fill="#424242"/>
<path d="M382.05 38.32V37.084C382.866 36.412 383.546 35.832 384.09 35.344C384.642 34.848 385.082 34.412 385.41 34.036C385.738 33.66 385.97 33.316 386.106 33.004C386.25 32.684 386.322 32.372 386.322 32.068C386.322 31.668 386.21 31.356 385.986 31.132C385.762 30.908 385.45 30.796 385.05 30.796C384.634 30.796 384.294 30.92 384.03 31.168C383.766 31.408 383.606 31.748 383.55 32.188H381.966C382.054 31.38 382.378 30.74 382.938 30.268C383.498 29.796 384.226 29.56 385.122 29.56C386.01 29.56 386.706 29.792 387.21 30.256C387.722 30.712 387.978 31.348 387.978 32.164C387.978 32.572 387.906 32.968 387.762 33.352C387.626 33.728 387.394 34.124 387.066 34.54C386.746 34.948 386.314 35.4 385.77 35.896C385.234 36.384 384.562 36.94 383.754 37.564L383.382 37.084H388.134V38.32H382.05Z" fill="#424242"/>
<path d="M392.46 38.44C391.756 38.44 391.132 38.252 390.588 37.876C390.044 37.492 389.616 36.964 389.304 36.292C389 35.612 388.848 34.836 388.848 33.964C388.848 33.092 389 32.328 389.304 31.672C389.608 31.008 390.032 30.492 390.576 30.124C391.128 29.748 391.756 29.56 392.46 29.56C393.172 29.56 393.8 29.748 394.344 30.124C394.888 30.492 395.312 31.008 395.616 31.672C395.928 32.328 396.084 33.092 396.084 33.964C396.084 34.844 395.928 35.62 395.616 36.292C395.312 36.964 394.888 37.492 394.344 37.876C393.8 38.252 393.172 38.44 392.46 38.44ZM392.46 37.132C392.9 37.132 393.264 36.992 393.552 36.712C393.84 36.432 394.056 36.052 394.2 35.572C394.352 35.092 394.428 34.552 394.428 33.952C394.428 33.352 394.356 32.82 394.212 32.356C394.068 31.892 393.848 31.528 393.552 31.264C393.264 31 392.9 30.868 392.46 30.868C392.028 30.868 391.664 31.004 391.368 31.276C391.08 31.54 390.864 31.904 390.72 32.368C390.576 32.832 390.504 33.36 390.504 33.952C390.504 34.56 390.576 35.104 390.72 35.584C390.864 36.064 391.084 36.444 391.38 36.724C391.676 36.996 392.036 37.132 392.46 37.132Z" fill="#424242"/>
<path d="M396.804 38.32V37.084C397.62 36.412 398.299 35.832 398.843 35.344C399.395 34.848 399.836 34.412 400.164 34.036C400.492 33.66 400.724 33.316 400.86 33.004C401.004 32.684 401.076 32.372 401.076 32.068C401.076 31.668 400.964 31.356 400.74 31.132C400.516 30.908 400.204 30.796 399.804 30.796C399.388 30.796 399.048 30.92 398.784 31.168C398.52 31.408 398.36 31.748 398.304 32.188H396.72C396.808 31.38 397.132 30.74 397.692 30.268C398.252 29.796 398.979 29.56 399.875 29.56C400.763 29.56 401.46 29.792 401.964 30.256C402.476 30.712 402.731 31.348 402.731 32.164C402.731 32.572 402.659 32.968 402.515 33.352C402.379 33.728 402.148 34.124 401.819 34.54C401.5 34.948 401.067 35.4 400.523 35.896C399.987 36.384 399.315 36.94 398.507 37.564L398.136 37.084H402.888V38.32H396.804Z" fill="#424242"/>
<path d="M406.627 38.44C405.755 38.44 405.043 38.212 404.491 37.756C403.939 37.3 403.599 36.672 403.471 35.872H405.055C405.127 36.296 405.303 36.624 405.583 36.856C405.871 37.088 406.207 37.204 406.591 37.204C407.015 37.204 407.359 37.064 407.623 36.784C407.895 36.504 408.031 36.072 408.031 35.488C408.031 34.92 407.899 34.492 407.635 34.204C407.379 33.908 407.035 33.76 406.603 33.76C406.323 33.76 406.071 33.82 405.847 33.94C405.623 34.06 405.455 34.228 405.343 34.444H403.927L404.347 29.68H409.183V30.916H404.983L405.751 30.7L405.511 33.664L405.031 33.58C405.223 33.284 405.471 33.048 405.775 32.872C406.079 32.696 406.463 32.608 406.927 32.608C407.479 32.608 407.959 32.728 408.367 32.968C408.783 33.208 409.107 33.544 409.339 33.976C409.579 34.4 409.699 34.912 409.699 35.512C409.699 36.128 409.571 36.656 409.315 37.096C409.059 37.528 408.703 37.86 408.247 38.092C407.791 38.324 407.251 38.44 406.627 38.44Z" fill="#424242"/>
<g clip-path="url(#clip1_1_305)">
<path d="M892.743 36.8523C892.804 36.913 892.87 36.9643 892.94 37.0088L897.591 41.6597C898.045 42.1132 898.78 42.1134 899.235 41.6595C899.689 41.2058 899.689 40.4699 899.235 40.0157L895.229 36.0103L899.255 31.9839C899.709 31.5303 899.709 30.7942 899.255 30.3401C899.028 30.1134 898.731 30 898.433 30C898.136 30 897.838 30.1134 897.612 30.3405L892.94 35.0118C892.87 35.0564 892.804 35.1074 892.743 35.1683C892.511 35.4008 892.399 35.706 892.405 36.0103C892.399 36.3149 892.511 36.6205 892.743 36.8523Z" fill="#9E9E9E"/>
</g>
<path d="M927.257 35.1477C927.196 35.087 927.13 35.0357 927.06 34.9912L922.409 30.3403C921.955 29.8868 921.22 29.8866 920.765 30.3405C920.311 30.7942 920.311 31.5301 920.765 31.9843L924.771 35.9897L920.745 40.0161C920.291 40.4697 920.291 41.2058 920.745 41.6599C920.972 41.8866 921.269 42 921.567 42C921.864 42 922.162 41.8866 922.388 41.6595L927.06 36.9882C927.13 36.9436 927.196 36.8926 927.257 36.8317C927.489 36.5992 927.601 36.294 927.595 35.9897C927.601 35.6851 927.489 35.3795 927.257 35.1477Z" fill="#9E9E9E"/>
<rect x="334" y="64" width="188" height="332.4" rx="8" fill="#FAFAFA"/>
<path d="M342 87.2V80H343.64L346.04 86.94H345.5L347.88 80H349.54V87.2H348.49V80.43H348.65L346.33 87.2H345.15L342.83 80.49H342.99V87.2H342Z" fill="#6D69A3"/>
<path d="M353.233 87.3C352.713 87.3 352.257 87.1867 351.863 86.96C351.47 86.7267 351.163 86.41 350.943 86.01C350.723 85.6033 350.613 85.1433 350.613 84.63C350.613 84.11 350.723 83.6533 350.943 83.26C351.17 82.8667 351.477 82.56 351.863 82.34C352.257 82.1133 352.713 82 353.233 82C353.76 82 354.22 82.1133 354.613 82.34C355.007 82.56 355.31 82.8667 355.523 83.26C355.743 83.6533 355.853 84.11 355.853 84.63C355.853 85.1433 355.743 85.6033 355.523 86.01C355.31 86.41 355.007 86.7267 354.613 86.96C354.22 87.1867 353.76 87.3 353.233 87.3ZM353.233 86.45C353.547 86.45 353.817 86.3733 354.043 86.22C354.277 86.0667 354.46 85.8533 354.593 85.58C354.727 85.3067 354.793 84.9867 354.793 84.62C354.793 84.0733 354.647 83.6433 354.353 83.33C354.067 83.01 353.693 82.85 353.233 82.85C352.78 82.85 352.407 83.01 352.113 83.33C351.827 83.65 351.683 84.08 351.683 84.62C351.683 84.9867 351.747 85.3067 351.873 85.58C352.007 85.8533 352.19 86.0667 352.423 86.22C352.663 86.3733 352.933 86.45 353.233 86.45Z" fill="#6D69A3"/>
<path d="M356.922 87.2V82.1H357.912V83.3H357.962V87.2H356.922ZM360.542 87.2V83.92C360.542 83.5667 360.452 83.3033 360.272 83.13C360.098 82.9567 359.838 82.87 359.492 82.87C359.192 82.87 358.925 82.9367 358.692 83.07C358.465 83.2033 358.285 83.3867 358.152 83.62C358.025 83.8533 357.962 84.13 357.962 84.45L357.832 83.23C357.998 82.85 358.255 82.55 358.602 82.33C358.948 82.11 359.352 82 359.812 82C360.358 82 360.788 82.1533 361.102 82.46C361.415 82.7667 361.572 83.1733 361.572 83.68V87.2H360.542Z" fill="#6D69A3"/>
<path d="M347.618 114.4C346.631 114.4 345.745 114.22 344.958 113.86C344.185 113.5 343.551 112.967 343.058 112.26C342.578 111.553 342.298 110.7 342.218 109.7H344.818C344.938 110.58 345.231 111.24 345.698 111.68C346.165 112.12 346.785 112.34 347.558 112.34C348.251 112.34 348.811 112.147 349.238 111.76C349.678 111.373 349.898 110.82 349.898 110.1C349.898 109.38 349.685 108.8 349.258 108.36C348.845 107.92 348.191 107.7 347.298 107.7H345.838V105.68H347.238C348.025 105.68 348.605 105.493 348.978 105.12C349.365 104.733 349.558 104.24 349.558 103.64C349.558 103.04 349.385 102.56 349.038 102.2C348.705 101.84 348.191 101.66 347.498 101.66C346.858 101.66 346.305 101.853 345.838 102.24C345.385 102.613 345.111 103.173 345.018 103.92H342.378C342.485 103.027 342.758 102.26 343.198 101.62C343.651 100.98 344.251 100.487 344.998 100.14C345.745 99.78 346.605 99.6 347.578 99.6C348.538 99.6 349.371 99.76 350.078 100.08C350.785 100.387 351.331 100.827 351.718 101.4C352.118 101.96 352.318 102.633 352.318 103.42C352.318 104.1 352.165 104.693 351.858 105.2C351.551 105.707 351.151 106.107 350.658 106.4C350.178 106.68 349.671 106.82 349.138 106.82L349.078 106.4C349.825 106.4 350.465 106.573 350.998 106.92C351.531 107.253 351.938 107.707 352.218 108.28C352.511 108.853 352.658 109.5 352.658 110.22C352.658 111.06 352.438 111.8 351.998 112.44C351.571 113.067 350.978 113.553 350.218 113.9C349.458 114.233 348.591 114.4 347.618 114.4Z" fill="#6D69A3"/>
<rect x="343" y="144.4" width="170" height="44" rx="7" fill="white"/>
<rect x="343" y="144.4" width="170" height="44" rx="7" stroke="#F5F5F5" stroke-width="2"/>
<rect x="350" y="151.4" width="133" height="8" rx="4" fill="#E0E0E0"/>
<rect x="350" y="167.4" width="65" height="8" rx="4" fill="#E0E0E0"/>
<rect x="343" y="206.4" width="170" height="89" rx="7" fill="#DFD5FD"/>
<rect x="343" y="206.4" width="170" height="89" rx="7" stroke="#9A92BF" stroke-width="2"/>
<path d="M350 220.67V213.47H351.64L354.04 220.41H353.5L355.88 213.47H357.54V220.67H356.49V213.9H356.65L354.33 220.67H353.15L350.83 213.96H350.99V220.67H350Z" fill="#6D69A3"/>
<path d="M361.213 220.77C360.7 220.77 360.247 220.657 359.853 220.43C359.467 220.203 359.163 219.89 358.943 219.49C358.723 219.09 358.613 218.63 358.613 218.11C358.613 217.583 358.72 217.123 358.933 216.73C359.153 216.33 359.46 216.02 359.853 215.8C360.247 215.58 360.697 215.47 361.203 215.47C361.697 215.47 362.123 215.577 362.483 215.79C362.85 215.997 363.13 216.287 363.323 216.66C363.523 217.033 363.623 217.477 363.623 217.99C363.623 218.07 363.62 218.147 363.613 218.22C363.613 218.287 363.607 218.357 363.593 218.43H359.313V217.65H362.863L362.603 217.96C362.603 217.413 362.48 216.997 362.233 216.71C361.987 216.423 361.643 216.28 361.203 216.28C360.73 216.28 360.353 216.443 360.073 216.77C359.8 217.09 359.663 217.537 359.663 218.11C359.663 218.69 359.8 219.143 360.073 219.47C360.353 219.797 360.74 219.96 361.233 219.96C361.533 219.96 361.793 219.9 362.013 219.78C362.233 219.653 362.397 219.47 362.503 219.23H363.483C363.317 219.71 363.033 220.087 362.633 220.36C362.24 220.633 361.767 220.77 361.213 220.77Z" fill="#6D69A3"/>
<path d="M366.917 220.77C366.403 220.77 365.95 220.657 365.557 220.43C365.17 220.203 364.867 219.89 364.647 219.49C364.427 219.09 364.317 218.63 364.317 218.11C364.317 217.583 364.423 217.123 364.637 216.73C364.857 216.33 365.163 216.02 365.557 215.8C365.95 215.58 366.4 215.47 366.907 215.47C367.4 215.47 367.827 215.577 368.187 215.79C368.553 215.997 368.833 216.287 369.027 216.66C369.227 217.033 369.327 217.477 369.327 217.99C369.327 218.07 369.323 218.147 369.317 218.22C369.317 218.287 369.31 218.357 369.297 218.43H365.017V217.65H368.567L368.307 217.96C368.307 217.413 368.183 216.997 367.937 216.71C367.69 216.423 367.347 216.28 366.907 216.28C366.433 216.28 366.057 216.443 365.777 216.77C365.503 217.09 365.367 217.537 365.367 218.11C365.367 218.69 365.503 219.143 365.777 219.47C366.057 219.797 366.443 219.96 366.937 219.96C367.237 219.96 367.497 219.9 367.717 219.78C367.937 219.653 368.1 219.47 368.207 219.23H369.187C369.02 219.71 368.737 220.087 368.337 220.36C367.943 220.633 367.47 220.77 366.917 220.77Z" fill="#6D69A3"/>
<path d="M372.472 220.77C371.879 220.77 371.443 220.633 371.163 220.36C370.889 220.08 370.753 219.67 370.753 219.13V214.4L371.782 214.01V219.14C371.782 219.407 371.853 219.603 371.993 219.73C372.133 219.857 372.359 219.92 372.673 219.92C372.793 219.92 372.899 219.91 372.993 219.89C373.086 219.87 373.166 219.847 373.233 219.82V220.66C373.159 220.693 373.056 220.72 372.923 220.74C372.789 220.76 372.639 220.77 372.472 220.77ZM369.733 216.4V215.57H373.233V216.4H369.733Z" fill="#6D69A3"/>
<path d="M374.199 220.67V215.57H375.239V220.67H374.199ZM374.149 214.57V213.4H375.299V214.57H374.149Z" fill="#6D69A3"/>
<path d="M376.699 220.67V215.57H377.689V216.77H377.739V220.67H376.699ZM380.319 220.67V217.39C380.319 217.037 380.229 216.773 380.049 216.6C379.876 216.427 379.616 216.34 379.269 216.34C378.969 216.34 378.702 216.407 378.469 216.54C378.242 216.673 378.062 216.857 377.929 217.09C377.802 217.323 377.739 217.6 377.739 217.92L377.609 216.7C377.776 216.32 378.032 216.02 378.379 215.8C378.726 215.58 379.129 215.47 379.589 215.47C380.136 215.47 380.566 215.623 380.879 215.93C381.192 216.237 381.349 216.643 381.349 217.15V220.67H380.319Z" fill="#6D69A3"/>
<path d="M384.894 222.82C384.254 222.82 383.724 222.673 383.304 222.38C382.89 222.093 382.64 221.71 382.554 221.23H383.534C383.6 221.45 383.747 221.623 383.974 221.75C384.207 221.877 384.517 221.94 384.904 221.94C385.404 221.94 385.777 221.817 386.024 221.57C386.27 221.323 386.394 220.957 386.394 220.47V219.37L386.484 219.39C386.384 219.777 386.167 220.083 385.834 220.31C385.5 220.53 385.1 220.64 384.634 220.64C384.187 220.64 383.794 220.533 383.454 220.32C383.114 220.107 382.85 219.81 382.664 219.43C382.477 219.043 382.384 218.593 382.384 218.08C382.384 217.56 382.48 217.103 382.674 216.71C382.867 216.317 383.137 216.013 383.484 215.8C383.837 215.587 384.247 215.48 384.714 215.48C385.194 215.48 385.59 215.597 385.904 215.83C386.224 216.057 386.427 216.38 386.514 216.8L386.434 216.81V215.57H387.424V220.46C387.424 221.193 387.197 221.77 386.744 222.19C386.297 222.61 385.68 222.82 384.894 222.82ZM384.944 219.8C385.39 219.8 385.747 219.643 386.014 219.33C386.287 219.017 386.424 218.587 386.424 218.04C386.424 217.507 386.287 217.087 386.014 216.78C385.747 216.473 385.387 216.32 384.934 216.32C384.48 216.32 384.12 216.477 383.854 216.79C383.587 217.097 383.454 217.523 383.454 218.07C383.454 218.603 383.587 219.027 383.854 219.34C384.127 219.647 384.49 219.8 384.944 219.8Z" fill="#6D69A3"/>
<rect x="343" y="313.4" width="170" height="66" rx="7" fill="white"/>
<rect x="343" y="313.4" width="170" height="66" rx="7" stroke="#F5F5F5" stroke-width="2"/>
<rect x="350" y="320.4" width="81" height="8" rx="4" fill="#E0E0E0"/>
<rect x="350" y="336.4" width="133" height="8" rx="4" fill="#E0E0E0"/>
<g clip-path="url(#clip2_1_305)">
<path d="M351.667 367.757L354.742 365.4C356.376 367.533 358.112 368.516 360.044 368.516C361.967 368.516 363.653 367.544 365.213 365.429L368.333 367.728C366.082 370.778 363.284 372.391 360.044 372.391C356.815 372.391 353.99 370.789 351.667 367.757Z" fill="url(#paint5_linear_1_305)"/>
<path d="M360.033 357.525L354.56 362.242L352.03 359.308L360.046 352.4L367.998 359.313L365.457 362.238L360.033 357.525Z" fill="url(#paint6_linear_1_305)"/>
</g>
<rect x="538" y="64" width="188" height="293.2" rx="8" fill="#FAFAFA"/>
<path d="M548.43 87.2V80.87H546V80H551.92V80.87H549.49V87.2H548.43Z" fill="#757575"/>
<path d="M553.705 87.3C553.365 87.3 553.065 87.23 552.805 87.09C552.545 86.9433 552.341 86.7433 552.195 86.49C552.055 86.2367 551.985 85.9467 551.985 85.62V82.1H553.025V85.38C553.025 85.7333 553.111 85.9967 553.285 86.17C553.458 86.3433 553.705 86.43 554.025 86.43C554.311 86.43 554.565 86.3633 554.785 86.23C555.011 86.0967 555.188 85.9133 555.315 85.68C555.448 85.44 555.515 85.1633 555.515 84.85L555.645 86.07C555.478 86.4433 555.221 86.7433 554.875 86.97C554.535 87.19 554.145 87.3 553.705 87.3ZM555.555 87.2V86H555.515V82.1H556.545V87.2H555.555Z" fill="#757575"/>
<path d="M560.182 87.3C559.669 87.3 559.216 87.1867 558.822 86.96C558.436 86.7333 558.132 86.42 557.912 86.02C557.692 85.62 557.582 85.16 557.582 84.64C557.582 84.1133 557.689 83.6533 557.902 83.26C558.122 82.86 558.429 82.55 558.822 82.33C559.216 82.11 559.666 82 560.172 82C560.666 82 561.092 82.1067 561.452 82.32C561.819 82.5267 562.099 82.8167 562.292 83.19C562.492 83.5633 562.592 84.0067 562.592 84.52C562.592 84.6 562.589 84.6767 562.582 84.75C562.582 84.8167 562.576 84.8867 562.562 84.96H558.282V84.18H561.832L561.572 84.49C561.572 83.9433 561.449 83.5267 561.202 83.24C560.956 82.9533 560.612 82.81 560.172 82.81C559.699 82.81 559.322 82.9733 559.042 83.3C558.769 83.62 558.632 84.0667 558.632 84.64C558.632 85.22 558.769 85.6733 559.042 86C559.322 86.3267 559.709 86.49 560.202 86.49C560.502 86.49 560.762 86.43 560.982 86.31C561.202 86.1833 561.366 86 561.472 85.76H562.452C562.286 86.24 562.002 86.6167 561.602 86.89C561.209 87.1633 560.736 87.3 560.182 87.3Z" fill="#757575"/>
<path d="M553.975 114.2V110.4L554.095 110V101.78L555.095 102.22L549.175 110.16L548.035 109.22H558.195V111.28H546.915V109.3L554.055 99.8H556.635V114.2H553.975Z" fill="#757575"/>
<rect x="547" y="144.2" width="170" height="66" rx="7" fill="white"/>
<rect x="547" y="144.2" width="170" height="66" rx="7" stroke="#F5F5F5" stroke-width="2"/>
<rect x="554" y="151.2" width="102" height="8" rx="4" fill="#E0E0E0"/>
<rect x="554" y="167.2" width="154" height="8" rx="4" fill="#E0E0E0"/>
<g clip-path="url(#clip3_1_305)">
<path fill-rule="evenodd" clip-rule="evenodd" d="M564 183.2C569.523 183.2 574 187.79 574 193.453C574 197.982 571.138 201.824 567.167 203.181C566.66 203.282 566.48 202.962 566.48 202.689C566.48 202.351 566.492 201.247 566.492 199.875C566.492 198.919 566.172 198.295 565.813 197.977C568.04 197.723 570.38 196.856 570.38 192.918C570.38 191.798 569.992 190.884 569.35 190.166C569.454 189.907 569.797 188.864 569.252 187.452C569.252 187.452 568.414 187.177 566.505 188.503C565.706 188.276 564.85 188.162 564 188.158C563.15 188.162 562.295 188.276 561.497 188.503C559.586 187.177 558.746 187.452 558.746 187.452C558.203 188.864 558.546 189.907 558.649 190.166C558.01 190.884 557.619 191.798 557.619 192.918C557.619 196.846 559.954 197.726 562.175 197.985C561.889 198.241 561.63 198.693 561.54 199.356C560.97 199.618 559.522 200.071 558.63 198.504C558.63 198.504 558.101 197.519 557.097 197.447C557.097 197.447 556.122 197.434 557.029 198.07C557.029 198.07 557.684 198.385 558.139 199.57C558.139 199.57 558.726 201.4 561.508 200.78C561.513 201.637 561.522 202.445 561.522 202.689C561.522 202.96 561.338 203.277 560.839 203.182C556.865 201.827 554 197.983 554 193.453C554 187.79 558.478 183.2 564 183.2Z" fill="black"/>
</g>
<rect x="547" y="228.2" width="170" height="50" rx="7" fill="white"/>
<rect x="547" y="228.2" width="170" height="50" rx="7" stroke="#F5F5F5" stroke-width="2"/>
<rect x="554" y="235.2" width="84" height="8" rx="4" fill="#E0E0E0"/>
<g clip-path="url(#clip4_1_305)">
<path fill-rule="evenodd" clip-rule="evenodd" d="M564 251.2C569.523 251.2 574 255.79 574 261.453C574 265.982 571.138 269.824 567.167 271.181C566.66 271.282 566.48 270.962 566.48 270.689C566.48 270.351 566.492 269.247 566.492 267.875C566.492 266.919 566.172 266.295 565.813 265.977C568.04 265.723 570.38 264.856 570.38 260.918C570.38 259.798 569.992 258.884 569.35 258.166C569.454 257.907 569.797 256.864 569.252 255.452C569.252 255.452 568.414 255.177 566.505 256.503C565.706 256.276 564.85 256.162 564 256.158C563.15 256.162 562.295 256.276 561.497 256.503C559.586 255.177 558.746 255.452 558.746 255.452C558.203 256.864 558.546 257.907 558.649 258.166C558.01 258.884 557.619 259.798 557.619 260.918C557.619 264.846 559.954 265.726 562.175 265.985C561.889 266.241 561.63 266.693 561.54 267.356C560.97 267.618 559.522 268.071 558.63 266.504C558.63 266.504 558.101 265.519 557.097 265.447C557.097 265.447 556.122 265.434 557.029 266.07C557.029 266.07 557.684 266.385 558.139 267.57C558.139 267.57 558.726 269.4 561.508 268.78C561.513 269.637 561.522 270.445 561.522 270.689C561.522 270.96 561.338 271.277 560.839 271.182C556.865 269.827 554 265.983 554 261.453C554 255.79 558.478 251.2 564 251.2Z" fill="black"/>
</g>
<rect x="547" y="296.2" width="170" height="44" rx="7" fill="white"/>
<rect x="547" y="296.2" width="170" height="44" rx="7" stroke="#F5F5F5" stroke-width="2"/>
<rect x="554" y="303.2" width="133" height="8" rx="4" fill="#E0E0E0"/>
<rect x="554" y="319.2" width="65" height="8" rx="4" fill="#E0E0E0"/>
<rect x="742" y="64" width="188" height="353.4" rx="8" fill="#FAFAFA"/>
<path d="M752.09 87.2L750 80H751.08L752.91 86.63H752.65L754.39 80H755.64L757.39 86.63H757.13L758.96 80H759.98L757.89 87.2H756.65L754.89 80.75H755.1L753.33 87.2H752.09Z" fill="#757575"/>
<path d="M762.763 87.3C762.25 87.3 761.797 87.1867 761.403 86.96C761.017 86.7333 760.713 86.42 760.493 86.02C760.273 85.62 760.163 85.16 760.163 84.64C760.163 84.1133 760.27 83.6533 760.483 83.26C760.703 82.86 761.01 82.55 761.403 82.33C761.797 82.11 762.247 82 762.753 82C763.247 82 763.673 82.1067 764.033 82.32C764.4 82.5267 764.68 82.8167 764.873 83.19C765.073 83.5633 765.173 84.0067 765.173 84.52C765.173 84.6 765.17 84.6767 765.163 84.75C765.163 84.8167 765.157 84.8867 765.143 84.96H760.863V84.18H764.413L764.153 84.49C764.153 83.9433 764.03 83.5267 763.783 83.24C763.537 82.9533 763.193 82.81 762.753 82.81C762.28 82.81 761.903 82.9733 761.623 83.3C761.35 83.62 761.213 84.0667 761.213 84.64C761.213 85.22 761.35 85.6733 761.623 86C761.903 86.3267 762.29 86.49 762.783 86.49C763.083 86.49 763.343 86.43 763.563 86.31C763.783 86.1833 763.947 86 764.053 85.76H765.033C764.867 86.24 764.583 86.6167 764.183 86.89C763.79 87.1633 763.317 87.3 762.763 87.3Z" fill="#757575"/>
<path d="M769.946 87.2V86.03L770.046 86.06C769.94 86.44 769.72 86.7433 769.386 86.97C769.053 87.19 768.653 87.3 768.186 87.3C767.726 87.3 767.323 87.19 766.976 86.97C766.636 86.75 766.37 86.4433 766.176 86.05C765.99 85.6567 765.896 85.1967 765.896 84.67C765.896 84.1367 765.993 83.67 766.186 83.27C766.38 82.87 766.65 82.56 766.996 82.34C767.343 82.12 767.75 82.01 768.216 82.01C768.703 82.01 769.103 82.1267 769.416 82.36C769.736 82.5867 769.946 82.9067 770.046 83.32L769.906 83.34V80H770.936V87.2H769.946ZM768.446 86.43C768.906 86.43 769.27 86.2733 769.536 85.96C769.803 85.64 769.936 85.2 769.936 84.64C769.936 84.0933 769.8 83.6633 769.526 83.35C769.26 83.03 768.896 82.87 768.436 82.87C767.983 82.87 767.623 83.03 767.356 83.35C767.096 83.6633 766.966 84.1033 766.966 84.67C766.966 85.2233 767.096 85.6567 767.356 85.97C767.623 86.2767 767.986 86.43 768.446 86.43Z" fill="#757575"/>
<path d="M755.789 114.4C754.336 114.4 753.149 114.02 752.229 113.26C751.309 112.5 750.742 111.453 750.529 110.12H753.169C753.289 110.827 753.582 111.373 754.049 111.76C754.529 112.147 755.089 112.34 755.729 112.34C756.436 112.34 757.009 112.107 757.449 111.64C757.902 111.173 758.129 110.453 758.129 109.48C758.129 108.533 757.909 107.82 757.469 107.34C757.042 106.847 756.469 106.6 755.749 106.6C755.282 106.6 754.862 106.7 754.489 106.9C754.116 107.1 753.836 107.38 753.649 107.74H751.289L751.989 99.8H760.049V101.86H753.049L754.329 101.5L753.929 106.44L753.129 106.3C753.449 105.807 753.862 105.413 754.369 105.12C754.876 104.827 755.516 104.68 756.289 104.68C757.209 104.68 758.009 104.88 758.689 105.28C759.382 105.68 759.922 106.24 760.309 106.96C760.709 107.667 760.909 108.52 760.909 109.52C760.909 110.547 760.696 111.427 760.269 112.16C759.842 112.88 759.249 113.433 758.489 113.82C757.729 114.207 756.829 114.4 755.789 114.4Z" fill="#757575"/>
<rect x="751" y="144.4" width="170" height="44" rx="7" fill="white"/>
<rect x="751" y="144.4" width="170" height="44" rx="7" stroke="#F5F5F5" stroke-width="2"/>
<rect x="758" y="151.4" width="153" height="8" rx="4" fill="#E0E0E0"/>
<rect x="758" y="167.4" width="105" height="8" rx="4" fill="#E0E0E0"/>
<rect x="751" y="206.4" width="170" height="50" rx="7" fill="white"/>
<rect x="751" y="206.4" width="170" height="50" rx="7" stroke="#F5F5F5" stroke-width="2"/>
<rect x="758" y="213.4" width="155" height="8" rx="4" fill="#E0E0E0"/>
<path d="M774.563 238.775C775.426 238.775 776.125 238.075 776.125 237.212C776.125 236.349 775.425 235.65 774.563 235.65C773.7 235.65 773 236.35 773 237.212V238.775H774.563ZM770.188 238.775C771.05 238.775 771.75 238.075 771.75 237.212V232.837C771.75 231.975 771.05 231.275 770.188 231.275C769.325 231.275 768.625 231.975 768.625 232.837V237.212C768.625 238.075 769.325 238.775 770.188 238.775Z" fill="#2EB67D"/>
<path d="M761.437 240.025C760.574 240.025 759.875 240.725 759.875 241.588C759.875 242.45 760.575 243.15 761.437 243.15C762.3 243.15 763 242.45 763 241.587V240.025H761.437ZM765.812 240.025C764.95 240.025 764.25 240.725 764.25 241.588V245.962C764.25 246.825 764.95 247.525 765.812 247.525C766.675 247.525 767.375 246.825 767.375 245.962V241.588C767.375 240.725 766.675 240.025 765.812 240.025Z" fill="#E01E5A"/>
<path d="M768.625 245.963C768.625 246.825 769.325 247.525 770.188 247.525C771.05 247.525 771.75 246.825 771.75 245.963C771.75 245.1 771.05 244.4 770.187 244.4H768.625V245.963ZM768.625 241.587C768.625 242.45 769.325 243.15 770.188 243.15H774.562C775.425 243.15 776.125 242.45 776.125 241.587C776.125 240.725 775.425 240.025 774.562 240.025H770.188C769.325 240.025 768.625 240.725 768.625 241.587Z" fill="#ECB22E"/>
<path d="M767.375 232.837C767.375 231.974 766.675 231.275 765.812 231.275C764.95 231.275 764.25 231.975 764.25 232.837C764.25 233.7 764.95 234.4 765.813 234.4H767.375V232.837ZM767.375 237.212C767.375 236.35 766.675 235.65 765.812 235.65H761.438C760.575 235.65 759.875 236.35 759.875 237.212C759.875 238.075 760.575 238.775 761.438 238.775H765.812C766.675 238.775 767.375 238.075 767.375 237.212Z" fill="#36C5F0"/>
<rect x="751" y="274.4" width="170" height="42" rx="7" fill="#D5FDEE"/>
<rect x="751" y="274.4" width="170" height="42" rx="7" stroke="#8BBBB6" stroke-width="2"/>
<path d="M760.43 288.71V282.38H758V281.51H763.92V282.38H761.49V288.71H760.43Z" fill="#69A39D"/>
<path d="M766.069 288.81C765.556 288.81 765.102 288.697 764.709 288.47C764.322 288.243 764.019 287.93 763.799 287.53C763.579 287.13 763.469 286.67 763.469 286.15C763.469 285.623 763.576 285.163 763.789 284.77C764.009 284.37 764.316 284.06 764.709 283.84C765.102 283.62 765.552 283.51 766.059 283.51C766.552 283.51 766.979 283.617 767.339 283.83C767.706 284.037 767.986 284.327 768.179 284.7C768.379 285.073 768.479 285.517 768.479 286.03C768.479 286.11 768.476 286.187 768.469 286.26C768.469 286.327 768.462 286.397 768.449 286.47H764.169V285.69H767.719L767.459 286C767.459 285.453 767.336 285.037 767.089 284.75C766.842 284.463 766.499 284.32 766.059 284.32C765.586 284.32 765.209 284.483 764.929 284.81C764.656 285.13 764.519 285.577 764.519 286.15C764.519 286.73 764.656 287.183 764.929 287.51C765.209 287.837 765.596 288 766.089 288C766.389 288 766.649 287.94 766.869 287.82C767.089 287.693 767.252 287.51 767.359 287.27H768.339C768.172 287.75 767.889 288.127 767.489 288.4C767.096 288.673 766.622 288.81 766.069 288.81Z" fill="#69A39D"/>
<path d="M772.644 288.71C772.611 288.583 772.588 288.443 772.574 288.29C772.568 288.137 772.564 287.95 772.564 287.73H772.514V285.3C772.514 284.973 772.431 284.73 772.264 284.57C772.104 284.403 771.848 284.32 771.494 284.32C771.154 284.32 770.881 284.387 770.674 284.52C770.474 284.653 770.358 284.843 770.324 285.09H769.334C769.381 284.61 769.598 284.227 769.984 283.94C770.371 283.653 770.888 283.51 771.534 283.51C772.201 283.51 772.701 283.667 773.034 283.98C773.368 284.287 773.534 284.74 773.534 285.34V287.73C773.534 287.883 773.544 288.04 773.564 288.2C773.584 288.36 773.614 288.53 773.654 288.71H772.644ZM770.884 288.81C770.364 288.81 769.951 288.683 769.644 288.43C769.338 288.17 769.184 287.82 769.184 287.38C769.184 286.927 769.344 286.57 769.664 286.31C769.991 286.043 770.458 285.863 771.064 285.77L772.744 285.5V286.23L771.224 286.47C770.884 286.523 770.628 286.613 770.454 286.74C770.288 286.867 770.204 287.05 770.204 287.29C770.204 287.523 770.281 287.7 770.434 287.82C770.594 287.933 770.824 287.99 771.124 287.99C771.524 287.99 771.854 287.893 772.114 287.7C772.381 287.507 772.514 287.263 772.514 286.97L772.644 287.71C772.524 288.063 772.311 288.337 772.004 288.53C771.698 288.717 771.324 288.81 770.884 288.81Z" fill="#69A39D"/>
<path d="M774.943 288.71V283.61H775.933V284.81H775.983V288.71H774.943ZM778.383 288.71V285.38C778.383 285.033 778.303 284.78 778.143 284.62C777.983 284.46 777.753 284.38 777.453 284.38C777.173 284.38 776.92 284.447 776.693 284.58C776.473 284.707 776.3 284.887 776.173 285.12C776.047 285.347 775.983 285.617 775.983 285.93L775.853 284.74C776.02 284.36 776.27 284.06 776.603 283.84C776.943 283.62 777.323 283.51 777.743 283.51C778.25 283.51 778.653 283.657 778.953 283.95C779.26 284.243 779.413 284.63 779.413 285.11V288.71H778.383ZM781.823 288.71V285.38C781.823 285.033 781.74 284.78 781.573 284.62C781.413 284.46 781.183 284.38 780.883 284.38C780.61 284.38 780.36 284.447 780.133 284.58C779.913 284.707 779.737 284.887 779.603 285.12C779.477 285.347 779.413 285.617 779.413 285.93L779.203 284.74C779.377 284.36 779.637 284.06 779.983 283.84C780.337 283.62 780.73 283.51 781.163 283.51C781.677 283.51 782.087 283.66 782.393 283.96C782.7 284.253 782.853 284.647 782.853 285.14V288.71H781.823Z" fill="#69A39D"/>
<path d="M788.843 288.8C787.976 288.8 787.283 288.593 786.763 288.18C786.243 287.767 785.939 287.177 785.853 286.41H786.882C786.942 286.91 787.142 287.29 787.483 287.55C787.822 287.81 788.282 287.94 788.862 287.94C789.349 287.94 789.716 287.85 789.962 287.67C790.216 287.49 790.342 287.233 790.342 286.9C790.342 286.6 790.259 286.363 790.092 286.19C789.926 286.01 789.662 285.863 789.302 285.75L788.052 285.35C787.412 285.143 786.942 284.883 786.642 284.57C786.342 284.257 786.192 283.86 786.192 283.38C786.192 282.973 786.293 282.623 786.493 282.33C786.699 282.037 786.986 281.81 787.353 281.65C787.726 281.483 788.159 281.4 788.653 281.4C789.413 281.4 790.019 281.593 790.472 281.98C790.932 282.36 791.196 282.89 791.263 283.57H790.233C790.153 283.117 789.979 282.787 789.712 282.58C789.446 282.367 789.079 282.26 788.612 282.26C788.172 282.26 787.829 282.347 787.583 282.52C787.336 282.693 787.212 282.937 787.212 283.25C787.212 283.503 787.292 283.717 787.452 283.89C787.619 284.057 787.893 284.2 788.273 284.32L789.583 284.74C790.189 284.933 790.636 285.197 790.923 285.53C791.216 285.863 791.362 286.283 791.362 286.79C791.362 287.43 791.142 287.927 790.702 288.28C790.262 288.627 789.643 288.8 788.843 288.8Z" fill="#69A39D"/>
<path d="M792.833 290.76L794.063 287.95L794.273 287.62L795.823 283.61H796.903L793.903 290.76H792.833ZM794.013 288.71L791.833 283.61H792.963L794.813 288.2L794.013 288.71Z" fill="#69A39D"/>
<path d="M797.756 288.71V283.61H798.746V284.81H798.796V288.71H797.756ZM801.376 288.71V285.43C801.376 285.077 801.286 284.813 801.106 284.64C800.932 284.467 800.672 284.38 800.326 284.38C800.026 284.38 799.759 284.447 799.526 284.58C799.299 284.713 799.119 284.897 798.986 285.13C798.859 285.363 798.796 285.64 798.796 285.96L798.666 284.74C798.832 284.36 799.089 284.06 799.436 283.84C799.782 283.62 800.186 283.51 800.646 283.51C801.192 283.51 801.622 283.663 801.936 283.97C802.249 284.277 802.406 284.683 802.406 285.19V288.71H801.376Z" fill="#69A39D"/>
<path d="M805.94 288.81C805.453 288.81 805.02 288.697 804.64 288.47C804.26 288.237 803.96 287.92 803.74 287.52C803.527 287.12 803.42 286.663 803.42 286.15C803.42 285.637 803.527 285.183 803.74 284.79C803.96 284.39 804.26 284.077 804.64 283.85C805.02 283.623 805.45 283.51 805.93 283.51C806.337 283.51 806.7 283.587 807.02 283.74C807.34 283.893 807.603 284.107 807.81 284.38C808.017 284.653 808.15 284.977 808.21 285.35H807.23C807.163 285.05 807.017 284.81 806.79 284.63C806.57 284.45 806.29 284.36 805.95 284.36C805.657 284.36 805.4 284.433 805.18 284.58C804.96 284.727 804.79 284.933 804.67 285.2C804.55 285.467 804.49 285.783 804.49 286.15C804.49 286.51 804.55 286.827 804.67 287.1C804.79 287.373 804.96 287.587 805.18 287.74C805.4 287.887 805.66 287.96 805.96 287.96C806.287 287.96 806.563 287.873 806.79 287.7C807.023 287.52 807.173 287.28 807.24 286.98H808.22C808.153 287.347 808.013 287.667 807.8 287.94C807.593 288.213 807.33 288.427 807.01 288.58C806.69 288.733 806.333 288.81 805.94 288.81Z" fill="#69A39D"/>
<rect x="751" y="334.4" width="170" height="66" rx="7" fill="white"/>
<rect x="751" y="334.4" width="170" height="66" rx="7" stroke="#F5F5F5" stroke-width="2"/>
<rect x="758" y="341.4" width="53" height="8" rx="4" fill="#E0E0E0"/>
<rect x="758" y="357.4" width="150" height="8" rx="4" fill="#E0E0E0"/>
<g clip-path="url(#clip5_1_305)">
<path d="M759.667 388.757L762.742 386.4C764.376 388.533 766.112 389.516 768.044 389.516C769.967 389.516 771.653 388.544 773.213 386.429L776.333 388.728C774.082 391.778 771.284 393.391 768.044 393.391C764.815 393.391 761.99 391.789 759.667 388.757Z" fill="url(#paint7_linear_1_305)"/>
<path d="M768.033 378.525L762.56 383.242L760.03 380.308L768.046 373.4L775.998 380.313L773.457 383.238L768.033 378.525Z" fill="url(#paint8_linear_1_305)"/>
</g>
<defs>
<linearGradient id="paint0_linear_1_305" x1="57.5223" y1="143.796" x2="53.0603" y2="145.744" gradientUnits="userSpaceOnUse">
<stop offset="0.18" stop-color="#0052CC"/>
<stop offset="1" stop-color="#2684FF"/>
</linearGradient>
<linearGradient id="paint1_linear_1_305" x1="58.5111" y1="154.174" x2="62.9651" y2="152.24" gradientUnits="userSpaceOnUse">
<stop offset="0.18" stop-color="#0052CC"/>
<stop offset="1" stop-color="#2684FF"/>
</linearGradient>
<linearGradient id="paint2_linear_1_305" x1="50" y1="230.991" x2="69.5" y2="230.491" gradientUnits="userSpaceOnUse">
<stop stop-color="#8034FB"/>
<stop offset="1" stop-color="#1DB8FA"/>
</linearGradient>
<linearGradient id="paint3_linear_1_305" x1="50" y1="222" x2="66" y2="222" gradientUnits="userSpaceOnUse">
<stop stop-color="#FB27DC"/>
<stop offset="1" stop-color="#FEA720"/>
</linearGradient>
<linearGradient id="paint4_linear_1_305" x1="58.0048" y1="498.5" x2="58.0048" y2="483.5" gradientUnits="userSpaceOnUse">
<stop stop-color="#0052CC"/>
<stop offset="0.51698" stop-color="#217EF8"/>
<stop offset="1" stop-color="#2684FF"/>
</linearGradient>
<linearGradient id="paint5_linear_1_305" x1="352" y1="368.391" x2="371.5" y2="367.891" gradientUnits="userSpaceOnUse">
<stop stop-color="#8034FB"/>
<stop offset="1" stop-color="#1DB8FA"/>
</linearGradient>
<linearGradient id="paint6_linear_1_305" x1="352" y1="359.4" x2="368" y2="359.4" gradientUnits="userSpaceOnUse">
<stop stop-color="#FB27DC"/>
<stop offset="1" stop-color="#FEA720"/>
</linearGradient>
<linearGradient id="paint7_linear_1_305" x1="760" y1="389.391" x2="779.5" y2="388.891" gradientUnits="userSpaceOnUse">
<stop stop-color="#8034FB"/>
<stop offset="1" stop-color="#1DB8FA"/>
</linearGradient>
<linearGradient id="paint8_linear_1_305" x1="760" y1="380.4" x2="776" y2="380.4" gradientUnits="userSpaceOnUse">
<stop stop-color="#FB27DC"/>
<stop offset="1" stop-color="#FEA720"/>
</linearGradient>
<clipPath id="clip0_1_305">
<rect width="20" height="20" fill="white" transform="translate(48 351)"/>
</clipPath>
<clipPath id="clip1_1_305">
<rect width="12" height="12" fill="white" transform="translate(902 42) rotate(-180)"/>
</clipPath>
<clipPath id="clip2_1_305">
<rect width="20" height="20" fill="white" transform="translate(350 352.4)"/>
</clipPath>
<clipPath id="clip3_1_305">
<rect width="20" height="20" fill="white" transform="translate(554 183.2)"/>
</clipPath>
<clipPath id="clip4_1_305">
<rect width="20" height="20" fill="white" transform="translate(554 251.2)"/>
</clipPath>
<clipPath id="clip5_1_305">
<rect width="20" height="20" fill="white" transform="translate(758 373.4)"/>
</clipPath>
</defs>
</svg>
