<svg width="164" height="126" viewBox="0 0 164 126" fill="none" xmlns="http://www.w3.org/2000/svg">
<path d="M146.038 63.4272C146.038 70.3022 144.893 76.9689 142.812 83.2189C134.588 107.698 111.376 125.302 84.208 125.302C56.9359 125.302 33.7234 107.594 25.5002 83.1147C24.3552 79.6772 23.5225 76.1356 23.002 72.4897C22.5856 69.4689 22.3774 66.4481 22.3774 63.4272C22.3774 58.9481 22.8979 54.5731 23.7306 50.4064C29.6639 22.4897 54.5418 1.55225 84.208 1.55225C103.985 1.55225 121.577 10.8231 132.819 25.1981C133.652 26.2397 134.38 27.1772 135.109 28.2189C137.503 31.5522 139.481 35.1981 141.146 39.0522C144.269 46.5522 146.038 54.7814 146.038 63.4272Z" fill="#EAEEF9"/>
<path d="M142.811 83.2189C134.588 107.698 111.376 125.302 84.2078 125.302C75.8804 125.302 67.8654 123.636 60.5789 120.615C58.7053 119.886 56.9357 118.948 55.1662 118.011C41.3219 110.823 30.6005 98.3231 25.5 83.2189L50.7943 58.0106L60.0585 48.7397C62.5567 46.2397 66.7203 46.2397 69.2185 48.7397L73.7986 53.3231L97.1151 76.6564L112.104 61.6564C114.603 59.1564 118.766 59.1564 121.264 61.6564L134.276 74.6772L142.811 83.2189Z" fill="#D5DDEA"/>
<path d="M142.812 83.2189C134.589 107.698 111.376 125.302 84.2081 125.302C75.8808 125.302 67.8657 123.636 60.5793 120.615C58.7056 119.886 56.9361 118.948 55.1665 118.011L97.0114 76.4481L112.105 61.6564C114.603 59.1564 118.767 59.1564 121.265 61.6564L142.812 83.2189Z" fill="#C2C8D6"/>
<g filter="url(#filter0_d_22_6489)">
<path d="M141.042 39.0523H101.487C101.695 33.4273 106.276 28.9481 111.896 28.9481C112.209 28.9481 112.417 28.9481 112.729 28.9481C114.186 24.2606 118.558 20.7189 123.763 20.7189C128.655 20.7189 132.923 23.8439 134.588 28.1148C134.797 28.1148 135.005 28.1148 135.109 28.1148C137.399 31.6564 139.481 35.3023 141.042 39.0523Z" fill="white"/>
</g>
<g filter="url(#filter1_d_22_6489)">
<path d="M57.7686 72.5939H23.002C22.5856 69.5731 22.3774 66.5522 22.3774 63.5314C22.3774 59.0522 22.8979 54.6772 23.7306 50.5106C24.3552 50.3022 24.9797 50.3022 25.6043 50.3022C31.6416 50.3022 36.7421 54.0522 38.7198 59.3647C43.404 59.5731 47.3595 62.8022 48.6086 67.1772C49.2331 67.0731 49.7536 66.9689 50.4822 66.9689C53.9172 66.8647 56.9359 69.2606 57.7686 72.5939Z" fill="white"/>
</g>
<path d="M69.2192 48.7397L73.7992 53.3231L67.1373 59.9897L62.0368 54.8856L55.0627 61.8647C55.0627 61.8647 52.8768 59.8856 50.7949 57.9064L60.0591 48.6356C62.5573 46.1356 66.6169 46.1356 69.2192 48.7397Z" fill="white"/>
<path d="M134.277 74.6773L127.302 81.6564L122.098 76.4481L114.603 83.9481L102.216 71.5523L112.105 61.6564C114.603 59.1564 118.767 59.1564 121.265 61.6564L134.277 74.6773Z" fill="white"/>
<path d="M40.2814 37.8022C50.6293 37.8022 59.018 29.4076 59.018 19.0522C59.018 8.69691 50.6293 0.302246 40.2814 0.302246C29.9335 0.302246 21.5449 8.69691 21.5449 19.0522C21.5449 29.4076 29.9335 37.8022 40.2814 37.8022Z" fill="#D5DDEA"/>
<defs>
<filter id="filter0_d_22_6489" x="79.4873" y="9.71893" width="83.5547" height="62.3333" filterUnits="userSpaceOnUse" color-interpolation-filters="sRGB">
<feFlood flood-opacity="0" result="BackgroundImageFix"/>
<feColorMatrix in="SourceAlpha" type="matrix" values="0 0 0 0 0 0 0 0 0 0 0 0 0 0 0 0 0 0 127 0" result="hardAlpha"/>
<feOffset dy="11"/>
<feGaussianBlur stdDeviation="11"/>
<feColorMatrix type="matrix" values="0 0 0 0 0.397708 0 0 0 0 0.47749 0 0 0 0 0.575 0 0 0 0.27 0"/>
<feBlend mode="normal" in2="BackgroundImageFix" result="effect1_dropShadow_22_6489"/>
<feBlend mode="normal" in="SourceGraphic" in2="effect1_dropShadow_22_6489" result="shape"/>
</filter>
<filter id="filter1_d_22_6489" x="0.377441" y="39.3022" width="79.3911" height="66.2917" filterUnits="userSpaceOnUse" color-interpolation-filters="sRGB">
<feFlood flood-opacity="0" result="BackgroundImageFix"/>
<feColorMatrix in="SourceAlpha" type="matrix" values="0 0 0 0 0 0 0 0 0 0 0 0 0 0 0 0 0 0 127 0" result="hardAlpha"/>
<feOffset dy="11"/>
<feGaussianBlur stdDeviation="11"/>
<feColorMatrix type="matrix" values="0 0 0 0 0.397708 0 0 0 0 0.47749 0 0 0 0 0.575 0 0 0 0.27 0"/>
<feBlend mode="normal" in2="BackgroundImageFix" result="effect1_dropShadow_22_6489"/>
<feBlend mode="normal" in="SourceGraphic" in2="effect1_dropShadow_22_6489" result="shape"/>
</filter>
</defs>
</svg>
