<svg width="179" height="179" viewBox="0 0 179 179" fill="none" xmlns="http://www.w3.org/2000/svg">
<path d="M86.1929 141C120.686 141 148.648 113.018 148.648 78.5C148.648 43.9822 120.686 16 86.1929 16C51.6999 16 23.7378 43.9822 23.7378 78.5C23.7378 113.018 51.6999 141 86.1929 141Z" fill="#EAEEF9"/>
<g filter="url(#filter0_d_129_8540)">
<path d="M154.005 110.474L94.9261 144.569C91.9765 146.304 87.5521 146.477 85.0362 145.002L24.1351 109.78C21.6193 108.306 21.8796 105.79 24.8292 104.055L83.9084 69.9605C86.858 68.2254 91.2825 68.0519 93.7983 69.5267L154.699 104.749C157.215 106.224 156.955 108.739 154.005 110.474Z" fill="url(#paint0_linear_129_8540)"/>
</g>
<path d="M85.3136 98.4592L54.863 115.983C53.7352 116.677 52.0002 116.764 50.9591 116.157L35.7772 107.395C34.7362 106.788 34.9097 105.833 36.0375 105.139L66.488 87.5282C67.6158 86.8342 69.3509 86.7475 70.3919 87.3547L85.5738 96.1168C86.6149 96.7241 86.4414 97.7652 85.3136 98.4592Z" fill="#D5DDEA"/>
<path d="M121.49 119.887L91.0393 137.412C89.9115 138.106 88.1765 138.192 87.1354 137.585L57.8099 121.074C56.7689 120.467 56.9424 119.513 58.0702 118.819L88.5207 101.208C89.6485 100.514 91.3836 100.427 92.4246 101.034L121.75 117.545C122.791 118.152 122.618 119.193 121.49 119.887Z" fill="#D5DDEA"/>
<g filter="url(#filter1_d_129_8540)">
<path d="M154.005 91.3887L94.9261 125.483C91.9765 127.218 87.5521 127.391 85.0362 125.917L24.1351 90.6946C21.6193 89.2198 21.8796 86.704 24.8292 84.9689L83.9084 50.8747C86.858 49.1396 91.2825 48.9661 93.7983 50.4409L154.699 85.6629C157.215 87.1377 156.955 89.6536 154.005 91.3887Z" fill="url(#paint1_linear_129_8540)"/>
</g>
<path d="M48.2527 82.5398L37.582 88.6993C36.7145 89.1331 35.4132 89.1331 34.5457 88.6993C33.6781 88.2655 33.6781 87.4848 34.5457 86.9642L45.2164 80.8047C46.0839 80.371 47.3852 80.371 48.2527 80.8047C49.1203 81.2385 49.0335 82.0193 48.2527 82.5398Z" fill="#989FB0"/>
<path d="M59.0101 88.3523L48.4262 94.425C47.7322 94.772 46.5176 94.772 45.9971 94.425C45.3031 94.078 45.3031 93.384 45.9971 93.037L56.581 86.9642C57.2751 86.6172 58.4896 86.6172 59.0101 86.9642C59.7042 87.3112 59.6174 87.9185 59.0101 88.3523Z" fill="#C2C8D6"/>
<path d="M75.4067 101.105L67.6856 105.53C67.0783 105.877 65.8638 105.79 65.3433 105.53C64.6492 105.182 64.6492 104.488 65.3433 104.141L73.0644 99.717C73.6716 99.37 74.8862 99.4568 75.4067 99.717C75.7537 100.064 75.9272 100.758 75.4067 101.105Z" fill="#C2C8D6"/>
<path d="M121.039 74.732L110.195 80.9782C109.501 81.412 108.286 81.3252 107.766 80.9782C107.072 80.6312 107.159 79.9372 107.766 79.5902L118.61 73.3439C119.304 72.9101 120.519 72.9969 121.039 73.3439C121.56 73.6909 121.646 74.3849 121.039 74.732Z" fill="#C2C8D6"/>
<path d="M104.123 84.5351L81.3931 97.6349C80.6991 98.0687 79.4846 97.9819 78.964 97.6349C78.27 97.2879 78.3568 96.5939 79.0508 96.2468L101.78 83.147C102.474 82.7133 103.689 82.8 104.209 83.147C104.643 83.4941 104.73 84.1881 104.123 84.5351Z" fill="#C2C8D6"/>
<path d="M92.3237 98.5025L78.2696 106.571C77.5756 107.004 76.361 106.918 75.8405 106.571C75.1465 106.224 75.2332 105.53 75.9273 105.182L89.9813 97.1144C90.6754 96.6806 91.8899 96.7674 92.4104 97.1144C92.931 97.5482 92.931 98.1554 92.3237 98.5025Z" fill="#C2C8D6"/>
<path d="M105.337 90.9549L97.7023 95.3793C97.0083 95.7263 95.7937 95.7263 95.2732 95.3793C94.5792 95.0323 94.6659 94.3383 95.2732 93.9912L102.908 89.5668C103.602 89.2198 104.816 89.2198 105.337 89.5668C105.944 90.0006 105.857 90.6946 105.337 90.9549Z" fill="#C2C8D6"/>
<path d="M97.0086 103.708L80.7857 113.077C80.0917 113.511 78.8771 113.424 78.3566 113.077C77.6626 112.73 77.7493 112.036 78.4434 111.689L94.6663 102.32C95.3603 101.886 96.5749 101.973 97.0954 102.32C97.7027 102.667 97.7894 103.187 97.0086 103.708Z" fill="#C2C8D6"/>
<path d="M108.547 97.0276L102.3 100.585C101.606 100.932 100.392 100.932 99.8713 100.585C99.1773 100.238 99.2641 99.5435 99.8713 99.1965L106.118 95.6396C106.812 95.2925 108.026 95.2925 108.547 95.6396C109.241 95.9866 109.327 96.5071 108.547 97.0276Z" fill="#C2C8D6"/>
<path d="M93.7984 112.643L86.9449 116.634C86.2509 117.068 85.0363 116.981 84.5158 116.634C83.8218 116.287 83.9085 115.593 84.6025 115.246L91.4561 111.255C92.1501 110.821 93.3647 110.908 93.8852 111.255C94.5792 111.602 94.666 112.21 93.7984 112.643Z" fill="#C2C8D6"/>
<path d="M99.698 109.26L98.3967 110.041C97.7894 110.388 96.5749 110.301 96.0544 110.041C95.3603 109.694 95.3603 109.086 95.9676 108.653L97.2689 107.872C97.8762 107.525 99.0907 107.612 99.6113 107.872C100.305 108.306 100.305 108.913 99.698 109.26Z" fill="#C2C8D6"/>
<path d="M64.2158 100.324L61.3529 101.973C60.7457 102.32 59.6179 102.233 59.0973 101.886C58.4033 101.539 58.4033 100.932 59.0106 100.585L61.8735 98.9362C62.4807 98.5892 63.6085 98.676 64.129 99.023C64.7363 99.4568 64.8231 100.064 64.2158 100.324Z" fill="#C2C8D6"/>
<path d="M89.2872 85.9232L71.5895 96.0733C70.8955 96.5071 69.6809 96.4203 69.1604 96.0733C68.4664 95.7263 68.5531 95.0323 69.1604 94.6853L86.8582 84.4483C87.5522 84.0146 88.7667 84.1013 89.2872 84.4483C89.9813 84.8821 89.9813 85.4894 89.2872 85.9232Z" fill="#C2C8D6"/>
<path d="M70.8954 88.6125L54.6724 97.9819C53.9784 98.4157 52.7639 98.3289 52.2433 97.9819C51.5493 97.6349 51.6361 96.9409 52.3301 96.5939L68.4663 87.2245C69.1603 86.7907 70.3748 86.8775 70.8954 87.2245C71.6762 87.5715 71.7629 88.1788 70.8954 88.6125Z" fill="#C2C8D6"/>
<path d="M92.4971 76.12L76.3609 85.4894C75.6669 85.9231 74.4523 85.8364 73.9318 85.4894C73.2378 85.1424 73.3245 84.4483 74.0186 84.1013L90.2415 74.7319C90.9355 74.2982 92.1501 74.3849 92.6706 74.7319C93.2779 75.0789 93.3646 75.6862 92.4971 76.12Z" fill="#C2C8D6"/>
<path d="M104.122 69.44L97.8761 72.9969C97.1821 73.3439 95.9675 73.3439 95.447 72.9969C94.753 72.6499 94.8398 71.9558 95.447 71.6088L101.693 68.0519C102.387 67.7049 103.602 67.7049 104.122 68.0519C104.816 68.4857 104.903 69.0062 104.122 69.44Z" fill="#C2C8D6"/>
<g filter="url(#filter2_d_129_8540)">
<path d="M153.588 52.9453L94.5091 87.0395C91.5595 88.7746 87.1351 88.9481 84.6192 87.4733L23.7182 52.2513C21.2023 50.7765 21.4626 48.2606 24.4122 46.5255L83.4914 12.4314C86.441 10.6963 90.8655 10.5228 93.3813 11.9976L154.282 47.2196C156.798 48.6944 156.538 51.2102 153.588 52.9453Z" fill="url(#paint2_linear_129_8540)"/>
</g>
<path d="M48.0955 44.2699L37.4248 50.4294C36.5573 50.8632 35.256 50.8632 34.3884 50.4294C33.5209 49.9957 33.5209 49.2149 34.3884 48.6944L45.0591 42.5349C45.9267 42.1011 47.228 42.1011 48.0955 42.5349C48.9631 42.9686 48.9631 43.8362 48.0955 44.2699Z" fill="#989FB0"/>
<path d="M67.8758 40.019L43.6715 53.9864C43.151 54.2466 42.2835 54.2466 41.763 53.9864C41.2424 53.7261 41.2424 53.2056 41.763 52.9453L65.9672 38.978C66.4877 38.7177 67.3553 38.7177 67.8758 38.978C68.3963 39.2382 68.3963 39.7588 67.8758 40.019Z" fill="#D5DDEA"/>
<path d="M99.1069 72.5517L87.9157 78.9714C86.8747 79.5787 85.2263 79.6655 84.2721 79.1449L50.0044 59.3651C49.0501 58.8446 49.2236 57.8903 50.2646 57.283L61.4558 50.8633C62.4969 50.256 64.1452 50.1692 65.0995 50.6897L99.3672 70.4696C100.235 70.9901 100.148 71.9444 99.1069 72.5517Z" fill="#D5DDEA"/>
<path d="M120.014 38.8045L89.5637 56.3287C88.4359 57.0227 86.7008 57.1095 85.6598 56.5022L70.4779 47.7401C69.4369 47.1328 69.6104 46.1785 70.7382 45.4845L101.189 27.8735C102.316 27.1795 104.052 27.0927 105.093 27.7L120.275 36.4621C121.316 37.0694 121.142 38.1104 120.014 38.8045Z" fill="#D5DDEA"/>
<path d="M119.407 60.8399L107.435 67.7802C106.828 68.1272 105.874 68.214 105.267 67.867L93.6415 61.1869C93.121 60.8399 93.121 60.3194 93.8151 59.9724L105.787 53.0321C106.394 52.6851 107.349 52.5983 107.956 52.9453L119.581 59.6254C120.101 59.9724 120.015 60.4929 119.407 60.8399Z" fill="#D5DDEA"/>
<path d="M139.621 49.2149L127.649 56.1551C127.041 56.5022 126.087 56.5889 125.48 56.2419L113.855 49.5619C113.334 49.2149 113.334 48.6943 114.028 48.3473L126 41.407C126.608 41.06 127.562 40.9733 128.169 41.3203L139.794 48.0003C140.315 48.2606 140.228 48.8678 139.621 49.2149Z" fill="#D5DDEA"/>
<defs>
<filter id="filter0_d_129_8540" x="0.416992" y="57.5292" width="178" height="121.471" filterUnits="userSpaceOnUse" color-interpolation-filters="sRGB">
<feFlood flood-opacity="0" result="BackgroundImageFix"/>
<feColorMatrix in="SourceAlpha" type="matrix" values="0 0 0 0 0 0 0 0 0 0 0 0 0 0 0 0 0 0 127 0" result="hardAlpha"/>
<feOffset dy="11"/>
<feGaussianBlur stdDeviation="11"/>
<feColorMatrix type="matrix" values="0 0 0 0 0.397708 0 0 0 0 0.47749 0 0 0 0 0.575 0 0 0 0.27 0"/>
<feBlend mode="normal" in2="BackgroundImageFix" result="effect1_dropShadow_129_8540"/>
<feBlend mode="normal" in="SourceGraphic" in2="effect1_dropShadow_129_8540" result="shape"/>
</filter>
<filter id="filter1_d_129_8540" x="0.416992" y="38.4434" width="178" height="121.471" filterUnits="userSpaceOnUse" color-interpolation-filters="sRGB">
<feFlood flood-opacity="0" result="BackgroundImageFix"/>
<feColorMatrix in="SourceAlpha" type="matrix" values="0 0 0 0 0 0 0 0 0 0 0 0 0 0 0 0 0 0 127 0" result="hardAlpha"/>
<feOffset dy="11"/>
<feGaussianBlur stdDeviation="11"/>
<feColorMatrix type="matrix" values="0 0 0 0 0.397708 0 0 0 0 0.47749 0 0 0 0 0.575 0 0 0 0.27 0"/>
<feBlend mode="normal" in2="BackgroundImageFix" result="effect1_dropShadow_129_8540"/>
<feBlend mode="normal" in="SourceGraphic" in2="effect1_dropShadow_129_8540" result="shape"/>
</filter>
<filter id="filter2_d_129_8540" x="0" y="0" width="178" height="121.471" filterUnits="userSpaceOnUse" color-interpolation-filters="sRGB">
<feFlood flood-opacity="0" result="BackgroundImageFix"/>
<feColorMatrix in="SourceAlpha" type="matrix" values="0 0 0 0 0 0 0 0 0 0 0 0 0 0 0 0 0 0 127 0" result="hardAlpha"/>
<feOffset dy="11"/>
<feGaussianBlur stdDeviation="11"/>
<feColorMatrix type="matrix" values="0 0 0 0 0.397708 0 0 0 0 0.47749 0 0 0 0 0.575 0 0 0 0.27 0"/>
<feBlend mode="normal" in2="BackgroundImageFix" result="effect1_dropShadow_129_8540"/>
<feBlend mode="normal" in="SourceGraphic" in2="effect1_dropShadow_129_8540" result="shape"/>
</filter>
<linearGradient id="paint0_linear_129_8540" x1="89.3736" y1="66.7372" x2="89.3736" y2="146.835" gradientUnits="userSpaceOnUse">
<stop stop-color="#FDFEFF"/>
<stop offset="0.9964" stop-color="#ECF0F5"/>
</linearGradient>
<linearGradient id="paint1_linear_129_8540" x1="89.3736" y1="47.6514" x2="89.3736" y2="127.749" gradientUnits="userSpaceOnUse">
<stop stop-color="#FDFEFF"/>
<stop offset="0.9964" stop-color="#ECF0F5"/>
</linearGradient>
<linearGradient id="paint2_linear_129_8540" x1="88.9566" y1="9.20803" x2="88.9566" y2="89.306" gradientUnits="userSpaceOnUse">
<stop stop-color="#FDFEFF"/>
<stop offset="0.9964" stop-color="#ECF0F5"/>
</linearGradient>
</defs>
</svg>
