<svg width="143" height="154" viewBox="0 0 143 154" fill="none" xmlns="http://www.w3.org/2000/svg">
<path d="M60.2972 119.867C93.3732 119.867 120.187 93.1019 120.187 60.0849C120.187 27.0678 93.3732 0.302246 60.2972 0.302246C27.2211 0.302246 0.407715 27.0678 0.407715 60.0849C0.407715 93.1019 27.2211 119.867 60.2972 119.867Z" fill="#EAEEF9"/>
<path d="M31.6791 85.1718C30.9664 85.1718 30.2864 85.0298 29.665 84.7733L29.2834 85.6977C27.7506 85.0649 26.5177 83.8458 25.8751 82.3281L26.7959 81.9382C26.5343 81.3204 26.3896 80.6442 26.3896 79.9355V77.4542H25.3896V72.4915H26.3896V67.5288H25.3896V62.5662H26.3896V57.6035H25.3896V52.6408H26.3896V47.6782H25.3896V42.7155H26.3896V40.2341C26.3896 39.5255 26.5343 38.8493 26.7959 38.2314L25.8751 37.8415C26.5177 36.3239 27.7506 35.1047 29.2834 34.472L29.665 35.3963C30.2864 35.1398 30.9664 34.9979 31.6791 34.9979H34.0967V33.9979H38.9319V34.9979H43.7671V33.9979H48.6023V34.9979H53.4375V33.9979H58.2727V34.9979H63.108V33.9979H67.9432V34.9979H72.7784V33.9979H77.6136V34.9979H82.4488V33.9979H87.284V34.9979H89.7016C90.4143 34.9979 91.0943 35.1398 91.7157 35.3963L92.0973 34.472C93.6301 35.1048 94.863 36.3239 95.5056 37.8415L94.5848 38.2314C94.8464 38.8493 94.991 39.5255 94.991 40.2341V42.721H95.991V47.6946H94.991V52.6683H95.991V57.6419H94.991V62.6156H95.991V67.5892H94.991V72.5629H95.991V77.5365H94.991V80.0233C94.991 80.7381 94.8494 81.4117 94.5934 82.021L95.5154 82.4083C94.8807 83.9195 93.6534 85.1159 92.0945 85.7267L91.7297 84.7956C91.1132 85.0372 90.4303 85.1718 89.7016 85.1718H87.284V86.1718H82.4488V85.1718H77.6136V86.1718H72.7784V85.1718H67.9432V86.1718H63.1079V85.1718H58.2727V86.1718H53.4375V85.1718H48.6023V86.1718H43.7671V85.1718H38.9319V86.1718H34.0967V85.1718H31.6791Z" fill="#D5DDEA" stroke="#989FB0" stroke-width="2" stroke-miterlimit="10" stroke-dasharray="5.01 5.01"/>
<path fill-rule="evenodd" clip-rule="evenodd" d="M54.7163 65.4387C54.7163 64.7936 55.2639 64.2708 55.9394 64.2708H66.5273C67.2028 64.2708 67.7504 64.7936 67.7504 65.4387C67.7504 66.0837 67.2028 66.6066 66.5273 66.6066H55.9394C55.2639 66.6066 54.7163 66.0837 54.7163 65.4387Z" fill="#989FB0"/>
<path fill-rule="evenodd" clip-rule="evenodd" d="M61.1885 51.7281C61.864 51.7281 62.4116 52.251 62.4116 52.896V61.1165C62.4116 61.7615 61.864 62.2844 61.1885 62.2844C60.513 62.2844 59.9655 61.7615 59.9655 61.1165V52.896C59.9655 52.251 60.513 51.7281 61.1885 51.7281Z" fill="#989FB0"/>
<path fill-rule="evenodd" clip-rule="evenodd" d="M60.3251 51.7302C60.7997 51.2782 61.5668 51.2751 62.0453 51.7233L67.3838 56.7234C67.866 57.1751 67.8735 57.9145 67.4005 58.375C66.9275 58.8354 66.1531 58.8426 65.6709 58.3909L61.1961 54.1998L56.8032 58.384C56.3249 58.8395 55.5505 58.8386 55.0735 58.3819C54.5964 57.9253 54.5974 57.1858 55.0756 56.7303L60.3251 51.7302Z" fill="#989FB0"/>
<g filter="url(#filter0_d_22_6483)">
<path d="M115.05 120.656H60.4062C57.1525 120.656 54.4829 117.991 54.4829 114.743V77.0188C54.4829 73.7709 57.1525 71.1061 60.4062 71.1061H115.05C118.304 71.1061 120.973 73.7709 120.973 77.0188V114.743C120.973 117.991 118.304 120.656 115.05 120.656Z" fill="url(#paint0_linear_22_6483)"/>
</g>
<path d="M120.291 107.6C121.274 107.6 122.06 108.387 122.06 109.371V120.778C122.06 123.335 120.094 125.302 117.539 125.302H110.07C109.284 125.302 108.498 125.106 108.105 124.516C106.336 122.942 102.602 119.795 101.815 118.615C101.619 118.222 101.422 118.025 101.422 117.631V115.075C101.422 113.501 102.602 112.321 104.174 112.321H105.157V117.238H105.746V107.01C105.746 106.027 106.533 105.24 107.515 105.24C108.498 105.24 109.284 106.027 109.284 107.01V108.977H109.874V106.42C109.874 105.437 110.66 104.65 111.643 104.65C112.625 104.65 113.412 105.437 113.412 106.42V108.977H114.198V107.6C114.198 106.617 114.984 105.83 115.967 105.83C116.949 105.83 117.736 106.617 117.736 107.6V108.977H118.522C118.718 108.19 119.308 107.6 120.291 107.6Z" fill="white" stroke="#989FB0" stroke-width="2" stroke-miterlimit="10" stroke-linecap="round" stroke-linejoin="round"/>
<path d="M92.1911 93.3411C93.343 93.3411 94.2768 92.409 94.2768 91.2592C94.2768 90.1094 93.343 89.1772 92.1911 89.1772C91.0392 89.1772 90.1055 90.1094 90.1055 91.2592C90.1055 92.409 91.0392 93.3411 92.1911 93.3411Z" fill="#C2C8D6"/>
<path d="M92.5252 104.417H77.0079C76.0068 104.417 75.4229 103.251 76.0068 102.502L83.7655 91.6756C84.266 91.0093 85.2671 91.0093 85.7677 91.6756L93.5263 102.502C94.1103 103.334 93.5263 104.417 92.5252 104.417Z" fill="#C2C8D6"/>
<path opacity="0.7" d="M97.8643 104.25H91.2737C90.2725 104.25 89.772 103.168 90.2725 102.418L93.5262 97.8381C94.0267 97.1719 94.9444 97.1719 95.445 97.8381L98.6986 102.418C99.4494 103.168 98.8654 104.25 97.8643 104.25Z" fill="#989FB0"/>
<defs>
<filter id="filter0_d_22_6483" x="32.4829" y="60.1061" width="110.491" height="93.5499" filterUnits="userSpaceOnUse" color-interpolation-filters="sRGB">
<feFlood flood-opacity="0" result="BackgroundImageFix"/>
<feColorMatrix in="SourceAlpha" type="matrix" values="0 0 0 0 0 0 0 0 0 0 0 0 0 0 0 0 0 0 127 0" result="hardAlpha"/>
<feOffset dy="11"/>
<feGaussianBlur stdDeviation="11"/>
<feColorMatrix type="matrix" values="0 0 0 0 0.397708 0 0 0 0 0.47749 0 0 0 0 0.575 0 0 0 0.27 0"/>
<feBlend mode="normal" in2="BackgroundImageFix" result="effect1_dropShadow_22_6483"/>
<feBlend mode="normal" in="SourceGraphic" in2="effect1_dropShadow_22_6483" result="shape"/>
</filter>
<linearGradient id="paint0_linear_22_6483" x1="87.7065" y1="69.9599" x2="87.7065" y2="121.19" gradientUnits="userSpaceOnUse">
<stop stop-color="#FDFEFF"/>
<stop offset="0.9964" stop-color="#ECF0F5"/>
</linearGradient>
</defs>
</svg>
