<svg width="126" height="126" viewBox="0 0 126 126" fill="none" xmlns="http://www.w3.org/2000/svg">
<path d="M125.042 63.4272C125.042 70.3022 123.897 76.9689 121.815 83.2189C113.592 107.698 90.3793 125.302 63.2114 125.302C35.9393 125.302 12.7269 107.594 4.50361 83.1147C3.3586 79.6772 2.52587 76.1356 2.00541 72.4897C1.58904 69.4689 1.38086 66.4481 1.38086 63.4272C1.38086 58.9481 1.90132 54.5731 2.73405 50.4064C8.66728 22.4897 33.5452 1.55225 63.2114 1.55225C82.9888 1.55225 100.58 10.8231 111.822 25.1981C112.655 26.2397 113.384 27.1772 114.112 28.2189C116.506 31.5522 118.484 35.1981 120.15 39.0522C123.272 46.5522 125.042 54.7814 125.042 63.4272Z" fill="#2A2E37"/>
<path d="M121.815 83.2189C113.592 107.698 90.3791 125.302 63.2112 125.302C54.8838 125.302 46.8688 123.636 39.5823 120.615C37.7087 119.886 35.9391 118.948 34.1696 118.011C20.3254 110.823 9.60392 98.3231 4.50342 83.2189L29.7977 58.0106L39.0619 48.7397C41.5601 46.2397 45.7238 46.2397 48.222 48.7397L52.802 53.3231L76.1186 76.6564L91.1078 61.6564C93.606 59.1564 97.7696 59.1564 100.268 61.6564L113.279 74.6772L121.815 83.2189Z" fill="#8E96AB"/>
<path d="M121.815 83.219C113.592 107.698 90.3795 125.302 63.2115 125.302C54.8842 125.302 46.8691 123.636 39.5827 120.615C37.709 119.886 35.9395 118.948 34.1699 118.011L76.0148 76.4482L91.1081 61.6565C93.6063 59.1565 97.77 59.1565 100.268 61.6565L121.815 83.219Z" fill="#5C6479"/>
<path d="M120.046 39.0523H80.4907C80.6989 33.4273 85.2789 28.9482 90.8999 28.9482C91.2122 28.9482 91.4204 28.9482 91.7326 28.9482C93.1899 24.2607 97.5618 20.719 102.766 20.719C107.659 20.719 111.926 23.844 113.592 28.1148C113.8 28.1148 114.008 28.1148 114.112 28.1148C116.402 31.6565 118.484 35.3023 120.046 39.0523Z" fill="#C6CDDF"/>
<path d="M36.7721 72.5939H2.00541C1.58904 69.5731 1.38086 66.5522 1.38086 63.5314C1.38086 59.0522 1.90132 54.6772 2.73405 50.5106C3.3586 50.3022 3.98315 50.3022 4.6077 50.3022C10.645 50.3022 15.7455 54.0522 17.7233 59.3647C22.4074 59.5731 26.3629 62.8022 27.612 67.1772C28.2365 67.0731 28.757 66.9689 29.4856 66.9689C32.9207 66.8647 35.9393 69.2606 36.7721 72.5939Z" fill="#C6CDDF"/>
<path d="M48.2226 48.7398L52.8026 53.3231L46.1407 59.9898L41.0403 54.8856L34.0661 61.8648C34.0661 61.8648 31.8802 59.8856 29.7983 57.9064L39.0625 48.6356C41.5607 46.1356 45.6203 46.1356 48.2226 48.7398Z" fill="#C6CDDF"/>
<path d="M113.28 74.6773L106.306 81.6565L101.101 76.4482L93.6067 83.9482L81.2197 71.5523L91.1084 61.6565C93.6066 59.1565 97.7703 59.1565 100.269 61.6565L113.28 74.6773Z" fill="#C6CDDF"/>
<path d="M19.2849 37.8022C29.6328 37.8022 38.0214 29.4076 38.0214 19.0522C38.0214 8.69691 29.6328 0.302246 19.2849 0.302246C8.93697 0.302246 0.54834 8.69691 0.54834 19.0522C0.54834 29.4076 8.93697 37.8022 19.2849 37.8022Z" fill="#474E61"/>
</svg>
