<svg width="179" height="178" viewBox="0 0 179 178" fill="none" xmlns="http://www.w3.org/2000/svg">
<path d="M86.1929 140C120.686 140 148.648 112.018 148.648 77.5C148.648 42.9822 120.686 15 86.1929 15C51.6999 15 23.7378 42.9822 23.7378 77.5C23.7378 112.018 51.6999 140 86.1929 140Z" fill="#2A2E37"/>
<g filter="url(#filter0_d_129_8577)">
<path d="M154.005 109.475L94.9261 143.569C91.9765 145.304 87.5521 145.477 85.0362 144.003L24.1351 108.781C21.6193 107.306 21.8796 104.79 24.8292 103.055L83.9084 68.9606C86.858 67.2256 91.2825 67.0521 93.7983 68.5269L154.699 103.749C157.215 105.224 156.955 107.74 154.005 109.475Z" fill="#393F4E"/>
</g>
<path d="M85.3136 97.4593L54.863 114.984C53.7352 115.678 52.0002 115.764 50.9591 115.157L35.7772 106.395C34.7362 105.788 34.9097 104.833 36.0375 104.139L66.488 86.5283C67.6158 85.8343 69.3509 85.7476 70.3919 86.3548L85.5738 95.117C86.6149 95.7242 86.4414 96.7653 85.3136 97.4593Z" fill="#2A2E37"/>
<path d="M121.49 118.887L91.0393 136.411C89.9115 137.106 88.1765 137.192 87.1354 136.585L57.8099 120.074C56.7689 119.467 56.9424 118.513 58.0702 117.819L88.5207 100.208C89.6485 99.5135 91.3836 99.4268 92.4246 100.034L121.75 116.545C122.791 117.152 122.618 118.193 121.49 118.887Z" fill="#2A2E37"/>
<g filter="url(#filter1_d_129_8577)">
<path d="M154.005 90.3887L94.9261 124.483C91.9765 126.218 87.5521 126.391 85.0362 124.917L24.1351 89.6946C21.6193 88.2198 21.8796 85.704 24.8292 83.9689L83.9084 49.8747C86.858 48.1396 91.2825 47.9661 93.7983 49.4409L154.699 84.6629C157.215 86.1377 156.955 88.6536 154.005 90.3887Z" fill="#474E61"/>
</g>
<path d="M48.2527 81.5399L37.582 87.6994C36.7145 88.1332 35.4132 88.1332 34.5457 87.6994C33.6781 87.2656 33.6781 86.4849 34.5457 85.9643L45.2164 79.8048C46.0839 79.3711 47.3852 79.3711 48.2527 79.8048C49.1203 80.2386 49.0335 81.0194 48.2527 81.5399Z" fill="#C6CDDF"/>
<path d="M59.0101 87.3519L48.4262 93.4247C47.7322 93.7717 46.5176 93.7717 45.9971 93.4247C45.3031 93.0777 45.3031 92.3836 45.9971 92.0366L56.581 85.9639C57.2751 85.6169 58.4896 85.6169 59.0101 85.9639C59.7042 86.3109 59.6174 86.9182 59.0101 87.3519Z" fill="#8E96AB"/>
<path d="M75.4067 100.105L67.6856 104.529C67.0783 104.876 65.8638 104.789 65.3433 104.529C64.6492 104.182 64.6492 103.488 65.3433 103.141L73.0644 98.7167C73.6716 98.3697 74.8862 98.4564 75.4067 98.7167C75.7537 99.0637 75.9272 99.7577 75.4067 100.105Z" fill="#8E96AB"/>
<path d="M121.039 73.7316L110.195 79.9778C109.501 80.4116 108.286 80.3248 107.766 79.9778C107.072 79.6308 107.159 78.9368 107.766 78.5898L118.61 72.3435C119.304 71.9097 120.519 71.9965 121.039 72.3435C121.56 72.6905 121.646 73.3845 121.039 73.7316Z" fill="#8E96AB"/>
<path d="M104.123 83.5348L81.3931 96.6346C80.6991 97.0683 79.4846 96.9816 78.964 96.6346C78.27 96.2876 78.3568 95.5935 79.0508 95.2465L101.78 82.1467C102.474 81.713 103.689 81.7997 104.209 82.1467C104.643 82.4937 104.73 83.1878 104.123 83.5348Z" fill="#8E96AB"/>
<path d="M92.3237 97.5021L78.2696 105.57C77.5756 106.004 76.361 105.917 75.8405 105.57C75.1465 105.223 75.2332 104.529 75.9273 104.182L89.9813 96.114C90.6754 95.6802 91.8899 95.767 92.4104 96.114C92.931 96.5478 92.931 97.155 92.3237 97.5021Z" fill="#8E96AB"/>
<path d="M105.337 89.9545L97.7023 94.3789C97.0083 94.7259 95.7937 94.7259 95.2732 94.3789C94.5792 94.0319 94.6659 93.3379 95.2732 92.9908L102.908 88.5664C103.602 88.2194 104.816 88.2194 105.337 88.5664C105.944 89.0002 105.857 89.6942 105.337 89.9545Z" fill="#8E96AB"/>
<path d="M97.0086 102.708L80.7857 112.077C80.0917 112.511 78.8771 112.424 78.3566 112.077C77.6626 111.73 77.7493 111.036 78.4434 110.689L94.6663 101.32C95.3603 100.886 96.5749 100.973 97.0954 101.32C97.7027 101.667 97.7894 102.187 97.0086 102.708Z" fill="#8E96AB"/>
<path d="M108.547 96.0272L102.3 99.5841C101.606 99.9311 100.392 99.9311 99.8713 99.5841C99.1773 99.2371 99.2641 98.5431 99.8713 98.1961L106.118 94.6392C106.812 94.2922 108.026 94.2922 108.547 94.6392C109.241 94.9862 109.327 95.5067 108.547 96.0272Z" fill="#8E96AB"/>
<path d="M93.7984 111.643L86.9449 115.634C86.2509 116.068 85.0363 115.981 84.5158 115.634C83.8218 115.287 83.9085 114.593 84.6025 114.246L91.4561 110.255C92.1501 109.821 93.3647 109.908 93.8852 110.255C94.5792 110.602 94.666 111.209 93.7984 111.643Z" fill="#8E96AB"/>
<path d="M99.698 108.26L98.3967 109.04C97.7894 109.387 96.5749 109.301 96.0544 109.04C95.3603 108.693 95.3603 108.086 95.9676 107.652L97.2689 106.871C97.8762 106.524 99.0907 106.611 99.6113 106.871C100.305 107.305 100.305 107.912 99.698 108.26Z" fill="#8E96AB"/>
<path d="M64.2158 99.3243L61.3529 100.973C60.7457 101.32 59.6179 101.233 59.0973 100.886C58.4033 100.539 58.4033 99.9316 59.0106 99.5846L61.8735 97.9362C62.4807 97.5892 63.6085 97.676 64.129 98.023C64.7363 98.4568 64.8231 99.064 64.2158 99.3243Z" fill="#8E96AB"/>
<path d="M89.2872 84.9228L71.5895 95.073C70.8955 95.5067 69.6809 95.42 69.1604 95.073C68.4664 94.726 68.5531 94.0319 69.1604 93.6849L86.8582 83.448C87.5522 83.0142 88.7667 83.101 89.2872 83.448C89.9813 83.8818 89.9813 84.489 89.2872 84.9228Z" fill="#8E96AB"/>
<path d="M70.8954 87.6124L54.6724 96.9818C53.9784 97.4156 52.7639 97.3288 52.2433 96.9818C51.5493 96.6348 51.6361 95.9408 52.3301 95.5937L68.4663 86.2244C69.1603 85.7906 70.3748 85.8773 70.8954 86.2244C71.6762 86.5714 71.7629 87.1786 70.8954 87.6124Z" fill="#8E96AB"/>
<path d="M92.4971 75.1197L76.3609 84.4891C75.6669 84.9229 74.4523 84.8361 73.9318 84.4891C73.2378 84.1421 73.3245 83.4481 74.0186 83.1011L90.2415 73.7317C90.9355 73.2979 92.1501 73.3847 92.6706 73.7317C93.2779 74.0787 93.3646 74.686 92.4971 75.1197Z" fill="#8E96AB"/>
<path d="M104.122 68.4398L97.8761 71.9967C97.1821 72.3437 95.9675 72.3437 95.447 71.9967C94.753 71.6497 94.8398 70.9557 95.447 70.6087L101.693 67.0518C102.387 66.7048 103.602 66.7048 104.122 67.0518C104.816 67.4855 104.903 68.0061 104.122 68.4398Z" fill="#8E96AB"/>
<g filter="url(#filter2_d_129_8577)">
<path d="M153.588 52.9453L94.5091 87.0395C91.5595 88.7746 87.1351 88.9481 84.6192 87.4733L23.7182 52.2513C21.2023 50.7765 21.4626 48.2606 24.4122 46.5255L83.4914 12.4314C86.441 10.6963 90.8655 10.5228 93.3813 11.9976L154.282 47.2196C156.798 48.6944 156.538 51.2102 153.588 52.9453Z" fill="#5C6479"/>
</g>
<path d="M48.0955 44.2699L37.4248 50.4294C36.5573 50.8632 35.256 50.8632 34.3884 50.4294C33.5209 49.9956 33.5209 49.2148 34.3884 48.6943L45.0591 42.5348C45.9267 42.101 47.228 42.101 48.0955 42.5348C48.9631 42.9686 48.9631 43.8361 48.0955 44.2699Z" fill="#C6CDDF"/>
<path d="M67.8758 40.019L43.6715 53.9863C43.151 54.2466 42.2835 54.2466 41.763 53.9863C41.2424 53.726 41.2424 53.2055 41.763 52.9452L65.9672 38.9779C66.4877 38.7176 67.3553 38.7176 67.8758 38.9779C68.3963 39.2382 68.3963 39.7587 67.8758 40.019Z" fill="#8E96AB"/>
<path opacity="0.7" d="M99.1069 72.5518L87.9157 78.9716C86.8747 79.5789 85.2263 79.6656 84.2721 79.1451L50.0044 59.3653C49.0501 58.8448 49.2236 57.8905 50.2646 57.2832L61.4558 50.8634C62.4969 50.2562 64.1452 50.1694 65.0995 50.6899L99.3672 70.4698C100.235 70.9903 100.148 71.9446 99.1069 72.5518Z" fill="#2A2E37"/>
<path opacity="0.7" d="M120.014 38.8045L89.5637 56.3288C88.4359 57.0228 86.7008 57.1095 85.6598 56.5023L70.4779 47.7401C69.4369 47.1329 69.6104 46.1786 70.7382 45.4845L101.189 27.8736C102.316 27.1795 104.052 27.0928 105.093 27.7001L120.275 36.4622C121.316 37.0694 121.142 38.1105 120.014 38.8045Z" fill="#2A2E37"/>
<path opacity="0.7" d="M119.407 60.8401L107.435 67.7804C106.828 68.1274 105.874 68.2142 105.267 67.8671L93.6415 61.1871C93.121 60.8401 93.121 60.3196 93.8151 59.9726L105.787 53.0323C106.394 52.6853 107.349 52.5985 107.956 52.9455L119.581 59.6255C120.101 59.9726 120.015 60.4931 119.407 60.8401Z" fill="#2A2E37"/>
<path opacity="0.7" d="M139.621 49.2151L127.649 56.1554C127.041 56.5024 126.087 56.5892 125.48 56.2421L113.855 49.5621C113.334 49.2151 113.334 48.6946 114.028 48.3476L126 41.4073C126.608 41.0603 127.562 40.9735 128.169 41.3205L139.794 48.0005C140.315 48.2608 140.228 48.8681 139.621 49.2151Z" fill="#2A2E37"/>
<defs>
<filter id="filter0_d_129_8577" x="0.416992" y="56.5293" width="178" height="121.471" filterUnits="userSpaceOnUse" color-interpolation-filters="sRGB">
<feFlood flood-opacity="0" result="BackgroundImageFix"/>
<feColorMatrix in="SourceAlpha" type="matrix" values="0 0 0 0 0 0 0 0 0 0 0 0 0 0 0 0 0 0 127 0" result="hardAlpha"/>
<feOffset dy="11"/>
<feGaussianBlur stdDeviation="11"/>
<feColorMatrix type="matrix" values="0 0 0 0 0 0 0 0 0 0 0 0 0 0 0 0 0 0 0.27 0"/>
<feBlend mode="normal" in2="BackgroundImageFix" result="effect1_dropShadow_129_8577"/>
<feBlend mode="normal" in="SourceGraphic" in2="effect1_dropShadow_129_8577" result="shape"/>
</filter>
<filter id="filter1_d_129_8577" x="0.416992" y="37.4434" width="178" height="121.471" filterUnits="userSpaceOnUse" color-interpolation-filters="sRGB">
<feFlood flood-opacity="0" result="BackgroundImageFix"/>
<feColorMatrix in="SourceAlpha" type="matrix" values="0 0 0 0 0 0 0 0 0 0 0 0 0 0 0 0 0 0 127 0" result="hardAlpha"/>
<feOffset dy="11"/>
<feGaussianBlur stdDeviation="11"/>
<feColorMatrix type="matrix" values="0 0 0 0 0 0 0 0 0 0 0 0 0 0 0 0 0 0 0.27 0"/>
<feBlend mode="normal" in2="BackgroundImageFix" result="effect1_dropShadow_129_8577"/>
<feBlend mode="normal" in="SourceGraphic" in2="effect1_dropShadow_129_8577" result="shape"/>
</filter>
<filter id="filter2_d_129_8577" x="0" y="0" width="178" height="121.471" filterUnits="userSpaceOnUse" color-interpolation-filters="sRGB">
<feFlood flood-opacity="0" result="BackgroundImageFix"/>
<feColorMatrix in="SourceAlpha" type="matrix" values="0 0 0 0 0 0 0 0 0 0 0 0 0 0 0 0 0 0 127 0" result="hardAlpha"/>
<feOffset dy="11"/>
<feGaussianBlur stdDeviation="11"/>
<feColorMatrix type="matrix" values="0 0 0 0 0 0 0 0 0 0 0 0 0 0 0 0 0 0 0.27 0"/>
<feBlend mode="normal" in2="BackgroundImageFix" result="effect1_dropShadow_129_8577"/>
<feBlend mode="normal" in="SourceGraphic" in2="effect1_dropShadow_129_8577" result="shape"/>
</filter>
</defs>
</svg>
