<svg width="143" height="154" viewBox="0 0 143 154" fill="none" xmlns="http://www.w3.org/2000/svg">
<path d="M60.3006 119.867C93.3766 119.867 120.19 93.1019 120.19 60.0849C120.19 27.0678 93.3766 0.302246 60.3006 0.302246C27.2246 0.302246 0.411133 27.0678 0.411133 60.0849C0.411133 93.1019 27.2246 119.867 60.3006 119.867Z" fill="#2A2E37"/>
<path d="M31.6825 85.1717C30.9698 85.1717 30.2898 85.0298 29.6684 84.7733L29.2869 85.6976C27.754 85.0648 26.5211 83.8457 25.8785 82.3281L26.7993 81.9381C26.5377 81.3203 26.3931 80.6441 26.3931 79.9354V77.4541H25.3931V72.4914H26.3931V67.5288H25.3931V62.5661H26.3931V57.6034H25.3931V52.6408H26.3931V47.6781H25.3931V42.7154H26.3931V40.2341C26.3931 39.5254 26.5377 38.8492 26.7993 38.2314L25.8785 37.8415C26.5211 36.3238 27.754 35.1047 29.2869 34.4719L29.6684 35.3963C30.2898 35.1397 30.9698 34.9978 31.6825 34.9978H34.1001V33.9978H38.9353V34.9978H43.7705V33.9978H48.6057V34.9978H53.441V33.9978H58.2762V34.9978H63.1114V33.9978H67.9466V34.9978H72.7818V33.9978H77.617V34.9978H82.4522V33.9978H87.2874V34.9978H89.705C90.4177 34.9978 91.0977 35.1397 91.7191 35.3963L92.1007 34.4719C93.6335 35.1047 94.8664 36.3238 95.509 37.8415L94.5882 38.2314C94.8498 38.8492 94.9945 39.5254 94.9945 40.2341V42.7209H95.9945V47.6946H94.9945V52.6682H95.9945V57.6419H94.9945V62.6155H95.9945V67.5892H94.9945V72.5628H95.9945V77.5365H94.9945V80.0233C94.9945 80.7381 94.8528 81.4117 94.5969 82.021L95.5188 82.4082C94.8841 83.9195 93.6568 85.1158 92.0979 85.7266L91.7331 84.7955C91.1166 85.0371 90.4337 85.1717 89.705 85.1717H87.2874V86.1717H82.4522V85.1717H77.617V86.1717H72.7818V85.1717H67.9466V86.1717H63.1114V85.1717H58.2762V86.1717H53.441V85.1717H48.6057V86.1717H43.7705V85.1717H38.9353V86.1717H34.1001V85.1717H31.6825Z" fill="#393F4E" stroke="#5C6479" stroke-width="2" stroke-miterlimit="10" stroke-dasharray="5.01 5.01"/>
<path fill-rule="evenodd" clip-rule="evenodd" d="M54.7197 65.4387C54.7197 64.7936 55.2673 64.2708 55.9428 64.2708H66.5308C67.2062 64.2708 67.7538 64.7936 67.7538 65.4387C67.7538 66.0837 67.2062 66.6066 66.5308 66.6066H55.9428C55.2673 66.6066 54.7197 66.0837 54.7197 65.4387Z" fill="#989FB0"/>
<path fill-rule="evenodd" clip-rule="evenodd" d="M61.1919 51.7281C61.8674 51.7281 62.415 52.251 62.415 52.896V61.1165C62.415 61.7615 61.8674 62.2844 61.1919 62.2844C60.5165 62.2844 59.9689 61.7615 59.9689 61.1165V52.896C59.9689 52.251 60.5165 51.7281 61.1919 51.7281Z" fill="#989FB0"/>
<path fill-rule="evenodd" clip-rule="evenodd" d="M60.3285 51.7302C60.8031 51.2782 61.5702 51.2751 62.0487 51.7233L67.3872 56.7234C67.8694 57.1751 67.8769 57.9145 67.4039 58.375C66.9309 58.8354 66.1565 58.8426 65.6743 58.3909L61.1995 54.1998L56.8066 58.384C56.3283 58.8395 55.5539 58.8386 55.0769 58.3819C54.5998 57.9253 54.6008 57.1858 55.079 56.7303L60.3285 51.7302Z" fill="#989FB0"/>
<g filter="url(#filter0_d_111_368)">
<path d="M115.054 120.656H60.4096C57.156 120.656 54.4863 117.991 54.4863 114.743V77.0189C54.4863 73.7711 57.156 71.1062 60.4096 71.1062H115.054C118.307 71.1062 120.977 73.7711 120.977 77.0189V114.743C120.977 117.991 118.307 120.656 115.054 120.656Z" fill="#5C6479"/>
</g>
<path d="M120.294 107.6C121.277 107.6 122.063 108.387 122.063 109.371V120.779C122.063 123.335 120.098 125.302 117.543 125.302H110.074C109.288 125.302 108.501 125.106 108.108 124.516C106.339 122.942 102.605 119.795 101.819 118.615C101.622 118.222 101.426 118.025 101.426 117.632V115.075C101.426 113.501 102.605 112.321 104.177 112.321H105.16V117.238H105.75V107.01C105.75 106.027 106.536 105.24 107.519 105.24C108.501 105.24 109.288 106.027 109.288 107.01V108.977H109.877V106.42C109.877 105.437 110.663 104.65 111.646 104.65C112.629 104.65 113.415 105.437 113.415 106.42V108.977H114.201V107.6C114.201 106.617 114.987 105.83 115.97 105.83C116.953 105.83 117.739 106.617 117.739 107.6V108.977H118.525C118.722 108.191 119.311 107.6 120.294 107.6Z" fill="white" stroke="#AAB2C5" stroke-width="2" stroke-miterlimit="10" stroke-linecap="round" stroke-linejoin="round"/>
<path d="M92.1945 93.3414C93.3464 93.3414 94.2802 92.4092 94.2802 91.2594C94.2802 90.1096 93.3464 89.1775 92.1945 89.1775C91.0427 89.1775 90.1089 90.1096 90.1089 91.2594C90.1089 92.4092 91.0427 93.3414 92.1945 93.3414Z" fill="#C2C8D6"/>
<path d="M92.5286 104.417H77.0114C76.0103 104.417 75.4263 103.251 76.0103 102.502L83.7689 91.6757C84.2694 91.0095 85.2705 91.0095 85.7711 91.6757L93.5297 102.502C94.1137 103.335 93.5297 104.417 92.5286 104.417Z" fill="#C2C8D6"/>
<path opacity="0.7" d="M97.8677 104.251H91.2771C90.276 104.251 89.7754 103.168 90.276 102.419L93.5296 97.8383C94.0301 97.1721 94.9478 97.1721 95.4484 97.8383L98.702 102.419C99.4528 103.168 98.8689 104.251 97.8677 104.251Z" fill="#989FB0"/>
<defs>
<filter id="filter0_d_111_368" x="32.4863" y="60.1062" width="110.491" height="93.55" filterUnits="userSpaceOnUse" color-interpolation-filters="sRGB">
<feFlood flood-opacity="0" result="BackgroundImageFix"/>
<feColorMatrix in="SourceAlpha" type="matrix" values="0 0 0 0 0 0 0 0 0 0 0 0 0 0 0 0 0 0 127 0" result="hardAlpha"/>
<feOffset dy="11"/>
<feGaussianBlur stdDeviation="11"/>
<feColorMatrix type="matrix" values="0 0 0 0 0 0 0 0 0 0 0 0 0 0 0 0 0 0 0.27 0"/>
<feBlend mode="normal" in2="BackgroundImageFix" result="effect1_dropShadow_111_368"/>
<feBlend mode="normal" in="SourceGraphic" in2="effect1_dropShadow_111_368" result="shape"/>
</filter>
</defs>
</svg>
