<svg width="419" height="56" viewBox="0 0 419 56" fill="none" xmlns="http://www.w3.org/2000/svg">
<g clip-path="url(#clip0_1_15)">
<path d="M73.0625 47.0001V19.7553H79.7681L80.4545 22.7121L82.3553 21.6033C83.5873 20.8993 84.8193 20.3361 86.0513 19.9137C87.3185 19.4913 88.5857 19.2801 89.8529 19.2801C91.9649 19.2801 93.7073 19.6849 95.0801 20.4945C96.4881 21.3041 97.5265 22.4305 98.1953 23.8737C98.8993 25.2817 99.2513 26.9009 99.2513 28.7313V47.0001H90.2225V31.0545C90.2225 29.8577 89.9233 28.9425 89.3249 28.3089C88.7617 27.6753 87.7937 27.3585 86.4209 27.3585C85.8929 27.3585 85.3825 27.4289 84.8897 27.5697C84.4321 27.6753 83.9745 27.8161 83.5169 27.9921L82.0385 28.6257V47.0001H73.0625ZM107.435 47.0001V31.0545C107.435 29.8577 107.136 28.9425 106.538 28.3089C105.975 27.6753 104.989 27.3585 103.581 27.3585C103.053 27.3585 102.543 27.4289 102.05 27.5697C101.592 27.6753 101.135 27.8161 100.677 27.9921L98.9345 28.7841L96.4529 23.4513L99.7265 21.6033C100.994 20.8993 102.261 20.3361 103.528 19.9137C104.795 19.4913 106.063 19.2801 107.33 19.2801C109.407 19.2801 111.114 19.6849 112.451 20.4945C113.824 21.3041 114.845 22.4305 115.514 23.8737C116.218 25.2817 116.57 26.9009 116.57 28.7313V47.0001H107.435Z" fill="#E4E4E7"/>
<path d="M129.22 47.4225C127.742 47.4225 126.334 47.1585 124.996 46.6305C123.659 46.1025 122.567 45.2753 121.723 44.1489C120.878 42.9873 120.455 41.5441 120.455 39.8193C120.455 37.4961 121.159 35.7185 122.567 34.4865C124.011 33.2193 126.211 32.2689 129.167 31.6353L136.929 29.8929V29.7873C136.964 28.6609 136.577 27.8337 135.767 27.3057C134.958 26.7425 133.62 26.4609 131.755 26.4609C130.663 26.4609 129.537 26.5313 128.375 26.6721C127.214 26.7777 126.07 26.9361 124.943 27.1473L123.571 27.4113L122.251 21.8673L123.94 21.2337C125.665 20.6353 127.355 20.1601 129.009 19.8081C130.663 19.4561 132.3 19.2801 133.919 19.2801C137.51 19.2801 140.396 20.1953 142.579 22.0257C144.761 23.8209 145.852 26.4785 145.852 29.9985V38.6577C145.852 39.5377 146.081 40.1537 146.539 40.5057C147.031 40.8577 147.947 41.1217 149.284 41.2977L148.703 47.0001C148.211 47.1057 147.7 47.1937 147.172 47.2641C146.679 47.3697 146.257 47.4225 145.905 47.4225C143.863 47.4225 142.227 47.0353 140.995 46.2609C139.798 45.4513 138.883 44.4481 138.249 43.2513L137.087 44.2545C135.926 45.3105 134.641 46.1025 133.233 46.6305C131.825 47.1585 130.487 47.4225 129.22 47.4225ZM131.966 40.9281C132.529 40.9281 133.145 40.8401 133.814 40.6641C134.518 40.4529 135.204 40.1361 135.873 39.7137L136.929 39.1329V34.4337L131.438 35.9649C130.487 36.2113 129.836 36.5633 129.484 37.0209C129.132 37.4433 128.956 37.9537 128.956 38.5521C128.956 39.3265 129.22 39.9249 129.748 40.3473C130.311 40.7345 131.051 40.9281 131.966 40.9281Z" fill="#E4E4E7"/>
<path d="M152.881 47.0001V19.7553H161.857V47.0001H152.881ZM157.369 15.9537C156.384 15.9537 155.451 15.7073 154.571 15.2145C153.726 14.7217 153.057 14.0705 152.564 13.2609C152.072 12.4513 151.825 11.5713 151.825 10.6209C151.825 9.63529 152.072 8.75529 152.564 7.98089C153.057 7.17129 153.726 6.52009 154.571 6.02729C155.451 5.53449 156.384 5.28809 157.369 5.28809C158.39 5.28809 159.323 5.53449 160.168 6.02729C161.012 6.52009 161.681 7.17129 162.174 7.98089C162.667 8.75529 162.913 9.63529 162.913 10.6209C162.913 11.5713 162.667 12.4513 162.174 13.2609C161.681 14.0705 161.012 14.7217 160.168 15.2145C159.323 15.7073 158.39 15.9537 157.369 15.9537Z" fill="#E4E4E7"/>
<path d="M176.595 47.4225C173.427 47.4225 171.157 46.7185 169.784 45.3105C168.411 43.9025 167.725 41.9665 167.725 39.5025V8.0337L176.701 6.34409V38.0241C176.701 38.7281 176.93 39.2737 177.387 39.6609C177.845 40.0129 178.567 40.1889 179.552 40.1889C179.763 40.1889 180.01 40.1889 180.291 40.1889C180.573 40.1537 180.872 40.1185 181.189 40.0833L180.925 46.6305C180.291 46.8769 179.587 47.0705 178.813 47.2113C178.039 47.3521 177.299 47.4225 176.595 47.4225Z" fill="#E4E4E7"/>
<path d="M198.328 47.4225C195.547 47.4225 192.995 46.8945 190.672 45.8385C188.384 44.7473 186.536 43.1633 185.128 41.0865C183.755 38.9745 183.068 36.4225 183.068 33.4305C183.068 31.1777 183.456 29.1713 184.23 27.4113C185.04 25.6513 186.113 24.1729 187.451 22.9761C188.824 21.7441 190.39 20.8289 192.15 20.2305C193.91 19.5969 195.758 19.2801 197.694 19.2801C200.51 19.2801 202.886 19.8785 204.822 21.0753C206.793 22.2369 208.289 23.8737 209.31 25.9857C210.366 28.0977 210.894 30.5617 210.894 33.3777V35.6481H192.308C192.555 36.7745 193.012 37.6897 193.681 38.3937C194.35 39.0625 195.177 39.5553 196.163 39.8721C197.184 40.1889 198.328 40.3473 199.595 40.3473C200.475 40.3473 201.408 40.2769 202.393 40.1361C203.414 39.9953 204.452 39.7841 205.508 39.5025L208.096 38.8689L210.366 44.4129L207.832 45.4689C206.248 46.1377 204.646 46.6305 203.027 46.9473C201.408 47.2641 199.841 47.4225 198.328 47.4225ZM192.308 30.3153H202.868C202.657 28.8369 202.147 27.7281 201.337 26.9889C200.528 26.2145 199.366 25.8273 197.852 25.8273C196.902 25.8273 196.04 25.9857 195.265 26.3025C194.526 26.6193 193.91 27.1121 193.417 27.7809C192.924 28.4497 192.555 29.2945 192.308 30.3153Z" fill="#E4E4E7"/>
<path d="M215.272 47.0001V19.7553H221.819L222.717 23.2401L224.776 21.6033C225.761 20.8289 226.782 20.2481 227.838 19.8609C228.929 19.4737 229.968 19.2801 230.953 19.2801C231.376 19.2449 231.816 19.3153 232.273 19.4913C232.766 19.6321 233.241 19.8785 233.699 20.2305V27.7281C232.678 27.7633 231.693 27.8513 230.742 27.9921C229.792 28.0977 228.736 28.3441 227.574 28.7313L224.248 29.6289V47.0001H215.272Z" fill="#E4E4E7"/>
<path d="M240.614 47.0001V27.0417H234.912V21.2337L240.614 19.7553V15.9537C240.614 13.7009 241.054 11.9057 241.934 10.5681C242.849 9.23047 244.099 8.26247 245.683 7.66407C247.302 7.03048 249.133 6.71368 251.174 6.71368C252.265 6.71368 253.392 6.81928 254.553 7.03048C255.715 7.20648 256.912 7.45288 258.144 7.76968L258.777 7.98088L257.616 14.3169L256.771 14.2113C256.208 14.1409 255.68 14.0881 255.187 14.0529C254.729 13.9825 254.307 13.9473 253.92 13.9473C252.441 13.9473 251.35 14.1761 250.646 14.6337C249.977 15.0561 249.643 15.7777 249.643 16.7985V19.7553H257.616V27.0417H249.59V47.0001H240.614Z" fill="#E4E4E7"/>
<path d="M270.707 47.4225C267.504 47.4225 265.145 46.5601 263.632 44.8353C262.118 43.1105 261.361 40.8401 261.361 38.0241V19.7553H270.337V35.6481C270.337 36.9857 270.654 37.9361 271.288 38.4993C271.921 39.0625 272.889 39.3441 274.192 39.3441C274.72 39.3441 275.213 39.2913 275.67 39.1857C276.128 39.0449 276.585 38.8865 277.043 38.7105L278.521 38.0241V19.7553H287.55V47.0001H280.845L279.736 42.1953L281.478 43.4625L278.205 45.2577C276.902 45.9265 275.617 46.4545 274.35 46.8417C273.118 47.2289 271.904 47.4225 270.707 47.4225Z" fill="#E4E4E7"/>
<path d="M303.783 47.4225C302.199 47.4225 300.58 47.2817 298.926 47.0001C297.271 46.7185 295.617 46.3313 293.962 45.8385L292.431 45.3633L293.751 39.3969L295.124 39.6609C296.462 39.8721 297.746 40.0481 298.978 40.1889C300.21 40.2945 301.407 40.3473 302.569 40.3473C303.625 40.3473 304.417 40.2417 304.945 40.0305C305.508 39.7841 305.79 39.3969 305.79 38.8689C305.79 38.5521 305.684 38.2705 305.473 38.0241C305.262 37.7777 304.839 37.5137 304.206 37.2321C303.607 36.9505 302.692 36.6337 301.46 36.2817C299.207 35.6481 297.43 34.9617 296.127 34.2225C294.86 33.4833 293.962 32.5857 293.434 31.5297C292.906 30.4737 292.642 29.1361 292.642 27.5169C292.678 25.6865 293.188 24.1729 294.174 22.9761C295.194 21.7441 296.585 20.8289 298.345 20.2305C300.105 19.5969 302.182 19.2801 304.575 19.2801C306.054 19.2801 307.55 19.4033 309.063 19.6497C310.612 19.8609 312.178 20.2129 313.762 20.7057L314.66 21.0225L313.551 26.7249L312.442 26.6193C311.14 26.4433 309.961 26.3377 308.905 26.3025C307.884 26.2321 307.004 26.1969 306.265 26.1969C304.892 26.1969 303.818 26.3025 303.044 26.5137C302.27 26.7249 301.882 27.0417 301.882 27.4641C301.882 27.8161 301.988 28.0977 302.199 28.3089C302.446 28.4849 302.956 28.6961 303.73 28.9425C304.54 29.1889 305.754 29.5409 307.374 29.9985C309.38 30.4913 310.964 31.1073 312.126 31.8465C313.287 32.5505 314.114 33.4129 314.607 34.4337C315.135 35.4193 315.399 36.6337 315.399 38.0769C315.399 40.1537 314.889 41.8961 313.868 43.3041C312.882 44.6769 311.527 45.7153 309.802 46.4193C308.078 47.0881 306.071 47.4225 303.783 47.4225Z" fill="#E4E4E7"/>
<path d="M333.421 47.4225C330.641 47.4225 328.089 46.8945 325.765 45.8385C323.477 44.7473 321.629 43.1633 320.221 41.0865C318.849 38.9745 318.162 36.4225 318.162 33.4305C318.162 31.1777 318.549 29.1713 319.324 27.4113C320.133 25.6513 321.207 24.1729 322.545 22.9761C323.917 21.7441 325.484 20.8289 327.244 20.2305C329.004 19.5969 330.852 19.2801 332.788 19.2801C335.604 19.2801 337.98 19.8785 339.916 21.0753C341.887 22.2369 343.383 23.8737 344.404 25.9857C345.46 28.0977 345.988 30.5617 345.988 33.3777V35.6481H327.402C327.649 36.7745 328.106 37.6897 328.775 38.3937C329.444 39.0625 330.271 39.5553 331.257 39.8721C332.277 40.1889 333.421 40.3473 334.689 40.3473C335.569 40.3473 336.501 40.2769 337.487 40.1361C338.508 39.9953 339.546 39.7841 340.602 39.5025L343.189 38.8689L345.46 44.4129L342.925 45.4689C341.341 46.1377 339.74 46.6305 338.121 46.9473C336.501 47.2641 334.935 47.4225 333.421 47.4225ZM327.402 30.3153H337.962C337.751 28.8369 337.241 27.7281 336.431 26.9889C335.621 26.2145 334.46 25.8273 332.946 25.8273C331.996 25.8273 331.133 25.9857 330.359 26.3025C329.62 26.6193 329.004 27.1121 328.511 27.7809C328.018 28.4497 327.649 29.2945 327.402 30.3153Z" fill="#E4E4E7"/>
<path d="M60.4277 5.25407C60.4277 5.25407 60.4268 5.27929 60.4264 5.2919L44.1022 53.2108C43.8533 53.9897 43.3722 54.6738 42.7233 55.1714C42.0745 55.669 41.2889 55.9561 40.4722 55.9943C40.3557 56.0006 40.2395 56.0016 40.1236 55.9977C39.3601 55.9742 38.6194 55.7328 37.9887 55.3019C37.3581 54.8712 36.8638 54.2689 36.5645 53.5662L28.022 34.4113C27.9364 34.2194 27.9131 34.0056 27.9549 33.7997C27.9966 33.5938 28.1017 33.406 28.2553 33.2626L43.3616 19.1482C43.737 18.7788 43.9535 18.2777 43.9645 17.7512C43.9757 17.2247 43.7806 16.7147 43.4212 16.3299C43.0616 15.9451 42.566 15.7162 42.04 15.6915C41.5142 15.6669 40.9993 15.8487 40.6054 16.1984L25.4916 30.3126C25.3381 30.4562 25.1439 30.5482 24.9355 30.5761C24.7273 30.6039 24.5154 30.5659 24.3298 30.4676L5.7804 20.6482C5.05486 20.2693 4.4616 19.6788 4.0792 18.9552C3.69679 18.2315 3.5433 17.4088 3.63907 16.5958C3.73485 15.7831 4.07537 15.0185 4.61551 14.4035C5.15565 13.7886 5.86991 13.3523 6.66361 13.1524L55.5791 0.114439L55.617 0.115707C56.3127 -0.0545736 57.0416 -0.0366232 57.7282 0.167668C58.4149 0.37198 59.035 0.755298 59.5247 1.27832C60.0142 1.80133 60.356 2.4452 60.5147 3.14386C60.6734 3.84252 60.6433 4.57083 60.4277 5.25407Z" fill="#EF469A"/>
<path d="M3.14417 24.5024L15.1689 34.4281L42.9642 13.9517C45.587 14.0354 45.6904 16.1315 45.1272 17.1543L15.7737 51.3066C13.9496 52.5503 12.1939 51.2917 11.5441 50.5068L0 26.3026C0.269279 23.6433 2.20831 23.9944 3.14417 24.5024Z" fill="#4438E7"/>
<path d="M419.244 20V47H415.974V20H419.244Z" fill="#71717A"/>
<path d="M392.409 47V20H401.532C403.65 20 405.381 20.3823 406.726 21.147C408.08 21.9028 409.082 22.9268 409.732 24.2187C410.382 25.5107 410.708 26.9521 410.708 28.543C410.708 30.1338 410.382 31.5796 409.732 32.8804C409.09 34.1812 408.097 35.2183 406.752 35.9917C405.408 36.7563 403.685 37.1387 401.584 37.1387H395.045V34.2383H401.479C402.929 34.2383 404.094 33.9878 404.973 33.4868C405.852 32.9858 406.489 32.3091 406.884 31.4565C407.289 30.5952 407.491 29.624 407.491 28.543C407.491 27.4619 407.289 26.4951 406.884 25.6426C406.489 24.79 405.847 24.1221 404.959 23.6387C404.072 23.1465 402.894 22.9004 401.426 22.9004H395.678V47H392.409Z" fill="#71717A"/>
<path d="M368.428 47H365L374.914 20H378.289L388.203 47H384.775L376.707 24.2715H376.496L368.428 47ZM369.693 36.4531H383.51V39.3535H369.693V36.4531Z" fill="#71717A"/>
</g>
<defs>
<clipPath id="clip0_1_15">
<rect width="419" height="56" fill="white"/>
</clipPath>
</defs>
</svg>
